<svg id="svg" version="1.1" xmlns="http://www.w3.org/2000/svg" xmlns:xlink="http://www.w3.org/1999/xlink" width="400" height="399.00249376558605" viewBox="0, 0, 400,399.00249376558605"><g id="svgg"><path id="path0" d="M1.204 0.201 C 1.195 0.783,50.081 49.574,50.416 49.317 C 50.572 49.199,50.607 49.223,50.495 49.372 C 50.181 49.789,51.960 51.505,52.415 51.223 C 52.637 51.086,52.706 51.156,52.569 51.377 C 52.249 51.895,54.042 53.599,54.485 53.197 C 54.668 53.031,54.706 53.093,54.567 53.335 C 54.253 53.886,56.025 55.607,56.481 55.193 C 56.664 55.027,56.702 55.089,56.563 55.331 C 56.249 55.882,58.021 57.603,58.477 57.189 C 58.660 57.023,58.698 57.085,58.559 57.327 C 58.245 57.878,60.017 59.599,60.473 59.185 C 60.656 59.019,60.694 59.081,60.555 59.323 C 60.241 59.874,62.013 61.595,62.469 61.181 C 62.652 61.015,62.690 61.077,62.551 61.319 C 62.237 61.870,64.009 63.591,64.465 63.177 C 64.648 63.011,64.686 63.073,64.547 63.315 C 64.233 63.866,66.005 65.587,66.461 65.173 C 66.644 65.007,66.682 65.069,66.543 65.311 C 66.229 65.862,68.001 67.583,68.457 67.169 C 68.640 67.003,68.678 67.065,68.539 67.307 C 68.225 67.858,69.997 69.579,70.453 69.165 C 70.636 68.999,70.674 69.061,70.535 69.303 C 70.221 69.854,71.993 71.575,72.449 71.161 C 72.632 70.995,72.670 71.057,72.531 71.299 C 72.217 71.850,73.989 73.571,74.445 73.157 C 74.628 72.991,74.666 73.053,74.527 73.295 C 74.213 73.846,75.985 75.567,76.441 75.153 C 76.625 74.987,76.662 75.049,76.523 75.291 C 76.209 75.842,77.981 77.563,78.437 77.149 C 78.621 76.983,78.658 77.045,78.519 77.287 C 78.205 77.838,79.977 79.559,80.433 79.145 C 80.617 78.979,80.654 79.041,80.515 79.283 C 80.201 79.834,81.973 81.555,82.429 81.141 C 82.613 80.975,82.650 81.037,82.511 81.279 C 82.197 81.830,83.969 83.551,84.425 83.137 C 84.609 82.971,84.646 83.033,84.507 83.275 C 84.193 83.826,85.965 85.547,86.421 85.133 C 86.605 84.967,86.642 85.029,86.503 85.271 C 86.189 85.822,87.961 87.543,88.417 87.129 C 88.601 86.963,88.638 87.025,88.499 87.267 C 88.185 87.819,89.957 89.539,90.413 89.125 C 90.597 88.959,90.634 89.021,90.495 89.263 C 90.181 89.815,91.953 91.535,92.409 91.121 C 92.593 90.955,92.630 91.017,92.491 91.259 C 92.177 91.811,93.949 93.531,94.405 93.117 C 94.589 92.951,94.626 93.013,94.487 93.255 C 94.173 93.807,95.945 95.527,96.401 95.113 C 96.585 94.947,96.622 95.009,96.483 95.251 C 96.169 95.803,97.941 97.523,98.397 97.109 C 98.581 96.943,98.618 97.005,98.479 97.247 C 98.165 97.799,99.937 99.519,100.393 99.105 C 100.577 98.939,100.614 99.001,100.476 99.243 C 100.198 99.730,101.894 101.526,102.325 101.201 C 102.473 101.089,102.503 101.119,102.392 101.268 C 102.077 101.685,103.856 103.401,104.311 103.120 C 104.533 102.983,104.602 103.052,104.465 103.274 C 104.145 103.791,105.939 105.495,106.381 105.093 C 106.565 104.927,106.602 104.989,106.464 105.231 C 106.149 105.783,107.921 107.503,108.377 107.089 C 108.561 106.923,108.598 106.985,108.460 107.227 C 108.145 107.779,109.917 109.499,110.373 109.085 C 110.557 108.919,110.594 108.981,110.456 109.223 C 110.141 109.775,111.913 111.495,112.369 111.081 C 112.553 110.915,112.590 110.977,112.452 111.219 C 112.137 111.771,113.909 113.491,114.365 113.078 C 114.549 112.911,114.586 112.973,114.448 113.215 C 114.133 113.767,115.905 115.487,116.361 115.074 C 116.545 114.907,116.582 114.969,116.444 115.211 C 116.129 115.763,117.901 117.483,118.357 117.070 C 118.541 116.903,118.578 116.965,118.440 117.207 C 118.125 117.759,119.897 119.479,120.353 119.066 C 120.537 118.899,120.574 118.961,120.436 119.203 C 120.121 119.755,121.893 121.475,122.349 121.062 C 122.533 120.895,122.570 120.957,122.432 121.199 C 122.117 121.751,123.889 123.471,124.345 123.058 C 124.529 122.891,124.566 122.953,124.428 123.195 C 124.113 123.747,125.885 125.467,126.341 125.054 C 126.525 124.887,126.562 124.949,126.424 125.191 C 126.110 125.743,127.881 127.463,128.337 127.050 C 128.521 126.883,128.558 126.945,128.420 127.187 C 128.106 127.739,129.877 129.459,130.333 129.046 C 130.517 128.879,130.554 128.941,130.416 129.183 C 130.102 129.735,131.873 131.455,132.329 131.042 C 132.513 130.875,132.550 130.937,132.412 131.179 C 132.098 131.731,133.869 133.451,134.325 133.038 C 134.509 132.871,134.546 132.933,134.408 133.176 C 134.094 133.727,135.865 135.447,136.321 135.034 C 136.505 134.867,136.542 134.929,136.404 135.172 C 136.090 135.723,137.861 137.443,138.317 137.030 C 138.501 136.863,138.538 136.925,138.400 137.168 C 138.086 137.719,139.858 139.439,140.313 139.026 C 140.497 138.859,140.534 138.921,140.396 139.164 C 140.082 139.715,141.854 141.435,142.309 141.022 C 142.493 140.855,142.530 140.917,142.392 141.160 C 142.078 141.711,143.850 143.431,144.305 143.018 C 144.489 142.851,144.526 142.913,144.388 143.156 C 144.074 143.707,145.846 145.427,146.301 145.014 C 146.485 144.847,146.522 144.909,146.384 145.152 C 146.070 145.703,147.842 147.423,148.297 147.010 C 148.481 146.843,148.518 146.905,148.380 147.148 C 148.066 147.699,149.838 149.419,150.293 149.006 C 150.477 148.839,150.514 148.901,150.376 149.144 C 150.062 149.695,151.834 151.415,152.289 151.002 C 152.473 150.835,152.510 150.897,152.372 151.140 C 152.058 151.691,153.830 153.411,154.285 152.998 C 154.469 152.831,154.506 152.893,154.368 153.136 C 154.054 153.687,155.826 155.407,156.281 154.994 C 156.465 154.827,156.502 154.889,156.364 155.132 C 156.050 155.683,157.822 157.403,158.277 156.990 C 158.461 156.823,158.498 156.885,158.360 157.128 C 158.046 157.679,159.818 159.399,160.273 158.986 C 160.457 158.819,160.494 158.881,160.356 159.124 C 160.042 159.675,161.814 161.395,162.269 160.982 C 162.453 160.815,162.490 160.877,162.352 161.120 C 162.038 161.671,163.810 163.391,164.265 162.978 C 164.449 162.811,164.486 162.873,164.348 163.116 C 164.034 163.667,165.806 165.387,166.261 164.974 C 166.445 164.807,166.482 164.869,166.344 165.112 C 166.030 165.663,167.802 167.383,168.257 166.970 C 168.441 166.803,168.478 166.865,168.340 167.108 C 168.026 167.659,169.798 169.379,170.253 168.966 C 170.437 168.799,170.474 168.861,170.336 169.104 C 170.022 169.655,171.794 171.375,172.249 170.962 C 172.433 170.795,172.470 170.857,172.332 171.100 C 172.018 171.651,173.790 173.371,174.245 172.958 C 174.429 172.791,174.466 172.853,174.328 173.096 C 174.014 173.647,175.786 175.367,176.241 174.954 C 176.425 174.787,176.462 174.849,176.324 175.092 C 176.010 175.643,177.782 177.363,178.237 176.950 C 178.421 176.783,178.458 176.845,178.320 177.088 C 178.006 177.639,179.778 179.359,180.233 178.946 C 180.417 178.779,180.454 178.841,180.316 179.084 C 180.002 179.635,181.774 181.355,182.229 180.942 C 182.413 180.775,182.450 180.837,182.312 181.080 C 181.998 181.631,183.770 183.351,184.225 182.938 C 184.409 182.771,184.446 182.833,184.308 183.076 C 183.994 183.627,185.766 185.348,186.221 184.934 C 186.405 184.767,186.442 184.829,186.304 185.072 C 185.990 185.623,187.762 187.344,188.217 186.930 C 188.401 186.763,188.438 186.825,188.300 187.068 C 187.986 187.619,189.758 189.340,190.213 188.926 C 190.397 188.759,190.434 188.821,190.296 189.064 C 189.982 189.615,191.754 191.336,192.209 190.922 C 192.393 190.755,192.430 190.817,192.292 191.060 C 191.978 191.611,193.750 193.332,194.205 192.918 C 194.389 192.751,194.426 192.813,194.288 193.056 C 193.974 193.607,195.746 195.328,196.201 194.914 C 196.385 194.747,196.422 194.809,196.284 195.052 C 195.976 195.591,197.743 197.334,198.167 196.910 C 198.333 196.743,198.410 196.876,198.337 197.206 C 198.263 197.537,198.440 197.755,198.732 197.695 C 199.023 197.634,199.160 197.749,199.036 197.949 C 198.745 198.420,199.781 199.288,200.170 198.899 C 200.333 198.736,200.406 198.809,200.333 199.062 C 200.259 199.314,200.370 199.526,200.579 199.531 C 200.788 199.537,201.101 199.926,201.274 200.395 C 201.448 200.865,201.776 201.134,202.003 200.994 C 202.229 200.854,202.366 200.914,202.305 201.128 C 202.245 201.342,202.366 201.522,202.575 201.527 C 202.784 201.533,203.097 201.922,203.270 202.391 C 203.444 202.861,203.772 203.130,203.999 202.990 C 204.225 202.850,204.362 202.910,204.301 203.124 C 204.241 203.338,204.362 203.518,204.571 203.523 C 204.780 203.529,205.093 203.918,205.266 204.387 C 205.440 204.857,205.768 205.126,205.995 204.986 C 206.221 204.846,206.358 204.906,206.297 205.120 C 206.237 205.334,206.358 205.514,206.567 205.519 C 206.776 205.525,207.089 205.914,207.262 206.383 C 207.436 206.853,207.764 207.122,207.991 206.982 C 208.217 206.842,208.354 206.902,208.293 207.116 C 208.233 207.330,208.354 207.510,208.563 207.515 C 208.772 207.521,209.085 207.910,209.258 208.379 C 209.432 208.849,209.760 209.118,209.987 208.978 C 210.213 208.838,210.350 208.898,210.289 209.112 C 210.229 209.326,210.350 209.506,210.559 209.511 C 210.768 209.517,211.081 209.906,211.254 210.375 C 211.428 210.845,211.756 211.114,211.983 210.974 C 212.209 210.834,212.346 210.894,212.285 211.108 C 212.225 211.322,212.346 211.502,212.555 211.507 C 212.764 211.513,213.077 211.902,213.250 212.371 C 213.424 212.841,213.752 213.110,213.979 212.970 C 214.205 212.830,214.342 212.890,214.281 213.104 C 214.221 213.318,214.342 213.498,214.551 213.503 C 214.760 213.509,215.073 213.898,215.246 214.367 C 215.420 214.837,215.748 215.106,215.975 214.966 C 216.201 214.826,216.338 214.886,216.277 215.100 C 216.217 215.314,216.338 215.494,216.547 215.499 C 216.756 215.505,217.069 215.894,217.242 216.363 C 217.416 216.833,217.744 217.102,217.971 216.962 C 218.197 216.822,218.334 216.882,218.273 217.096 C 218.213 217.310,218.334 217.490,218.543 217.495 C 218.752 217.501,219.065 217.890,219.238 218.359 C 219.412 218.829,219.740 219.098,219.967 218.958 C 220.193 218.818,220.330 218.878,220.269 219.092 C 220.209 219.306,220.330 219.486,220.539 219.491 C 220.748 219.497,221.061 219.886,221.234 220.355 C 221.408 220.825,221.736 221.094,221.963 220.954 C 222.189 220.814,222.326 220.874,222.265 221.088 C 222.205 221.302,222.326 221.482,222.535 221.487 C 222.744 221.493,223.057 221.882,223.230 222.351 C 223.404 222.821,223.732 223.090,223.959 222.950 C 224.185 222.810,224.322 222.870,224.261 223.084 C 224.201 223.298,224.322 223.478,224.531 223.483 C 224.740 223.489,225.053 223.878,225.226 224.347 C 225.400 224.817,225.728 225.086,225.955 224.946 C 226.181 224.806,226.318 224.866,226.257 225.080 C 226.197 225.294,226.318 225.474,226.527 225.479 C 226.736 225.485,227.049 225.874,227.222 226.343 C 227.396 226.813,227.724 227.082,227.951 226.942 C 228.177 226.802,228.314 226.862,228.253 227.076 C 228.193 227.290,228.314 227.470,228.523 227.475 C 228.732 227.481,229.045 227.870,229.218 228.339 C 229.392 228.809,229.720 229.078,229.947 228.938 C 230.173 228.798,230.310 228.858,230.249 229.072 C 230.189 229.286,230.310 229.466,230.519 229.471 C 230.728 229.477,231.041 229.866,231.214 230.335 C 231.388 230.805,231.716 231.074,231.943 230.934 C 232.169 230.794,232.306 230.854,232.245 231.068 C 232.185 231.282,232.306 231.462,232.515 231.467 C 232.724 231.473,233.037 231.862,233.210 232.331 C 233.384 232.801,233.712 233.070,233.939 232.930 C 234.166 232.790,234.302 232.850,234.241 233.064 C 234.181 233.278,234.302 233.458,234.511 233.463 C 234.720 233.469,235.033 233.858,235.206 234.327 C 235.380 234.797,235.708 235.066,235.935 234.926 C 236.162 234.786,236.298 234.846,236.237 235.060 C 236.177 235.274,236.298 235.454,236.507 235.459 C 236.716 235.465,237.029 235.854,237.202 236.323 C 237.376 236.793,237.704 237.062,237.931 236.922 C 238.158 236.782,238.294 236.842,238.233 237.056 C 238.173 237.270,238.294 237.450,238.503 237.455 C 238.712 237.461,239.025 237.850,239.198 238.319 C 239.372 238.789,239.700 239.058,239.927 238.918 C 240.154 238.778,240.290 238.838,240.229 239.052 C 240.169 239.266,240.291 239.446,240.499 239.451 C 240.708 239.457,241.021 239.846,241.194 240.315 C 241.368 240.785,241.696 241.054,241.923 240.914 C 242.150 240.774,242.286 240.834,242.225 241.048 C 242.165 241.262,242.287 241.442,242.495 241.447 C 242.704 241.453,243.017 241.842,243.190 242.311 C 243.364 242.781,243.692 243.050,243.919 242.910 C 244.146 242.770,244.282 242.830,244.221 243.044 C 244.161 243.258,244.283 243.438,244.491 243.443 C 244.700 243.449,245.013 243.838,245.186 244.307 C 245.360 244.777,245.688 245.046,245.915 244.906 C 246.142 244.766,246.278 244.826,246.217 245.040 C 246.157 245.254,246.279 245.434,246.487 245.439 C 246.696 245.445,247.009 245.834,247.182 246.303 C 247.356 246.773,247.684 247.042,247.911 246.902 C 248.138 246.762,248.274 246.822,248.213 247.036 C 248.153 247.250,248.275 247.430,248.483 247.435 C 248.692 247.441,249.005 247.830,249.178 248.299 C 249.352 248.769,249.680 249.038,249.907 248.898 C 250.134 248.758,250.270 248.818,250.209 249.032 C 250.149 249.246,250.271 249.426,250.479 249.431 C 250.688 249.437,251.001 249.826,251.174 250.295 C 251.348 250.765,251.676 251.034,251.903 250.894 C 252.130 250.754,252.266 250.814,252.205 251.028 C 252.145 251.242,252.267 251.422,252.475 251.427 C 252.684 251.433,252.997 251.822,253.170 252.291 C 253.344 252.761,253.672 253.030,253.899 252.890 C 254.126 252.750,254.262 252.810,254.202 253.024 C 254.141 253.238,254.263 253.418,254.471 253.423 C 254.680 253.429,254.993 253.818,255.166 254.287 C 255.340 254.757,255.668 255.026,255.895 254.886 C 256.122 254.746,256.258 254.806,256.198 255.020 C 256.137 255.234,256.259 255.414,256.467 255.419 C 256.676 255.425,256.989 255.814,257.162 256.283 C 257.336 256.753,257.664 257.022,257.891 256.882 C 258.118 256.742,258.254 256.802,258.194 257.016 C 258.133 257.230,258.255 257.410,258.463 257.416 C 258.672 257.421,258.985 257.810,259.158 258.279 C 259.332 258.749,259.660 259.018,259.887 258.878 C 260.114 258.738,260.250 258.771,260.190 258.952 C 260.129 259.133,260.251 259.313,260.459 259.352 C 260.668 259.390,260.981 259.806,261.155 260.275 C 261.328 260.745,261.656 261.014,261.883 260.874 C 262.110 260.734,262.246 260.767,262.186 260.948 C 262.125 261.129,262.247 261.309,262.455 261.348 C 262.664 261.386,262.977 261.802,263.151 262.271 C 263.324 262.741,263.652 263.010,263.879 262.870 C 264.106 262.730,264.242 262.763,264.182 262.944 C 264.121 263.125,264.243 263.305,264.451 263.344 C 264.660 263.382,264.973 263.798,265.147 264.267 C 265.320 264.737,265.648 265.006,265.875 264.866 C 266.102 264.726,266.238 264.759,266.178 264.940 C 266.117 265.121,266.239 265.301,266.447 265.340 C 266.656 265.378,266.969 265.794,267.143 266.264 C 267.316 266.733,267.644 267.002,267.871 266.862 C 268.098 266.722,268.234 266.755,268.174 266.936 C 268.113 267.117,268.235 267.297,268.443 267.336 C 268.652 267.374,268.965 267.790,269.139 268.260 C 269.312 268.729,269.640 268.998,269.867 268.858 C 270.094 268.718,270.230 268.751,270.170 268.932 C 270.109 269.113,270.231 269.293,270.439 269.332 C 270.648 269.370,270.961 269.786,271.135 270.256 C 271.308 270.725,271.636 270.994,271.863 270.854 C 272.090 270.714,272.226 270.747,272.166 270.928 C 272.105 271.109,272.227 271.289,272.435 271.328 C 272.644 271.366,272.957 271.782,273.131 272.252 C 273.304 272.721,273.632 272.990,273.859 272.850 C 274.086 272.710,274.222 272.743,274.162 272.924 C 274.101 273.105,274.223 273.285,274.431 273.324 C 274.640 273.362,274.953 273.778,275.127 274.248 C 275.300 274.717,275.628 274.986,275.855 274.846 C 276.082 274.706,276.218 274.739,276.158 274.920 C 276.097 275.101,276.219 275.281,276.427 275.320 C 276.636 275.358,276.949 275.774,277.123 276.244 C 277.296 276.713,277.624 276.982,277.851 276.842 C 278.078 276.702,278.214 276.735,278.154 276.916 C 278.093 277.097,278.215 277.277,278.423 277.316 C 278.632 277.354,278.945 277.770,279.119 278.240 C 279.292 278.709,279.620 278.978,279.847 278.838 C 280.074 278.698,280.210 278.731,280.150 278.912 C 280.089 279.093,280.211 279.273,280.419 279.312 C 280.628 279.350,280.941 279.766,281.115 280.236 C 281.288 280.705,281.616 280.975,281.843 280.834 C 282.070 280.694,282.206 280.727,282.146 280.908 C 282.085 281.089,282.207 281.269,282.415 281.308 C 282.624 281.346,282.937 281.762,283.111 282.232 C 283.284 282.701,283.612 282.971,283.839 282.830 C 284.066 282.690,284.202 282.723,284.142 282.904 C 284.081 283.085,284.203 283.265,284.411 283.304 C 284.620 283.342,284.933 283.758,285.107 284.228 C 285.280 284.697,285.608 284.967,285.835 284.826 C 286.062 284.686,286.198 284.719,286.138 284.900 C 286.077 285.081,286.199 285.261,286.407 285.300 C 286.616 285.338,286.929 285.754,287.103 286.224 C 287.276 286.693,287.604 286.963,287.831 286.822 C 288.058 286.682,288.194 286.715,288.134 286.896 C 288.073 287.077,288.195 287.257,288.403 287.296 C 288.612 287.334,288.925 287.750,289.099 288.220 C 289.272 288.689,289.600 288.959,289.827 288.818 C 290.054 288.678,290.190 288.711,290.130 288.892 C 290.069 289.073,290.191 289.253,290.399 289.292 C 290.608 289.330,290.921 289.746,291.095 290.216 C 291.268 290.685,291.596 290.955,291.823 290.814 C 292.050 290.674,292.186 290.708,292.126 290.888 C 292.065 291.069,292.187 291.249,292.395 291.288 C 292.604 291.326,292.917 291.742,293.091 292.212 C 293.264 292.681,293.592 292.951,293.819 292.810 C 294.046 292.670,294.182 292.704,294.122 292.884 C 294.061 293.065,294.183 293.245,294.391 293.284 C 294.600 293.322,294.913 293.738,295.087 294.208 C 295.260 294.677,295.588 294.947,295.815 294.806 C 296.042 294.666,296.178 294.700,296.118 294.881 C 296.057 295.061,296.179 295.241,296.387 295.280 C 296.596 295.318,296.909 295.734,297.083 296.204 C 297.256 296.673,297.584 296.943,297.811 296.802 C 298.038 296.662,298.174 296.696,298.114 296.877 C 298.053 297.058,298.175 297.237,298.383 297.276 C 298.592 297.314,298.905 297.730,299.079 298.200 C 299.252 298.669,299.580 298.939,299.807 298.798 C 300.034 298.658,300.170 298.692,300.110 298.873 C 300.049 299.054,300.171 299.233,300.379 299.272 C 300.588 299.310,300.901 299.726,301.075 300.196 C 301.248 300.665,301.576 300.935,301.803 300.794 C 302.030 300.654,302.166 300.688,302.106 300.869 C 302.045 301.050,302.167 301.229,302.375 301.268 C 302.584 301.306,302.897 301.722,303.071 302.192 C 303.244 302.661,303.572 302.931,303.799 302.790 C 304.026 302.650,304.162 302.684,304.102 302.865 C 304.041 303.046,304.163 303.225,304.371 303.264 C 304.580 303.302,304.893 303.718,305.067 304.188 C 305.240 304.657,305.568 304.927,305.795 304.786 C 306.022 304.646,306.158 304.680,306.098 304.861 C 306.037 305.042,306.159 305.221,306.367 305.260 C 306.576 305.298,306.889 305.714,307.063 306.184 C 307.236 306.653,307.564 306.923,307.791 306.782 C 308.018 306.642,308.154 306.676,308.094 306.857 C 308.033 307.038,308.155 307.217,308.363 307.256 C 308.572 307.294,308.885 307.710,309.059 308.180 C 309.232 308.649,309.560 308.919,309.787 308.778 C 310.014 308.638,310.150 308.672,310.090 308.853 C 310.029 309.034,310.151 309.213,310.359 309.252 C 310.568 309.290,310.881 309.706,311.055 310.176 C 311.228 310.645,311.556 310.915,311.783 310.774 C 312.010 310.634,312.146 310.668,312.086 310.849 C 312.025 311.030,312.147 311.209,312.355 311.248 C 312.564 311.286,312.877 311.702,313.051 312.172 C 313.224 312.641,313.552 312.911,313.779 312.770 C 314.006 312.630,314.142 312.664,314.082 312.845 C 314.021 313.026,314.143 313.205,314.351 313.244 C 314.560 313.282,314.873 313.698,315.047 314.168 C 315.220 314.637,315.548 314.907,315.775 314.766 C 316.002 314.626,316.138 314.660,316.078 314.841 C 316.017 315.022,316.139 315.201,316.348 315.240 C 316.556 315.278,316.869 315.694,317.043 316.164 C 317.216 316.633,317.544 316.903,317.771 316.762 C 317.998 316.622,318.134 316.656,318.074 316.837 C 318.013 317.018,318.135 317.197,318.344 317.236 C 318.552 317.274,318.865 317.690,319.039 318.160 C 319.212 318.629,319.540 318.899,319.767 318.758 C 319.994 318.618,320.130 318.652,320.070 318.833 C 320.009 319.014,320.131 319.193,320.340 319.232 C 320.548 319.270,320.861 319.686,321.035 320.156 C 321.208 320.625,321.536 320.895,321.763 320.754 C 321.990 320.614,322.126 320.648,322.066 320.829 C 322.005 321.010,322.127 321.189,322.336 321.228 C 322.544 321.266,322.857 321.682,323.031 322.152 C 323.204 322.621,323.532 322.891,323.759 322.750 C 323.986 322.610,324.122 322.644,324.062 322.825 C 324.001 323.006,324.123 323.185,324.332 323.224 C 324.540 323.262,324.853 323.678,325.027 324.148 C 325.200 324.617,325.528 324.887,325.755 324.746 C 325.982 324.606,326.118 324.640,326.058 324.821 C 325.997 325.002,326.119 325.181,326.328 325.220 C 326.536 325.258,326.849 325.674,327.023 326.144 C 327.196 326.613,327.524 326.883,327.751 326.742 C 327.978 326.602,328.114 326.636,328.054 326.817 C 327.993 326.998,328.115 327.177,328.324 327.216 C 328.532 327.255,328.845 327.670,329.019 328.140 C 329.192 328.609,329.520 328.879,329.747 328.738 C 329.974 328.598,330.110 328.632,330.050 328.813 C 329.989 328.994,330.111 329.173,330.320 329.212 C 330.528 329.251,330.841 329.666,331.015 330.136 C 331.188 330.605,331.516 330.875,331.743 330.734 C 331.970 330.594,332.106 330.628,332.046 330.809 C 331.985 330.990,332.107 331.169,332.316 331.208 C 332.524 331.247,332.837 331.662,333.011 332.132 C 333.184 332.601,333.512 332.871,333.739 332.731 C 333.966 332.590,334.102 332.624,334.042 332.805 C 333.981 332.986,334.103 333.165,334.312 333.204 C 334.520 333.243,334.833 333.658,335.007 334.128 C 335.180 334.597,335.508 334.867,335.735 334.727 C 335.962 334.586,336.098 334.620,336.038 334.801 C 335.978 334.982,336.099 335.161,336.308 335.200 C 336.516 335.239,336.829 335.654,337.003 336.124 C 337.176 336.593,337.504 336.863,337.731 336.723 C 337.958 336.582,338.094 336.616,338.034 336.797 C 337.974 336.978,338.095 337.157,338.304 337.196 C 338.512 337.235,338.825 337.650,338.999 338.120 C 339.172 338.589,339.500 338.859,339.727 338.719 C 339.954 338.578,340.090 338.612,340.030 338.793 C 339.970 338.974,340.091 339.153,340.300 339.192 C 340.508 339.231,340.821 339.646,340.995 340.116 C 341.169 340.585,341.496 340.855,341.723 340.715 C 341.950 340.574,342.086 340.608,342.026 340.789 C 341.966 340.970,342.087 341.149,342.296 341.188 C 342.504 341.227,342.817 341.642,342.991 342.112 C 343.165 342.581,343.492 342.851,343.719 342.711 C 343.946 342.570,344.082 342.604,344.022 342.785 C 343.962 342.966,344.083 343.145,344.292 343.184 C 344.500 343.223,344.813 343.638,344.987 344.108 C 345.161 344.577,345.488 344.847,345.715 344.707 C 345.942 344.566,346.078 344.600,346.018 344.781 C 345.958 344.962,346.079 345.141,346.288 345.180 C 346.496 345.219,346.809 345.634,346.983 346.104 C 347.157 346.573,347.484 346.843,347.711 346.703 C 347.938 346.562,348.074 346.596,348.014 346.777 C 347.954 346.958,348.075 347.137,348.284 347.176 C 348.492 347.215,348.805 347.630,348.979 348.100 C 349.153 348.569,349.480 348.839,349.707 348.699 C 349.934 348.558,350.070 348.682,350.010 348.972 C 349.950 349.263,350.125 349.456,350.399 349.401 C 350.674 349.346,350.898 349.558,350.898 349.872 C 350.898 350.622,352.059 351.766,352.527 351.477 C 352.729 351.352,352.894 351.518,352.894 351.844 C 352.894 352.613,354.048 353.767,354.523 353.473 C 354.725 353.348,354.890 353.514,354.890 353.840 C 354.890 354.609,356.044 355.763,356.519 355.469 C 356.721 355.344,356.886 355.510,356.886 355.836 C 356.886 356.605,358.040 357.759,358.515 357.465 C 358.717 357.340,358.882 357.506,358.882 357.832 C 358.882 358.601,360.036 359.755,360.511 359.461 C 360.713 359.336,360.878 359.502,360.878 359.828 C 360.878 360.597,362.032 361.751,362.507 361.457 C 362.709 361.332,362.874 361.498,362.874 361.824 C 362.874 362.593,364.028 363.747,364.503 363.453 C 364.705 363.328,364.870 363.494,364.870 363.820 C 364.870 364.589,366.024 365.743,366.499 365.449 C 366.701 365.324,366.866 365.490,366.866 365.816 C 366.866 366.585,368.020 367.739,368.495 367.445 C 368.697 367.320,368.862 367.486,368.862 367.812 C 368.862 368.581,370.016 369.735,370.491 369.441 C 370.693 369.316,370.858 369.482,370.858 369.808 C 370.858 370.577,372.012 371.731,372.487 371.437 C 372.689 371.312,372.854 371.478,372.854 371.804 C 372.854 372.573,374.008 373.727,374.483 373.433 C 374.685 373.308,374.850 373.459,374.850 373.768 C 374.850 374.650,376.327 376.188,376.576 375.565 C 376.718 375.212,376.793 375.250,376.815 375.687 C 376.862 376.651,378.316 378.201,378.572 377.561 C 378.714 377.208,378.789 377.246,378.811 377.683 C 378.858 378.647,380.312 380.197,380.568 379.557 C 380.710 379.204,380.785 379.242,380.807 379.679 C 380.854 380.643,382.308 382.193,382.564 381.553 C 382.706 381.200,382.781 381.238,382.803 381.675 C 382.850 382.639,384.304 384.189,384.560 383.549 C 384.702 383.196,384.777 383.234,384.799 383.671 C 384.846 384.619,386.303 386.190,386.537 385.545 C 386.640 385.262,386.869 385.749,387.047 386.627 C 387.345 388.098,387.393 388.145,387.657 387.226 C 387.934 386.264,387.946 386.272,387.984 387.436 C 388.027 388.733,389.419 390.344,389.764 389.496 C 389.870 389.235,389.971 389.386,389.988 389.831 C 390.028 390.835,391.475 392.192,391.760 391.492 C 391.866 391.231,391.967 391.382,391.984 391.827 C 392.024 392.831,393.471 394.188,393.756 393.488 C 393.862 393.227,393.963 393.378,393.980 393.823 C 394.020 394.827,395.467 396.184,395.752 395.484 C 395.858 395.223,395.959 395.374,395.976 395.819 C 396.016 396.823,397.463 398.180,397.748 397.480 C 397.854 397.219,397.976 397.545,398.019 398.204 C 398.065 398.914,398.171 399.117,398.279 398.703 C 398.380 398.318,398.628 398.004,398.832 398.004 C 399.058 398.004,399.202 320.906,399.202 199.002 L 399.202 0.000 200.599 0.000 C 41.986 0.000,1.995 0.100,1.990 0.499 C 1.986 0.832,1.855 0.798,1.597 0.399 C 1.384 0.070,1.207 -0.019,1.204 0.201 " stroke="none" fill="#8c94d4" fill-rule="evenodd"></path><path id="path1" d="M0.000 199.601 L 0.000 399.202 198.802 399.202 C 308.144 399.202,397.605 399.114,397.605 399.008 C 397.605 398.901,395.180 396.400,392.216 393.449 C 389.251 390.499,386.826 387.844,386.826 387.549 C 386.826 387.255,299.970 300.116,193.812 193.909 C 87.655 87.701,0.798 0.623,0.798 0.402 C 0.798 0.181,0.619 0.000,0.399 0.000 C 0.134 0.000,0.000 66.800,0.000 199.601 " stroke="none" fill="#445cb4" fill-rule="evenodd"></path><path id="path2" d="M399.202 199.002 C 399.202 331.404,399.068 398.004,398.802 398.004 C 398.583 398.004,398.403 398.273,398.403 398.603 C 398.403 398.935,398.758 399.202,399.202 399.202 C 399.999 399.202,400.000 398.935,400.000 199.601 C 400.000 66.800,399.866 0.000,399.601 0.000 C 399.335 0.000,399.202 66.600,399.202 199.002 " stroke="none" fill="#949cd4" fill-rule="evenodd"></path><path id="path3" d="M0.898 0.476 C 1.060 0.930,351.297 351.256,351.297 350.965 C 351.297 350.819,272.435 271.837,176.047 175.448 C 79.660 79.060,0.842 0.322,0.898 0.476 M351.697 351.374 C 351.697 351.484,352.056 351.989,352.495 352.495 C 352.934 353.001,353.293 353.236,353.293 353.017 C 353.293 352.798,352.934 352.294,352.495 351.896 C 352.056 351.499,351.697 351.264,351.697 351.374 M353.693 353.370 C 353.693 353.480,354.052 353.985,354.491 354.491 C 354.930 354.997,355.289 355.232,355.289 355.013 C 355.289 354.794,354.930 354.290,354.491 353.892 C 354.052 353.495,353.693 353.260,353.693 353.370 M355.689 355.366 C 355.689 355.476,356.048 355.981,356.487 356.487 C 356.926 356.993,357.285 357.228,357.285 357.009 C 357.285 356.790,356.926 356.286,356.487 355.888 C 356.048 355.491,355.689 355.256,355.689 355.366 M357.685 357.362 C 357.685 357.472,358.044 357.977,358.483 358.483 C 358.922 358.989,359.281 359.224,359.281 359.005 C 359.281 358.786,358.922 358.282,358.483 357.884 C 358.044 357.487,357.685 357.252,357.685 357.362 M359.681 359.358 C 359.681 359.468,360.040 359.973,360.479 360.479 C 360.918 360.985,361.277 361.220,361.277 361.001 C 361.277 360.782,360.918 360.278,360.479 359.880 C 360.040 359.483,359.681 359.248,359.681 359.358 M361.677 361.354 C 361.677 361.464,362.036 361.969,362.475 362.475 C 362.914 362.981,363.273 363.216,363.273 362.997 C 363.273 362.778,362.914 362.274,362.475 361.876 C 362.036 361.479,361.677 361.244,361.677 361.354 M363.673 363.350 C 363.673 363.460,364.032 363.965,364.471 364.471 C 364.910 364.977,365.269 365.212,365.269 364.993 C 365.269 364.774,364.910 364.270,364.471 363.872 C 364.032 363.475,363.673 363.240,363.673 363.350 M365.669 365.346 C 365.669 365.456,366.028 365.961,366.467 366.467 C 366.906 366.973,367.265 367.208,367.265 366.989 C 367.265 366.770,366.906 366.266,366.467 365.868 C 366.028 365.471,365.669 365.236,365.669 365.346 M367.665 367.342 C 367.665 367.452,368.024 367.957,368.463 368.463 C 368.902 368.969,369.261 369.204,369.261 368.985 C 369.261 368.766,368.902 368.262,368.463 367.864 C 368.024 367.467,367.665 367.232,367.665 367.342 M369.661 369.338 C 369.661 369.448,370.020 369.953,370.459 370.459 C 370.898 370.965,371.257 371.200,371.257 370.981 C 371.257 370.762,370.898 370.258,370.459 369.860 C 370.020 369.463,369.661 369.228,369.661 369.338 M371.657 371.334 C 371.657 371.444,372.016 371.949,372.455 372.455 C 372.894 372.961,373.253 373.196,373.253 372.977 C 373.253 372.758,372.894 372.254,372.455 371.856 C 372.016 371.459,371.657 371.224,371.657 371.334 M373.653 373.330 C 373.653 373.440,374.012 373.945,374.451 374.451 C 374.890 374.957,375.250 375.192,375.250 374.973 C 375.250 374.754,374.890 374.250,374.451 373.852 C 374.012 373.455,373.653 373.220,373.653 373.330 M386.417 386.291 C 386.642 386.402,386.826 386.795,386.826 387.164 C 386.826 387.533,389.341 390.345,392.415 393.413 C 395.489 396.481,398.004 398.862,398.004 398.703 C 398.004 398.544,395.598 396.020,392.658 393.093 C 389.718 390.167,387.248 387.440,387.169 387.033 C 387.090 386.626,386.797 386.247,386.517 386.191 C 386.237 386.134,386.192 386.179,386.417 386.291 " stroke="none" fill="#5884c4" fill-rule="evenodd"></path><path id="path4" d="" stroke="none" fill="#5c5cc4" fill-rule="evenodd"></path></g></svg>