<svg id="svg" version="1.1" xmlns="http://www.w3.org/2000/svg" xmlns:xlink="http://www.w3.org/1999/xlink" width="400" height="400.997506234414" viewBox="0, 0, 400,400.997506234414"><g id="svgg"><path id="path0" d="M0.000 200.400 L 0.000 400.800 199.792 400.800 L 399.585 400.800 399.848 399.751 C 400.104 398.730,399.996 396.841,399.210 388.600 C 398.694 383.194,398.688 373.600,399.200 373.600 C 399.420 373.600,399.600 372.880,399.600 372.000 C 399.600 370.884,399.428 370.400,399.032 370.400 C 398.380 370.400,398.149 369.422,397.794 365.142 C 397.626 363.129,397.687 361.994,397.970 361.819 C 398.618 361.418,398.487 360.352,397.721 359.791 C 396.893 359.186,396.367 351.600,397.152 351.600 C 397.399 351.600,397.600 351.240,397.600 350.800 C 397.600 350.360,397.342 350.000,397.027 350.000 C 396.351 350.000,396.138 349.375,395.784 346.348 C 395.604 344.814,395.668 344.005,395.984 343.810 C 396.311 343.608,396.243 343.373,395.753 343.015 C 394.927 342.411,394.392 337.600,395.152 337.600 C 395.398 337.600,395.600 337.319,395.600 336.976 C 395.600 336.633,395.440 336.451,395.245 336.572 C 394.219 337.206,393.090 331.696,394.018 330.579 C 394.401 330.117,394.376 330.000,393.896 330.000 C 393.564 330.000,393.185 329.595,393.052 329.100 C 392.672 327.682,392.760 325.600,393.200 325.600 C 393.895 325.600,393.632 324.902,392.861 324.700 C 392.018 324.480,391.368 321.672,392.010 321.030 C 392.567 320.473,392.491 320.000,391.847 320.000 C 390.848 320.000,390.307 315.625,391.300 315.575 C 391.575 315.561,391.420 315.396,390.957 315.208 C 390.024 314.832,389.271 311.769,389.945 311.095 C 390.178 310.862,390.033 310.433,389.560 309.960 C 388.708 309.108,388.521 306.814,389.300 306.775 C 389.575 306.761,389.421 306.596,388.957 306.409 C 387.959 306.005,387.370 303.759,388.048 302.943 C 388.393 302.526,388.357 302.400,387.892 302.400 C 386.828 302.400,386.245 298.828,387.300 298.775 C 387.575 298.761,387.405 298.590,386.922 298.396 C 386.313 298.150,385.969 297.576,385.800 296.521 C 385.666 295.684,385.386 294.687,385.178 294.305 C 384.970 293.923,384.800 293.096,384.800 292.467 C 384.800 291.838,384.513 290.748,384.163 290.046 C 383.813 289.344,383.622 288.519,383.739 288.214 C 383.857 287.908,383.693 287.443,383.376 287.180 C 383.059 286.917,382.800 286.295,382.800 285.797 C 382.800 285.299,382.531 284.376,382.202 283.746 C 381.874 283.116,381.604 282.206,381.602 281.724 C 381.601 281.242,381.420 280.736,381.200 280.600 C 380.980 280.464,380.800 279.834,380.800 279.200 C 380.800 278.566,380.620 277.936,380.400 277.800 C 380.180 277.664,380.000 276.955,380.000 276.225 C 380.000 275.495,379.715 274.661,379.366 274.372 C 378.972 274.045,378.794 273.425,378.894 272.738 C 378.994 272.062,378.851 271.552,378.528 271.428 C 378.238 271.316,378.000 270.757,378.000 270.184 C 378.000 269.611,377.730 268.873,377.400 268.543 C 377.070 268.213,376.800 267.542,376.800 267.051 C 376.800 266.561,376.645 265.989,376.456 265.780 C 375.511 264.736,374.621 261.158,375.213 260.784 C 375.676 260.491,375.610 260.411,374.900 260.406 C 374.228 260.402,374.000 260.166,374.000 259.476 C 374.000 258.969,373.736 258.204,373.413 257.776 C 373.090 257.349,372.820 256.683,372.813 256.295 C 372.806 255.907,372.629 255.277,372.419 254.895 C 372.210 254.513,371.745 253.480,371.386 252.600 C 371.027 251.720,370.568 250.687,370.366 250.305 C 370.165 249.923,370.000 249.178,370.000 248.648 C 370.000 248.119,369.730 247.582,369.400 247.455 C 369.070 247.329,368.800 246.947,368.800 246.607 C 368.800 246.267,368.640 245.677,368.444 245.295 C 368.249 244.913,367.812 243.970,367.475 243.200 C 367.137 242.430,366.397 240.760,365.830 239.489 C 365.264 238.218,364.800 237.001,364.800 236.784 C 364.800 236.418,364.369 235.469,363.535 234.000 C 362.757 232.628,362.710 232.300,363.242 231.922 C 363.686 231.606,363.662 231.569,363.125 231.740 C 362.621 231.901,362.233 231.481,361.594 230.078 C 361.123 229.045,360.450 227.660,360.099 227.000 C 359.747 226.340,359.329 225.530,359.171 225.200 C 357.381 221.470,353.286 213.367,352.400 211.800 C 351.778 210.700,350.670 208.630,349.937 207.200 C 349.204 205.770,348.512 204.510,348.398 204.400 C 348.285 204.290,347.834 203.480,347.396 202.600 C 346.958 201.720,346.465 200.940,346.300 200.867 C 346.135 200.793,346.000 200.566,346.000 200.362 C 346.000 200.158,345.100 198.555,344.000 196.800 C 342.900 195.045,342.000 193.427,342.000 193.204 C 342.000 192.982,341.852 192.800,341.671 192.800 C 341.490 192.800,340.943 192.035,340.456 191.100 C 339.471 189.211,338.703 187.903,338.400 187.600 C 338.103 187.303,337.234 185.887,336.927 185.200 C 336.779 184.870,336.555 184.510,336.429 184.400 C 336.303 184.290,334.943 182.310,333.407 180.000 C 331.871 177.690,330.476 175.740,330.307 175.667 C 330.138 175.593,330.000 175.300,330.000 175.016 C 330.000 174.731,329.747 174.288,329.437 174.031 C 329.127 173.774,328.579 172.941,328.218 172.182 C 327.857 171.422,327.391 170.800,327.181 170.800 C 326.972 170.800,326.800 170.530,326.800 170.200 C 326.800 169.870,326.620 169.600,326.400 169.600 C 326.180 169.600,326.000 169.373,326.000 169.096 C 326.000 168.819,325.592 168.144,325.092 167.596 C 324.593 167.048,322.940 164.890,321.420 162.800 C 319.899 160.710,318.508 158.940,318.327 158.867 C 318.147 158.793,318.000 158.493,318.000 158.200 C 318.000 157.907,317.863 157.607,317.696 157.533 C 317.529 157.460,316.139 155.780,314.609 153.800 C 313.078 151.820,311.640 150.005,311.413 149.766 C 311.186 149.527,310.370 148.546,309.600 147.586 C 308.039 145.639,305.916 143.107,305.587 142.800 C 305.469 142.690,304.971 142.077,304.479 141.437 C 303.422 140.061,300.164 136.312,298.314 134.343 C 297.591 133.574,295.920 131.703,294.600 130.186 C 291.488 126.608,273.385 108.510,269.807 105.400 C 267.020 102.977,263.361 99.674,261.831 98.199 C 261.374 97.758,260.190 96.773,259.200 96.009 C 258.210 95.246,257.310 94.526,257.200 94.410 C 256.897 94.090,254.368 91.967,252.500 90.464 C 251.586 89.729,250.461 88.800,250.000 88.400 C 249.539 88.000,248.420 87.071,247.515 86.336 C 246.609 85.601,245.641 84.775,245.363 84.500 C 245.085 84.225,244.691 84.000,244.487 84.000 C 244.283 84.000,243.631 83.550,243.038 83.000 C 242.444 82.450,241.803 82.000,241.613 82.000 C 241.422 82.000,241.207 81.853,241.133 81.673 C 241.060 81.492,239.290 80.101,237.200 78.580 C 235.110 77.060,232.952 75.407,232.404 74.908 C 231.856 74.408,231.196 74.000,230.937 74.000 C 230.679 74.000,230.407 73.865,230.333 73.700 C 230.217 73.439,218.325 65.285,216.479 64.201 C 216.106 63.982,215.227 63.397,214.527 62.901 C 213.826 62.405,213.061 62.000,212.827 62.000 C 212.592 62.000,212.400 61.863,212.400 61.695 C 212.400 61.389,211.215 60.667,209.900 60.171 C 209.515 60.026,209.200 59.748,209.200 59.553 C 209.200 59.359,209.026 59.200,208.814 59.200 C 208.602 59.200,207.028 58.345,205.316 57.300 C 200.829 54.560,200.661 54.460,200.000 54.145 C 199.670 53.987,199.310 53.752,199.200 53.623 C 199.010 53.399,196.024 51.792,191.900 49.695 C 190.855 49.163,190.000 48.565,190.000 48.364 C 190.000 48.164,189.739 48.000,189.420 48.000 C 189.101 48.000,187.886 47.462,186.720 46.805 C 184.800 45.722,177.514 42.082,174.000 40.450 C 173.230 40.093,172.540 39.665,172.467 39.500 C 172.393 39.335,172.093 39.200,171.799 39.200 C 171.157 39.200,168.655 37.923,168.467 37.500 C 168.393 37.335,168.088 37.200,167.788 37.200 C 167.488 37.200,166.396 36.750,165.362 36.200 C 164.327 35.650,163.317 35.200,163.116 35.200 C 162.915 35.200,161.727 34.732,160.475 34.161 C 158.437 33.230,157.178 32.684,154.600 31.614 C 154.160 31.431,153.080 30.981,152.200 30.614 C 150.135 29.752,149.350 29.426,147.400 28.621 C 146.520 28.258,145.487 27.790,145.105 27.581 C 144.723 27.371,144.032 27.200,143.568 27.200 C 143.059 27.200,142.641 26.880,142.514 26.392 C 142.351 25.771,142.179 25.686,141.770 26.025 C 141.376 26.352,140.946 26.315,140.119 25.884 C 139.503 25.563,138.010 24.983,136.800 24.594 C 135.590 24.206,134.429 23.733,134.220 23.544 C 134.011 23.355,133.448 23.200,132.969 23.200 C 132.490 23.200,131.867 22.922,131.585 22.582 C 131.303 22.242,130.860 22.045,130.601 22.144 C 130.342 22.244,129.605 22.094,128.965 21.811 C 127.444 21.140,123.662 20.000,122.954 20.000 C 122.649 20.000,122.386 19.595,122.368 19.100 C 122.351 18.605,122.246 18.425,122.135 18.700 C 121.903 19.275,119.759 19.381,119.422 18.835 C 119.297 18.634,118.478 18.348,117.600 18.200 C 116.722 18.052,115.903 17.766,115.778 17.565 C 115.654 17.364,115.034 17.200,114.400 17.200 C 113.766 17.200,113.151 17.044,113.032 16.853 C 112.914 16.661,112.094 16.389,111.209 16.248 C 109.900 16.039,109.594 15.823,109.568 15.095 C 109.551 14.603,109.446 14.425,109.335 14.700 C 108.918 15.734,105.600 15.181,105.600 14.077 C 105.600 13.582,105.493 13.547,105.120 13.920 C 104.482 14.558,103.643 14.522,102.254 13.798 C 101.624 13.469,100.587 13.200,99.949 13.200 C 99.311 13.200,98.477 13.041,98.095 12.847 C 97.290 12.438,94.343 11.632,92.600 11.344 C 91.940 11.235,91.040 10.992,90.600 10.805 C 90.160 10.617,88.918 10.359,87.840 10.231 C 86.763 10.103,85.683 9.838,85.440 9.641 C 85.198 9.444,84.100 9.187,83.000 9.070 C 77.348 8.471,75.619 7.961,75.568 6.876 C 75.549 6.460,75.459 6.392,75.335 6.700 C 75.063 7.375,71.949 7.343,71.008 6.655 C 70.598 6.356,69.935 6.197,69.533 6.302 C 67.931 6.721,64.316 5.964,64.107 5.165 C 63.900 4.374,63.200 4.092,63.200 4.800 C 63.200 5.829,57.618 5.089,57.568 4.053 C 57.548 3.639,57.463 3.583,57.335 3.900 C 56.905 4.965,51.201 4.290,50.900 3.139 C 50.702 2.381,49.200 2.081,49.200 2.800 C 49.200 3.243,44.444 3.349,42.450 2.950 C 41.763 2.812,41.200 2.452,41.200 2.150 C 41.200 1.484,40.555 1.425,40.166 2.055 C 39.551 3.050,31.075 1.990,31.468 0.967 C 31.735 0.270,29.986 0.174,29.312 0.848 C 28.671 1.489,13.397 1.157,12.727 0.487 C 12.387 0.147,10.397 0.000,6.120 0.000 L 0.000 0.000 0.000 200.400 " stroke="none" fill="#242c7c" fill-rule="evenodd"></path><path id="path1" d="M21.800 0.400 C 22.926 0.884,29.101 0.884,29.400 0.400 C 29.559 0.142,28.111 0.010,25.324 0.028 C 22.536 0.046,21.284 0.178,21.800 0.400 M35.798 0.803 C 35.470 1.334,36.281 1.617,38.420 1.718 C 39.806 1.783,40.200 1.654,40.315 1.100 C 40.479 0.303,36.278 0.027,35.798 0.803 M45.698 2.100 C 45.956 2.885,49.200 2.999,49.200 2.223 C 49.200 1.750,48.760 1.600,47.367 1.600 C 46.079 1.600,45.582 1.749,45.698 2.100 M54.000 2.968 C 54.000 3.583,56.121 4.220,56.790 3.806 C 57.817 3.172,57.163 2.400,55.600 2.400 C 54.484 2.400,54.000 2.572,54.000 2.968 M60.497 4.100 C 60.754 4.881,63.200 4.994,63.200 4.225 C 63.200 3.775,62.800 3.600,61.767 3.600 C 60.799 3.600,60.387 3.762,60.497 4.100 M67.200 4.953 C 67.200 5.542,68.995 6.054,69.875 5.716 C 71.082 5.253,70.385 4.400,68.800 4.400 C 67.704 4.400,67.200 4.574,67.200 4.953 M72.898 6.100 C 73.152 6.876,75.200 6.989,75.200 6.227 C 75.200 5.793,74.820 5.600,73.967 5.600 C 73.159 5.600,72.790 5.773,72.898 6.100 M77.784 6.827 C 77.453 7.362,77.597 7.500,78.600 7.607 C 79.991 7.755,80.400 7.617,80.400 7.000 C 80.400 6.297,78.201 6.151,77.784 6.827 M82.400 7.957 C 82.400 8.154,82.685 8.424,83.033 8.557 C 84.156 8.988,85.200 8.816,85.200 8.200 C 85.200 7.781,84.778 7.600,83.800 7.600 C 83.030 7.600,82.400 7.761,82.400 7.957 M87.600 8.953 C 87.600 9.577,88.985 10.057,89.839 9.730 C 90.989 9.288,90.429 8.400,89.000 8.400 C 88.075 8.400,87.600 8.588,87.600 8.953 M92.100 10.100 C 92.192 10.375,92.687 10.600,93.200 10.600 C 93.713 10.600,94.208 10.375,94.300 10.100 C 94.410 9.770,94.036 9.600,93.200 9.600 C 92.364 9.600,91.990 9.770,92.100 10.100 M95.600 10.953 C 95.600 11.577,96.985 12.057,97.839 11.730 C 98.989 11.288,98.429 10.400,97.000 10.400 C 96.075 10.400,95.600 10.588,95.600 10.953 M99.700 12.100 C 99.792 12.375,100.377 12.600,101.000 12.600 C 101.623 12.600,102.208 12.375,102.300 12.100 C 102.413 11.761,101.996 11.600,101.000 11.600 C 100.004 11.600,99.587 11.761,99.700 12.100 M103.600 13.000 C 103.600 13.333,103.956 13.600,104.400 13.600 C 104.844 13.600,105.200 13.333,105.200 13.000 C 105.200 12.667,104.844 12.400,104.400 12.400 C 103.956 12.400,103.600 12.667,103.600 13.000 M107.600 14.229 C 107.600 14.602,107.872 14.806,108.267 14.729 C 109.270 14.535,109.408 13.600,108.433 13.600 C 107.942 13.600,107.600 13.858,107.600 14.229 M110.800 14.953 C 110.800 15.549,111.885 15.976,112.700 15.702 C 113.725 15.357,113.211 14.400,112.000 14.400 C 111.245 14.400,110.800 14.605,110.800 14.953 M114.100 16.100 C 114.192 16.375,114.687 16.600,115.200 16.600 C 115.713 16.600,116.208 16.375,116.300 16.100 C 116.410 15.770,116.036 15.600,115.200 15.600 C 114.364 15.600,113.990 15.770,114.100 16.100 M117.200 17.000 C 117.200 17.373,117.578 17.600,118.200 17.600 C 118.822 17.600,119.200 17.373,119.200 17.000 C 119.200 16.627,118.822 16.400,118.200 16.400 C 117.578 16.400,117.200 16.627,117.200 17.000 M120.500 18.100 C 120.592 18.375,120.907 18.600,121.200 18.600 C 121.493 18.600,121.808 18.375,121.900 18.100 C 121.999 17.803,121.716 17.600,121.200 17.600 C 120.684 17.600,120.401 17.803,120.500 18.100 M123.812 18.780 C 123.521 19.251,125.071 20.127,125.608 19.795 C 125.824 19.662,126.000 19.293,126.000 18.976 C 126.000 18.330,124.191 18.167,123.812 18.780 M126.898 20.100 C 127.152 20.876,129.200 20.989,129.200 20.227 C 129.200 19.793,128.820 19.600,127.967 19.600 C 127.159 19.600,126.790 19.773,126.898 20.100 M130.000 21.000 C 130.000 21.330,130.270 21.600,130.600 21.600 C 130.930 21.600,131.200 21.330,131.200 21.000 C 131.200 20.670,130.930 20.400,130.600 20.400 C 130.270 20.400,130.000 20.670,130.000 21.000 M132.800 22.233 C 132.800 22.940,133.661 22.817,133.908 22.075 C 133.995 21.814,133.782 21.600,133.433 21.600 C 133.085 21.600,132.800 21.885,132.800 22.233 M135.200 22.720 C 135.200 23.317,136.095 23.938,136.649 23.726 C 137.596 23.362,137.270 22.400,136.200 22.400 C 135.650 22.400,135.200 22.544,135.200 22.720 M138.098 24.100 C 138.351 24.869,140.000 24.980,140.000 24.228 C 140.000 23.819,139.639 23.600,138.967 23.600 C 138.319 23.600,137.995 23.787,138.098 24.100 M140.800 25.000 C 140.800 25.330,141.070 25.600,141.400 25.600 C 141.730 25.600,142.000 25.330,142.000 25.000 C 142.000 24.670,141.730 24.400,141.400 24.400 C 141.070 24.400,140.800 24.670,140.800 25.000 M143.700 26.100 C 143.792 26.375,144.107 26.600,144.400 26.600 C 144.693 26.600,145.008 26.375,145.100 26.100 C 145.199 25.803,144.916 25.600,144.400 25.600 C 143.884 25.600,143.601 25.803,143.700 26.100 M146.400 27.000 C 146.400 27.333,146.756 27.600,147.200 27.600 C 147.644 27.600,148.000 27.333,148.000 27.000 C 148.000 26.667,147.644 26.400,147.200 26.400 C 146.756 26.400,146.400 26.667,146.400 27.000 M148.800 28.233 C 148.800 28.582,149.014 28.795,149.275 28.708 C 150.017 28.461,150.140 27.600,149.433 27.600 C 149.085 27.600,148.800 27.885,148.800 28.233 M151.200 28.957 C 151.200 29.590,151.955 29.967,152.700 29.708 C 153.617 29.388,153.239 28.400,152.200 28.400 C 151.612 28.400,151.200 28.630,151.200 28.957 M153.700 30.100 C 153.792 30.375,154.107 30.600,154.400 30.600 C 154.693 30.600,155.008 30.375,155.100 30.100 C 155.199 29.803,154.916 29.600,154.400 29.600 C 153.884 29.600,153.601 29.803,153.700 30.100 M155.600 31.000 C 155.600 31.333,155.956 31.600,156.400 31.600 C 156.844 31.600,157.200 31.333,157.200 31.000 C 157.200 30.667,156.844 30.400,156.400 30.400 C 155.956 30.400,155.600 30.667,155.600 31.000 M158.098 32.100 C 158.351 32.869,160.000 32.980,160.000 32.228 C 160.000 31.819,159.639 31.600,158.967 31.600 C 158.319 31.600,157.995 31.787,158.098 32.100 M160.400 33.000 C 160.400 33.333,160.756 33.600,161.200 33.600 C 161.644 33.600,162.000 33.333,162.000 33.000 C 162.000 32.667,161.644 32.400,161.200 32.400 C 160.756 32.400,160.400 32.667,160.400 33.000 M162.800 34.000 C 162.800 34.220,163.070 34.400,163.400 34.400 C 163.730 34.400,164.000 34.220,164.000 34.000 C 164.000 33.780,163.730 33.600,163.400 33.600 C 163.070 33.600,162.800 33.780,162.800 34.000 M165.200 34.957 C 165.200 35.560,166.270 36.128,166.794 35.804 C 166.971 35.694,167.219 35.874,167.346 36.202 C 167.472 36.531,167.941 36.800,168.387 36.800 C 168.834 36.800,169.200 36.980,169.200 37.200 C 169.200 37.420,169.650 37.600,170.200 37.600 C 170.822 37.600,171.200 37.373,171.200 37.000 C 171.200 36.634,170.827 36.400,170.243 36.400 C 169.716 36.400,169.182 36.130,169.055 35.800 C 168.929 35.470,168.459 35.200,168.013 35.200 C 167.566 35.200,167.200 35.020,167.200 34.800 C 167.200 34.580,166.750 34.400,166.200 34.400 C 165.612 34.400,165.200 34.630,165.200 34.957 M171.392 37.613 C 171.237 37.864,171.298 38.258,171.528 38.488 C 172.066 39.026,173.319 38.557,173.100 37.900 C 172.877 37.231,171.746 37.041,171.392 37.613 M173.298 38.900 C 173.551 39.669,175.200 39.780,175.200 39.028 C 175.200 38.619,174.839 38.400,174.167 38.400 C 173.519 38.400,173.195 38.587,173.298 38.900 M175.669 39.864 C 175.747 40.269,176.078 40.600,176.405 40.600 C 177.263 40.600,177.139 39.438,176.264 39.269 C 175.729 39.166,175.566 39.329,175.669 39.864 M177.600 41.000 C 177.600 41.346,177.962 41.600,178.456 41.600 C 178.927 41.600,179.529 41.897,179.795 42.261 C 180.061 42.625,180.486 42.794,180.739 42.638 C 181.494 42.171,181.266 41.632,180.200 41.364 C 179.650 41.226,179.200 40.953,179.200 40.757 C 179.200 40.560,178.840 40.400,178.400 40.400 C 177.956 40.400,177.600 40.667,177.600 41.000 M181.600 43.000 C 181.600 43.333,181.956 43.600,182.400 43.600 C 182.844 43.600,183.200 43.333,183.200 43.000 C 183.200 42.667,182.844 42.400,182.400 42.400 C 181.956 42.400,181.600 42.667,181.600 43.000 M183.677 43.900 C 183.752 44.285,184.155 44.601,184.574 44.602 C 184.992 44.603,185.409 44.828,185.501 45.102 C 185.592 45.376,185.947 45.600,186.289 45.600 C 186.632 45.600,187.112 45.848,187.356 46.152 C 188.293 47.317,190.131 47.371,189.371 46.212 C 189.006 45.655,188.369 45.200,187.954 45.200 C 187.539 45.200,187.200 45.020,187.200 44.800 C 187.200 44.580,186.769 44.400,186.243 44.400 C 185.716 44.400,185.182 44.130,185.055 43.800 C 184.726 42.943,183.509 43.031,183.677 43.900 M190.800 47.800 C 190.800 48.130,191.070 48.400,191.400 48.400 C 191.730 48.400,192.000 48.130,192.000 47.800 C 192.000 47.470,191.730 47.200,191.400 47.200 C 191.070 47.200,190.800 47.470,190.800 47.800 M192.800 49.000 C 192.800 49.330,193.070 49.600,193.400 49.600 C 193.730 49.600,194.000 49.330,194.000 49.000 C 194.000 48.670,193.730 48.400,193.400 48.400 C 193.070 48.400,192.800 48.670,192.800 49.000 M194.400 49.776 C 194.400 50.093,194.544 50.442,194.719 50.550 C 195.231 50.866,196.129 50.133,195.828 49.645 C 195.431 49.003,194.400 49.098,194.400 49.776 M196.400 51.000 C 196.400 51.333,196.756 51.600,197.200 51.600 C 197.644 51.600,198.000 51.333,198.000 51.000 C 198.000 50.667,197.644 50.400,197.200 50.400 C 196.756 50.400,196.400 50.667,196.400 51.000 M198.400 51.837 C 198.400 52.188,198.760 52.569,199.200 52.684 C 199.640 52.799,200.000 53.052,200.000 53.247 C 200.000 53.441,200.180 53.600,200.400 53.600 C 200.620 53.600,200.800 53.330,200.800 53.000 C 200.800 52.670,200.620 52.400,200.400 52.400 C 200.180 52.400,200.000 52.130,200.000 51.800 C 200.000 51.467,199.644 51.200,199.200 51.200 C 198.735 51.200,198.400 51.467,198.400 51.837 M201.671 53.821 C 201.852 54.690,202.561 54.743,202.724 53.900 C 202.808 53.462,202.612 53.200,202.200 53.200 C 201.816 53.200,201.595 53.459,201.671 53.821 M203.203 54.900 C 203.205 55.175,203.691 55.625,204.283 55.900 C 205.680 56.549,206.000 56.530,206.000 55.800 C 206.000 55.470,205.730 55.200,205.400 55.200 C 205.070 55.200,204.800 55.020,204.800 54.800 C 204.800 54.580,204.440 54.400,204.000 54.400 C 203.560 54.400,203.201 54.625,203.203 54.900 M206.500 56.900 C 206.591 57.175,206.973 57.459,207.347 57.532 C 207.722 57.605,208.498 58.100,209.072 58.632 C 210.272 59.744,210.800 59.856,210.800 59.000 C 210.800 58.670,210.620 58.400,210.400 58.400 C 210.180 58.400,210.000 58.130,210.000 57.800 C 210.000 57.427,209.622 57.200,209.000 57.200 C 208.450 57.200,208.000 57.020,208.000 56.800 C 208.000 56.580,207.625 56.400,207.167 56.400 C 206.678 56.400,206.402 56.607,206.500 56.900 M211.671 59.867 C 211.865 60.870,212.800 61.008,212.800 60.033 C 212.800 59.542,212.542 59.200,212.171 59.200 C 211.798 59.200,211.594 59.472,211.671 59.867 M213.200 60.936 C 213.200 61.440,214.785 62.400,215.619 62.400 C 215.828 62.400,216.000 62.130,216.000 61.800 C 216.000 61.470,215.730 61.200,215.400 61.200 C 215.070 61.200,214.800 61.020,214.800 60.800 C 214.800 60.580,214.440 60.400,214.000 60.400 C 213.560 60.400,213.200 60.641,213.200 60.936 M216.400 62.856 C 216.400 63.403,217.600 64.369,218.300 64.387 C 218.970 64.404,218.933 63.676,218.229 62.971 C 217.545 62.288,216.400 62.216,216.400 62.856 M219.203 64.900 C 219.205 65.175,219.691 65.625,220.283 65.900 C 221.680 66.549,222.000 66.530,222.000 65.800 C 222.000 65.470,221.730 65.200,221.400 65.200 C 221.070 65.200,220.800 65.020,220.800 64.800 C 220.800 64.580,220.440 64.400,220.000 64.400 C 219.560 64.400,219.201 64.625,219.203 64.900 M222.400 66.856 C 222.400 67.403,223.600 68.369,224.300 68.387 C 224.970 68.404,224.933 67.676,224.229 66.971 C 223.545 66.288,222.400 66.216,222.400 66.856 M225.200 68.902 C 225.200 69.179,225.753 69.650,226.430 69.949 C 227.106 70.248,228.122 70.922,228.688 71.447 C 229.765 72.445,230.800 72.702,230.800 71.971 C 230.800 71.266,229.714 70.400,228.829 70.400 C 228.359 70.400,228.000 70.140,228.000 69.800 C 228.000 69.470,227.730 69.200,227.400 69.200 C 227.070 69.200,226.800 69.020,226.800 68.800 C 226.800 68.580,226.440 68.400,226.000 68.400 C 225.560 68.400,225.200 68.626,225.200 68.902 M232.400 73.754 C 232.400 74.578,234.280 75.718,234.650 75.119 C 234.810 74.860,234.730 74.577,234.471 74.490 C 234.212 74.404,234.000 74.078,234.000 73.767 C 234.000 73.455,233.640 73.200,233.200 73.200 C 232.760 73.200,232.400 73.449,232.400 73.754 M236.400 76.711 C 236.400 77.129,237.908 78.400,238.405 78.400 C 238.982 78.400,238.887 77.630,238.229 76.971 C 237.621 76.364,236.400 76.190,236.400 76.711 M239.203 78.900 C 239.206 79.454,241.576 81.200,242.325 81.200 C 242.586 81.200,242.800 81.020,242.800 80.800 C 242.800 80.580,242.620 80.400,242.400 80.400 C 242.180 80.400,242.000 80.130,242.000 79.800 C 242.000 79.470,241.730 79.200,241.400 79.200 C 241.070 79.200,240.800 79.020,240.800 78.800 C 240.800 78.580,240.440 78.400,240.000 78.400 C 239.560 78.400,239.201 78.625,239.203 78.900 M243.200 81.777 C 243.200 82.095,243.740 82.674,244.400 83.064 C 245.060 83.454,245.600 83.914,245.600 84.086 C 245.600 84.259,245.870 84.400,246.200 84.400 C 246.530 84.400,246.800 84.207,246.800 83.971 C 246.800 83.418,245.782 82.400,245.229 82.400 C 244.993 82.400,244.800 82.130,244.800 81.800 C 244.800 81.467,244.444 81.200,244.000 81.200 C 243.560 81.200,243.200 81.460,243.200 81.777 M248.400 85.711 C 248.400 86.285,249.796 87.600,250.405 87.600 C 250.622 87.600,250.800 87.780,250.800 88.000 C 250.800 88.220,251.070 88.400,251.400 88.400 C 251.730 88.400,252.000 88.130,252.000 87.800 C 252.000 87.470,251.807 87.200,251.571 87.200 C 251.018 87.200,250.000 86.182,250.000 85.629 C 250.000 85.393,249.640 85.200,249.200 85.200 C 248.760 85.200,248.400 85.430,248.400 85.711 M253.200 89.711 C 253.200 90.191,254.558 91.600,255.021 91.600 C 255.138 91.600,255.620 91.960,256.092 92.400 C 257.007 93.253,258.000 93.461,258.000 92.800 C 258.000 92.580,257.730 92.400,257.400 92.400 C 257.070 92.400,256.800 92.207,256.800 91.971 C 256.800 91.418,255.782 90.400,255.229 90.400 C 254.993 90.400,254.800 90.130,254.800 89.800 C 254.800 89.467,254.444 89.200,254.000 89.200 C 253.560 89.200,253.200 89.430,253.200 89.711 M259.200 94.726 C 259.200 95.102,261.939 97.600,262.350 97.600 C 262.500 97.600,262.883 97.960,263.200 98.400 C 263.804 99.238,264.800 99.487,264.800 98.800 C 264.800 98.580,264.620 98.400,264.400 98.400 C 264.180 98.400,264.000 98.130,264.000 97.800 C 264.000 97.470,263.807 97.200,263.571 97.200 C 263.018 97.200,262.000 96.182,262.000 95.629 C 262.000 95.393,261.730 95.200,261.400 95.200 C 261.070 95.200,260.800 95.020,260.800 94.800 C 260.800 94.580,260.440 94.400,260.000 94.400 C 259.560 94.400,259.200 94.547,259.200 94.726 M268.283 102.700 C 268.424 103.085,269.004 103.823,269.570 104.339 C 270.137 104.856,271.363 105.981,272.296 106.839 C 273.229 107.698,274.174 108.400,274.396 108.400 C 274.618 108.400,274.800 108.580,274.800 108.800 C 274.800 109.020,275.070 109.200,275.400 109.200 C 276.375 109.200,276.161 108.904,272.629 105.371 C 269.421 102.164,267.695 101.103,268.283 102.700 M290.800 124.600 C 290.800 124.930,290.980 125.200,291.200 125.200 C 291.420 125.200,291.600 125.391,291.600 125.623 C 291.600 125.856,292.297 126.801,293.149 127.723 C 294.001 128.646,295.146 129.895,295.695 130.500 C 296.807 131.727,297.600 131.923,297.600 130.971 C 297.600 130.253,296.666 129.200,296.029 129.200 C 295.793 129.200,295.600 129.007,295.600 128.771 C 295.600 128.218,294.582 127.200,294.029 127.200 C 293.793 127.200,293.600 127.007,293.600 126.771 C 293.600 126.218,292.582 125.200,292.029 125.200 C 291.793 125.200,291.600 124.930,291.600 124.600 C 291.600 124.270,291.420 124.000,291.200 124.000 C 290.980 124.000,290.800 124.270,290.800 124.600 M300.800 135.712 C 300.800 135.993,301.160 136.483,301.600 136.800 C 302.040 137.117,302.400 137.522,302.400 137.699 C 302.400 138.146,304.852 140.800,305.264 140.800 C 305.449 140.800,305.600 140.440,305.600 140.000 C 305.600 139.560,305.420 139.200,305.200 139.200 C 304.980 139.200,304.800 138.930,304.800 138.600 C 304.800 138.270,304.607 138.000,304.371 138.000 C 303.818 138.000,302.800 136.982,302.800 136.429 C 302.800 136.193,302.530 136.000,302.200 136.000 C 301.870 136.000,301.600 135.820,301.600 135.600 C 301.600 135.380,301.420 135.200,301.200 135.200 C 300.980 135.200,300.800 135.430,300.800 135.712 M306.801 142.500 C 306.802 143.058,308.861 145.600,309.312 145.600 C 309.470 145.600,309.600 145.317,309.600 144.971 C 309.600 144.253,308.666 143.200,308.029 143.200 C 307.793 143.200,307.600 142.930,307.600 142.600 C 307.600 142.270,307.420 142.000,307.200 142.000 C 306.980 142.000,306.800 142.225,306.801 142.500 M311.600 148.600 C 311.600 148.930,311.780 149.200,312.000 149.200 C 312.220 149.200,312.400 149.378,312.400 149.595 C 312.400 150.204,313.715 151.600,314.289 151.600 C 314.570 151.600,314.800 151.240,314.800 150.800 C 314.800 150.360,314.607 150.000,314.371 150.000 C 313.818 150.000,312.800 148.982,312.800 148.429 C 312.800 148.193,312.530 148.000,312.200 148.000 C 311.870 148.000,311.600 148.270,311.600 148.600 M315.600 153.800 C 315.600 154.130,315.780 154.400,316.000 154.400 C 316.220 154.400,316.400 154.670,316.400 155.000 C 316.400 155.330,316.670 155.600,317.000 155.600 C 317.761 155.600,317.778 154.520,317.029 153.771 C 316.285 153.028,315.600 153.042,315.600 153.800 M318.400 157.414 C 318.400 157.532,318.691 158.072,319.046 158.614 C 319.825 159.803,320.800 159.906,320.800 158.800 C 320.800 158.356,320.533 158.000,320.200 158.000 C 319.870 158.000,319.600 157.820,319.600 157.600 C 319.600 157.380,319.330 157.200,319.000 157.200 C 318.670 157.200,318.400 157.296,318.400 157.414 M321.600 161.595 C 321.600 162.092,322.871 163.600,323.289 163.600 C 323.810 163.600,323.636 162.379,323.029 161.771 C 322.370 161.113,321.600 161.018,321.600 161.595 M324.400 165.414 C 324.400 165.532,324.691 166.072,325.046 166.614 C 325.825 167.803,326.800 167.906,326.800 166.800 C 326.800 166.356,326.533 166.000,326.200 166.000 C 325.870 166.000,325.600 165.820,325.600 165.600 C 325.600 165.380,325.330 165.200,325.000 165.200 C 324.670 165.200,324.400 165.296,324.400 165.414 M327.600 169.567 C 327.600 170.058,327.858 170.400,328.229 170.400 C 328.602 170.400,328.806 170.128,328.729 169.733 C 328.535 168.730,327.600 168.592,327.600 169.567 M329.600 172.600 C 329.600 172.930,329.870 173.200,330.200 173.200 C 330.530 173.200,330.800 172.930,330.800 172.600 C 330.800 172.270,330.530 172.000,330.200 172.000 C 329.870 172.000,329.600 172.270,329.600 172.600 M331.613 175.500 C 331.639 176.956,333.600 178.441,333.600 177.005 C 333.600 176.354,332.410 174.800,331.911 174.800 C 331.740 174.800,331.606 175.115,331.613 175.500 M333.600 178.542 C 333.600 178.839,334.050 179.569,334.600 180.162 C 335.150 180.756,335.600 181.502,335.600 181.821 C 335.600 182.139,335.780 182.400,336.000 182.400 C 336.220 182.400,336.400 182.670,336.400 183.000 C 336.400 183.330,336.670 183.600,337.000 183.600 C 337.333 183.600,337.600 183.244,337.600 182.800 C 337.600 182.360,337.420 182.000,337.200 182.000 C 336.980 182.000,336.800 181.730,336.800 181.400 C 336.800 181.070,336.530 180.800,336.200 180.800 C 335.860 180.800,335.600 180.441,335.600 179.971 C 335.600 179.086,334.734 178.000,334.029 178.000 C 333.793 178.000,333.600 178.244,333.600 178.542 M337.600 184.600 C 337.600 184.930,337.870 185.200,338.200 185.200 C 338.530 185.200,338.800 184.930,338.800 184.600 C 338.800 184.270,338.530 184.000,338.200 184.000 C 337.870 184.000,337.600 184.270,337.600 184.600 M339.275 187.495 C 339.476 188.538,340.800 188.654,340.800 187.629 C 340.800 187.057,340.543 186.800,339.971 186.800 C 339.398 186.800,339.183 187.015,339.275 187.495 M340.630 189.151 C 340.354 189.598,341.534 192.000,342.029 192.000 C 342.233 192.000,342.400 192.360,342.400 192.800 C 342.400 193.244,342.667 193.600,343.000 193.600 C 343.333 193.600,343.600 193.244,343.600 192.800 C 343.600 192.360,343.420 192.000,343.200 192.000 C 342.980 192.000,342.800 191.550,342.800 191.000 C 342.800 190.378,342.573 190.000,342.200 190.000 C 341.870 190.000,341.600 189.730,341.600 189.400 C 341.600 188.747,340.979 188.587,340.630 189.151 M343.600 194.320 C 343.600 195.074,344.642 196.794,345.100 196.797 C 345.782 196.801,345.733 195.276,345.029 194.571 C 344.407 193.950,343.600 193.808,343.600 194.320 M345.400 197.200 C 345.065 197.742,345.517 198.400,346.224 198.400 C 346.541 198.400,346.800 198.040,346.800 197.600 C 346.800 196.772,345.835 196.496,345.400 197.200 M346.572 199.245 C 346.421 199.489,346.469 199.804,346.678 199.945 C 346.887 200.085,347.175 200.515,347.317 200.900 C 347.673 201.865,348.800 201.789,348.800 200.800 C 348.800 200.356,348.533 200.000,348.200 200.000 C 347.870 200.000,347.600 199.730,347.600 199.400 C 347.600 198.698,346.969 198.603,346.572 199.245 M348.400 202.800 C 348.400 203.244,348.667 203.600,349.000 203.600 C 349.333 203.600,349.600 203.244,349.600 202.800 C 349.600 202.356,349.333 202.000,349.000 202.000 C 348.667 202.000,348.400 202.356,348.400 202.800 M349.400 204.400 C 349.065 204.942,349.517 205.600,350.224 205.600 C 350.541 205.600,350.800 205.240,350.800 204.800 C 350.800 203.972,349.835 203.696,349.400 204.400 M350.400 206.600 C 350.400 206.930,350.670 207.200,351.000 207.200 C 351.330 207.200,351.600 206.930,351.600 206.600 C 351.600 206.270,351.330 206.000,351.000 206.000 C 350.670 206.000,350.400 206.270,350.400 206.600 M351.600 208.600 C 351.600 208.930,351.870 209.200,352.200 209.200 C 352.530 209.200,352.800 208.930,352.800 208.600 C 352.800 208.270,352.530 208.000,352.200 208.000 C 351.870 208.000,351.600 208.270,351.600 208.600 M352.709 210.224 C 352.415 210.519,353.559 212.800,354.001 212.800 C 354.190 212.800,354.402 213.191,354.472 213.669 C 354.661 214.949,355.600 215.086,355.600 213.833 C 355.600 213.265,355.420 212.800,355.200 212.800 C 354.980 212.800,354.800 212.350,354.800 211.800 C 354.800 211.178,354.573 210.800,354.200 210.800 C 353.870 210.800,353.600 210.620,353.600 210.400 C 353.600 209.967,353.071 209.862,352.709 210.224 M355.400 215.200 C 355.065 215.742,355.517 216.400,356.224 216.400 C 356.541 216.400,356.800 216.040,356.800 215.600 C 356.800 214.772,355.835 214.496,355.400 215.200 M356.400 217.600 C 356.400 218.044,356.667 218.400,357.000 218.400 C 357.333 218.400,357.600 218.044,357.600 217.600 C 357.600 217.156,357.333 216.800,357.000 216.800 C 356.667 216.800,356.400 217.156,356.400 217.600 M357.400 219.200 C 357.065 219.742,357.517 220.400,358.224 220.400 C 358.541 220.400,358.800 220.040,358.800 219.600 C 358.800 218.772,357.835 218.496,357.400 219.200 M358.400 221.600 C 358.400 222.044,358.667 222.400,359.000 222.400 C 359.333 222.400,359.600 222.044,359.600 221.600 C 359.600 221.156,359.333 220.800,359.000 220.800 C 358.667 220.800,358.400 221.156,358.400 221.600 M359.400 223.200 C 359.108 223.672,359.487 224.400,360.024 224.400 C 360.231 224.400,360.400 224.040,360.400 223.600 C 360.400 222.756,359.818 222.524,359.400 223.200 M360.400 225.800 C 360.400 226.350,360.580 226.800,360.800 226.800 C 361.020 226.800,361.200 227.166,361.200 227.613 C 361.200 228.059,361.470 228.529,361.800 228.655 C 362.130 228.782,362.400 229.316,362.400 229.843 C 362.400 230.427,362.634 230.800,363.000 230.800 C 363.373 230.800,363.600 230.422,363.600 229.800 C 363.600 229.178,363.373 228.800,363.000 228.800 C 362.627 228.800,362.400 228.422,362.400 227.800 C 362.400 227.250,362.220 226.800,362.000 226.800 C 361.780 226.800,361.600 226.350,361.600 225.800 C 361.600 225.178,361.373 224.800,361.000 224.800 C 360.627 224.800,360.400 225.178,360.400 225.800 M364.400 234.400 C 364.400 234.620,364.670 234.800,365.000 234.800 C 365.330 234.800,365.600 234.620,365.600 234.400 C 365.600 234.180,365.330 234.000,365.000 234.000 C 364.670 234.000,364.400 234.180,364.400 234.400 M365.681 236.102 C 365.308 236.552,365.287 236.807,365.607 237.004 C 366.199 237.370,366.502 237.023,366.335 236.169 C 366.213 235.544,366.149 235.537,365.681 236.102 M366.400 238.600 C 366.400 239.222,366.627 239.600,367.000 239.600 C 367.373 239.600,367.600 239.222,367.600 238.600 C 367.600 237.978,367.373 237.600,367.000 237.600 C 366.627 237.600,366.400 237.978,366.400 238.600 M367.600 241.400 C 367.600 241.730,367.780 242.000,368.000 242.000 C 368.220 242.000,368.400 241.730,368.400 241.400 C 368.400 241.070,368.220 240.800,368.000 240.800 C 367.780 240.800,367.600 241.070,367.600 241.400 M368.400 243.600 C 368.400 244.044,368.667 244.400,369.000 244.400 C 369.333 244.400,369.600 244.044,369.600 243.600 C 369.600 243.156,369.333 242.800,369.000 242.800 C 368.667 242.800,368.400 243.156,368.400 243.600 M369.272 245.669 C 369.461 246.949,370.400 247.086,370.400 245.833 C 370.400 245.161,370.181 244.800,369.772 244.800 C 369.355 244.800,369.187 245.092,369.272 245.669 M370.400 248.400 C 370.400 248.844,370.667 249.200,371.000 249.200 C 371.333 249.200,371.600 248.844,371.600 248.400 C 371.600 247.956,371.333 247.600,371.000 247.600 C 370.667 247.600,370.400 247.956,370.400 248.400 M371.322 250.258 C 371.173 250.648,371.341 251.114,371.735 251.402 C 372.101 251.669,372.400 252.363,372.400 252.944 C 372.400 253.616,372.618 254.000,373.000 254.000 C 373.400 254.000,373.600 253.600,373.600 252.800 C 373.600 252.000,373.400 251.600,373.000 251.600 C 372.627 251.600,372.400 251.222,372.400 250.600 C 372.400 249.474,371.708 249.254,371.322 250.258 M373.422 255.164 C 373.103 255.681,373.612 256.840,374.042 256.574 C 374.518 256.280,374.503 254.800,374.024 254.800 C 373.817 254.800,373.546 254.964,373.422 255.164 M374.400 258.400 C 374.400 258.844,374.667 259.200,375.000 259.200 C 375.333 259.200,375.600 258.844,375.600 258.400 C 375.600 257.956,375.333 257.600,375.000 257.600 C 374.667 257.600,374.400 257.956,374.400 258.400 M375.600 261.400 C 375.600 261.730,375.780 262.000,376.000 262.000 C 376.220 262.000,376.400 261.730,376.400 261.400 C 376.400 261.070,376.220 260.800,376.000 260.800 C 375.780 260.800,375.600 261.070,375.600 261.400 M376.400 263.800 C 376.400 264.422,376.627 264.800,377.000 264.800 C 377.373 264.800,377.600 264.422,377.600 263.800 C 377.600 263.178,377.373 262.800,377.000 262.800 C 376.627 262.800,376.400 263.178,376.400 263.800 M377.352 266.181 C 377.229 266.500,377.246 266.950,377.388 267.181 C 377.854 267.935,378.400 267.621,378.400 266.600 C 378.400 265.516,377.713 265.241,377.352 266.181 M378.400 269.600 C 378.400 270.044,378.667 270.400,379.000 270.400 C 379.333 270.400,379.600 270.044,379.600 269.600 C 379.600 269.156,379.333 268.800,379.000 268.800 C 378.667 268.800,378.400 269.156,378.400 269.600 M379.600 272.400 C 379.600 272.840,379.780 273.200,380.000 273.200 C 380.220 273.200,380.400 272.840,380.400 272.400 C 380.400 271.960,380.220 271.600,380.000 271.600 C 379.780 271.600,379.600 271.960,379.600 272.400 M380.400 275.600 C 380.400 276.044,380.667 276.400,381.000 276.400 C 381.333 276.400,381.600 276.044,381.600 275.600 C 381.600 275.156,381.333 274.800,381.000 274.800 C 380.667 274.800,380.400 275.156,380.400 275.600 M381.352 278.181 C 381.229 278.500,381.246 278.950,381.388 279.181 C 381.854 279.935,382.400 279.621,382.400 278.600 C 382.400 277.516,381.713 277.241,381.352 278.181 M382.400 281.800 C 382.400 282.422,382.627 282.800,383.000 282.800 C 383.373 282.800,383.600 282.422,383.600 281.800 C 383.600 281.178,383.373 280.800,383.000 280.800 C 382.627 280.800,382.400 281.178,382.400 281.800 M383.345 284.200 C 383.059 284.946,383.435 286.000,383.987 286.000 C 384.214 286.000,384.400 285.460,384.400 284.800 C 384.400 283.544,383.740 283.169,383.345 284.200 M384.400 288.400 C 384.400 288.844,384.667 289.200,385.000 289.200 C 385.333 289.200,385.600 288.844,385.600 288.400 C 385.600 287.956,385.333 287.600,385.000 287.600 C 384.667 287.600,384.400 287.956,384.400 288.400 M385.272 291.669 C 385.461 292.949,386.400 293.086,386.400 291.833 C 386.400 291.161,386.181 290.800,385.772 290.800 C 385.355 290.800,385.187 291.092,385.272 291.669 M386.400 295.800 C 386.400 296.422,386.627 296.800,387.000 296.800 C 387.373 296.800,387.600 296.422,387.600 295.800 C 387.600 295.178,387.373 294.800,387.000 294.800 C 386.627 294.800,386.400 295.178,386.400 295.800 M387.422 299.164 C 387.133 299.632,387.576 300.800,388.043 300.800 C 388.239 300.800,388.400 300.350,388.400 299.800 C 388.400 298.812,387.858 298.459,387.422 299.164 M388.400 303.367 C 388.400 304.039,388.619 304.400,389.028 304.400 C 389.445 304.400,389.613 304.108,389.528 303.531 C 389.339 302.251,388.400 302.114,388.400 303.367 M389.441 307.038 C 389.169 307.745,389.450 308.400,390.024 308.400 C 390.503 308.400,390.518 306.920,390.042 306.626 C 389.845 306.504,389.574 306.690,389.441 307.038 M390.400 311.833 C 390.400 313.641,391.344 313.503,391.525 311.669 C 391.618 310.731,391.487 310.400,391.025 310.400 C 390.575 310.400,390.400 310.800,390.400 311.833 M391.345 316.200 C 391.059 316.946,391.435 318.000,391.987 318.000 C 392.214 318.000,392.400 317.460,392.400 316.800 C 392.400 315.544,391.740 315.169,391.345 316.200 M392.400 321.600 C 392.400 322.400,392.600 322.800,393.000 322.800 C 393.400 322.800,393.600 322.400,393.600 321.600 C 393.600 320.800,393.400 320.400,393.000 320.400 C 392.600 320.400,392.400 320.800,392.400 321.600 M393.352 326.181 C 393.229 326.500,393.246 326.950,393.388 327.181 C 393.854 327.935,394.400 327.621,394.400 326.600 C 394.400 325.516,393.713 325.241,393.352 326.181 M394.400 332.000 C 394.400 333.156,394.567 333.600,395.000 333.600 C 395.433 333.600,395.600 333.156,395.600 332.000 C 395.600 330.844,395.433 330.400,395.000 330.400 C 394.567 330.400,394.400 330.844,394.400 332.000 M395.345 338.200 C 395.059 338.946,395.435 340.000,395.987 340.000 C 396.214 340.000,396.400 339.460,396.400 338.800 C 396.400 337.544,395.740 337.169,395.345 338.200 M396.312 344.064 C 396.010 344.971,396.500 346.800,397.045 346.800 C 397.426 346.800,397.600 346.297,397.600 345.200 C 397.600 343.664,396.708 342.877,396.312 344.064 M397.205 352.700 C 397.213 354.201,397.619 355.600,398.047 355.600 C 398.241 355.600,398.400 354.700,398.400 353.600 C 398.400 352.089,398.253 351.600,397.800 351.600 C 397.411 351.600,397.202 351.986,397.205 352.700 M398.400 363.400 C 398.400 364.733,398.556 365.200,399.000 365.200 C 399.444 365.200,399.600 364.733,399.600 363.400 C 399.600 362.067,399.444 361.600,399.000 361.600 C 398.556 361.600,398.400 362.067,398.400 363.400 M399.467 373.467 C 399.102 373.832,399.204 379.165,399.600 380.400 C 399.809 381.051,399.934 379.970,399.960 377.300 C 400.000 373.207,399.969 372.965,399.467 373.467 " stroke="none" fill="#c8cbdf" fill-rule="evenodd"></path><path id="path2" d="M12.697 0.457 C 12.990 0.750,15.225 0.946,18.877 1.000 C 22.025 1.046,23.071 1.013,21.203 0.925 C 19.335 0.838,17.634 0.594,17.423 0.383 C 17.212 0.172,15.960 -0.000,14.640 -0.000 C 12.839 -0.000,12.354 0.114,12.697 0.457 M31.468 0.967 C 31.160 1.769,31.928 1.964,36.114 2.146 C 38.141 2.233,39.170 2.236,38.400 2.152 C 34.339 1.709,33.600 1.528,33.600 0.975 C 33.600 0.223,31.756 0.215,31.468 0.967 M41.200 2.175 C 41.200 2.858,43.815 3.340,46.200 3.098 C 47.641 2.951,47.591 2.928,45.700 2.867 C 44.130 2.817,43.600 2.649,43.600 2.200 C 43.600 1.800,43.200 1.600,42.400 1.600 C 41.623 1.600,41.200 1.803,41.200 2.175 M50.876 3.097 C 51.032 3.912,52.563 4.314,55.400 4.285 C 57.106 4.268,57.165 4.245,55.800 4.126 C 53.234 3.903,52.400 3.624,52.400 2.992 C 52.400 2.660,52.036 2.400,51.571 2.400 C 50.998 2.400,50.783 2.615,50.876 3.097 M57.600 4.182 C 57.600 4.817,59.834 5.399,61.060 5.083 C 61.489 4.973,61.254 4.873,60.500 4.846 C 59.632 4.815,59.200 4.601,59.200 4.200 C 59.200 3.867,58.844 3.600,58.400 3.600 C 57.960 3.600,57.600 3.862,57.600 4.182 M64.000 4.976 C 64.000 5.869,64.692 6.108,67.642 6.237 C 69.142 6.302,70.745 6.557,71.205 6.803 C 71.665 7.049,72.437 7.173,72.921 7.080 C 73.796 6.910,73.795 6.909,72.887 6.854 C 72.386 6.825,71.868 6.522,71.738 6.183 C 71.553 5.700,71.128 5.622,69.788 5.823 C 67.659 6.142,65.600 5.722,65.600 4.968 C 65.600 4.656,65.240 4.400,64.800 4.400 C 64.360 4.400,64.000 4.659,64.000 4.976 M75.600 6.976 C 75.600 7.778,76.107 8.018,78.723 8.457 C 81.106 8.857,84.057 9.218,82.500 8.919 C 82.005 8.825,81.600 8.483,81.600 8.160 C 81.600 7.688,81.214 7.624,79.636 7.833 C 77.944 8.057,77.572 7.976,76.947 7.247 C 76.104 6.261,75.600 6.160,75.600 6.976 M85.028 8.755 C 84.620 9.415,85.934 10.051,88.184 10.283 C 89.416 10.410,90.519 10.669,90.635 10.857 C 90.752 11.046,91.332 11.175,91.924 11.146 C 92.866 11.098,92.888 11.070,92.100 10.918 C 91.605 10.822,91.200 10.479,91.200 10.154 C 91.200 9.696,90.886 9.623,89.803 9.826 C 88.029 10.159,86.400 9.759,86.400 8.992 C 86.400 8.351,85.386 8.176,85.028 8.755 M94.000 10.811 C 93.205 11.326,94.011 11.892,96.000 12.216 C 96.770 12.341,97.713 12.614,98.095 12.822 C 98.477 13.030,99.197 13.189,99.695 13.175 L 100.600 13.149 99.700 12.788 C 99.205 12.589,98.800 12.237,98.800 12.005 C 98.800 11.756,98.392 11.687,97.800 11.836 C 96.473 12.169,94.890 11.743,94.729 11.010 C 94.636 10.586,94.432 10.530,94.000 10.811 M102.057 12.931 C 101.581 13.504,101.648 13.638,102.583 13.993 C 103.976 14.523,104.686 14.507,105.038 13.938 C 105.216 13.651,105.148 13.585,104.858 13.764 C 104.179 14.184,102.872 13.665,102.726 12.919 C 102.611 12.331,102.553 12.333,102.057 12.931 M105.600 14.157 C 105.600 14.760,106.465 15.215,107.533 15.175 C 108.005 15.157,107.937 15.044,107.300 14.788 C 106.805 14.589,106.400 14.240,106.400 14.013 C 106.400 13.786,106.220 13.600,106.000 13.600 C 105.780 13.600,105.600 13.851,105.600 14.157 M109.600 15.195 C 109.600 15.815,109.956 16.047,111.209 16.248 C 112.094 16.389,112.914 16.661,113.032 16.853 C 113.151 17.044,113.642 17.179,114.124 17.154 C 114.800 17.118,114.841 17.066,114.300 16.924 C 113.915 16.824,113.600 16.521,113.600 16.251 C 113.600 15.924,113.124 15.816,112.175 15.927 C 110.986 16.066,110.713 15.953,110.528 15.247 C 110.248 14.176,109.600 14.140,109.600 15.195 M115.800 16.800 C 115.473 17.330,115.912 18.000,116.586 18.000 C 116.928 18.000,117.049 17.708,116.916 17.200 C 116.690 16.336,116.196 16.159,115.800 16.800 M118.200 18.000 C 117.429 18.331,117.431 18.345,118.276 18.372 C 118.758 18.387,119.264 18.580,119.400 18.800 C 119.536 19.020,120.222 19.173,120.924 19.140 C 122.133 19.083,122.142 19.071,121.100 18.913 C 120.489 18.821,120.000 18.492,120.000 18.173 C 120.000 17.537,119.409 17.480,118.200 18.000 M122.400 19.200 C 122.400 19.640,122.653 20.000,122.963 20.000 C 123.328 20.000,123.452 19.720,123.316 19.200 C 123.201 18.760,122.948 18.400,122.753 18.400 C 122.559 18.400,122.400 18.760,122.400 19.200 M125.048 19.990 C 123.954 20.189,123.991 20.228,125.765 20.749 C 126.794 21.051,127.747 21.186,127.884 21.049 C 128.021 20.912,127.757 20.800,127.296 20.800 C 126.835 20.800,126.400 20.571,126.329 20.290 C 126.246 19.960,125.793 19.854,125.048 19.990 M128.589 21.219 C 128.457 21.431,128.676 21.722,129.075 21.865 C 129.474 22.007,129.935 22.196,130.100 22.285 C 130.656 22.586,130.405 22.182,129.614 21.505 C 129.157 21.113,128.728 20.993,128.589 21.219 M131.400 22.400 C 131.798 22.840,132.535 23.200,133.038 23.200 C 133.541 23.200,134.064 23.380,134.200 23.600 C 134.631 24.297,135.133 24.032,134.921 23.218 C 134.758 22.596,134.482 22.484,133.564 22.667 C 132.723 22.835,132.345 22.723,132.163 22.249 C 132.026 21.892,131.636 21.600,131.295 21.600 C 130.771 21.600,130.787 21.723,131.400 22.400 M136.458 23.981 C 135.589 24.191,135.630 24.250,136.988 24.741 C 137.797 25.034,138.566 25.167,138.697 25.037 C 138.827 24.907,138.647 24.800,138.296 24.800 C 137.945 24.800,137.600 24.564,137.529 24.276 C 137.447 23.943,137.057 23.836,136.458 23.981 M139.882 24.930 C 139.547 25.803,141.071 26.691,141.743 26.013 C 142.087 25.667,142.027 25.618,141.503 25.818 C 141.004 26.008,140.709 25.825,140.470 25.178 C 140.189 24.419,140.094 24.379,139.882 24.930 M142.469 26.195 C 142.546 26.633,142.967 27.050,143.405 27.123 C 143.842 27.195,144.830 27.524,145.600 27.854 C 147.071 28.485,147.600 28.706,150.200 29.779 C 151.080 30.142,152.113 30.610,152.495 30.819 C 152.877 31.029,153.412 31.200,153.684 31.200 C 154.439 31.200,152.746 30.155,151.500 29.852 C 150.895 29.705,150.400 29.335,150.400 29.030 C 150.400 28.671,150.116 28.549,149.598 28.685 C 149.157 28.800,148.572 28.718,148.298 28.502 C 148.024 28.287,147.305 27.992,146.700 27.848 C 146.095 27.703,145.600 27.343,145.600 27.048 C 145.600 26.682,145.261 26.576,144.537 26.714 C 143.794 26.856,143.303 26.689,142.902 26.159 C 142.342 25.419,142.332 25.420,142.469 26.195 M154.492 31.275 C 154.579 31.536,154.864 31.821,155.125 31.908 C 155.418 32.006,155.507 31.823,155.357 31.433 C 155.078 30.706,154.252 30.555,154.492 31.275 M156.472 31.874 C 156.124 32.013,156.318 32.280,157.039 32.654 C 157.641 32.966,158.329 33.141,158.567 33.043 C 158.805 32.944,158.685 32.849,158.300 32.832 C 157.915 32.814,157.600 32.530,157.600 32.200 C 157.600 31.579,157.374 31.514,156.472 31.874 M159.363 33.541 C 159.479 33.728,160.435 34.194,161.487 34.576 C 162.539 34.958,164.280 35.709,165.357 36.245 C 166.433 36.782,167.384 37.149,167.471 37.063 C 167.558 36.976,167.012 36.612,166.258 36.254 C 165.504 35.896,164.792 35.355,164.675 35.051 C 164.540 34.700,164.088 34.571,163.432 34.696 C 162.699 34.836,162.400 34.722,162.400 34.302 C 162.400 33.895,162.103 33.768,161.447 33.893 C 160.923 33.993,160.372 33.878,160.223 33.638 C 160.075 33.397,159.773 33.200,159.553 33.200 C 159.333 33.200,159.248 33.353,159.363 33.541 M170.224 38.587 C 170.651 38.910,171.259 39.180,171.576 39.187 C 171.983 39.196,171.924 39.027,171.376 38.613 C 170.949 38.290,170.341 38.020,170.024 38.013 C 169.617 38.004,169.676 38.173,170.224 38.587 M172.410 39.509 C 172.421 39.817,175.210 41.200,175.820 41.200 C 176.291 41.200,174.891 40.289,173.500 39.690 C 172.895 39.430,172.405 39.348,172.410 39.509 M178.498 41.935 C 178.155 42.150,178.516 42.527,179.636 43.125 C 181.583 44.164,181.641 44.173,181.345 43.400 C 181.218 43.070,180.697 42.800,180.187 42.800 C 179.676 42.800,179.200 42.535,179.129 42.211 C 179.050 41.848,178.807 41.742,178.498 41.935 M182.498 43.935 C 182.153 44.152,182.465 44.500,183.498 45.054 C 184.324 45.496,185.861 46.340,186.914 46.929 C 187.967 47.518,189.092 48.000,189.414 48.000 C 189.736 48.000,190.000 48.167,190.000 48.371 C 190.000 48.660,192.158 50.000,192.624 50.000 C 192.680 50.000,192.636 49.661,192.528 49.246 C 192.392 48.727,192.086 48.557,191.542 48.699 C 190.976 48.847,190.690 48.666,190.531 48.057 C 190.409 47.591,190.148 47.308,189.952 47.430 C 189.531 47.690,186.800 46.765,186.800 46.363 C 186.800 46.211,186.350 45.974,185.800 45.836 C 185.250 45.698,184.800 45.408,184.800 45.192 C 184.800 44.977,184.453 44.800,184.029 44.800 C 183.605 44.800,183.200 44.535,183.129 44.211 C 183.050 43.848,182.807 43.742,182.498 43.935 M193.456 49.909 C 193.316 50.136,193.841 50.699,194.623 51.161 C 196.318 52.161,196.444 52.181,196.145 51.400 C 196.018 51.070,195.583 50.800,195.177 50.800 C 194.772 50.800,194.276 50.507,194.075 50.149 C 193.853 49.752,193.611 49.658,193.456 49.909 M199.200 53.622 C 199.200 53.778,199.515 54.021,199.900 54.160 C 200.285 54.299,200.961 54.635,201.402 54.906 C 206.275 57.905,208.469 59.200,208.674 59.200 C 209.063 59.200,205.955 57.072,204.300 56.204 C 203.475 55.772,202.800 55.279,202.800 55.109 C 202.800 54.939,202.524 54.800,202.187 54.800 C 201.850 54.800,201.445 54.485,201.287 54.100 C 201.015 53.435,199.200 53.019,199.200 53.622 M210.665 59.518 C 210.275 60.123,211.033 61.200,211.849 61.200 C 212.152 61.200,212.400 61.380,212.400 61.600 C 212.400 61.820,212.602 62.000,212.849 62.000 C 213.159 62.000,213.144 61.815,212.800 61.400 C 212.526 61.070,212.067 60.800,211.779 60.800 C 211.491 60.800,211.198 60.395,211.127 59.900 C 211.035 59.252,210.905 59.145,210.665 59.518 M214.600 63.012 C 215.973 64.138,216.476 64.264,216.145 63.400 C 216.018 63.070,215.574 62.800,215.157 62.800 C 214.741 62.800,214.400 62.620,214.400 62.400 C 214.400 62.180,214.175 62.006,213.900 62.014 C 213.625 62.022,213.940 62.471,214.600 63.012 M216.800 64.210 C 216.800 64.285,217.339 64.729,217.997 65.198 C 218.666 65.674,219.104 65.819,218.990 65.525 C 218.811 65.065,216.800 63.858,216.800 64.210 M219.600 66.168 C 219.600 66.261,221.985 67.925,224.900 69.868 C 227.815 71.810,230.260 73.534,230.333 73.700 C 230.407 73.865,230.679 74.000,230.937 74.000 C 231.196 74.000,231.856 74.405,232.404 74.900 C 232.952 75.395,234.075 76.295,234.900 76.900 C 235.725 77.505,237.034 78.474,237.808 79.054 C 238.794 79.791,239.141 79.911,238.965 79.454 C 238.827 79.094,238.480 78.800,238.193 78.800 C 237.906 78.800,237.248 78.305,236.732 77.700 C 236.215 77.095,235.284 76.336,234.662 76.014 C 234.040 75.692,233.087 75.017,232.545 74.514 C 232.003 74.011,231.455 73.600,231.327 73.600 C 231.200 73.600,230.219 72.970,229.147 72.200 C 228.075 71.430,227.062 70.800,226.895 70.800 C 226.728 70.800,226.107 70.350,225.513 69.800 C 224.920 69.250,224.309 68.800,224.155 68.800 C 224.001 68.800,223.286 68.350,222.564 67.800 C 221.843 67.250,221.061 66.800,220.827 66.800 C 220.592 66.800,220.400 66.620,220.400 66.400 C 220.400 66.180,220.220 66.000,220.000 66.000 C 219.780 66.000,219.600 66.076,219.600 66.168 M240.483 80.949 C 241.078 81.527,241.654 82.000,241.762 82.000 C 241.870 82.000,242.444 82.450,243.038 83.000 C 243.631 83.550,244.316 83.996,244.558 83.991 C 245.057 83.981,243.853 82.957,241.200 81.135 C 239.584 80.025,239.510 80.006,240.483 80.949 M247.040 85.906 C 247.723 86.508,249.057 87.630,250.006 88.400 C 250.955 89.170,251.927 89.980,252.166 90.200 C 252.405 90.420,253.451 91.283,254.491 92.119 C 255.530 92.954,256.610 93.856,256.890 94.124 C 257.171 94.392,258.210 95.238,259.200 96.005 C 260.190 96.771,261.371 97.758,261.824 98.199 C 262.564 98.918,268.624 104.404,269.779 105.400 C 272.075 107.380,272.273 107.432,270.326 105.543 C 269.047 104.302,268.000 103.087,268.000 102.843 C 268.000 102.599,267.821 102.400,267.603 102.400 C 267.385 102.400,266.729 101.995,266.147 101.500 C 263.936 99.621,260.950 96.951,259.660 95.700 C 258.923 94.985,258.158 94.400,257.960 94.400 C 257.762 94.400,257.600 94.220,257.600 94.000 C 257.600 93.780,257.421 93.600,257.203 93.600 C 256.789 93.600,255.482 92.570,253.524 90.700 C 252.891 90.095,252.276 89.600,252.158 89.600 C 252.040 89.600,251.718 89.375,251.442 89.100 C 251.167 88.825,250.280 88.073,249.471 87.428 C 248.662 86.784,248.000 85.999,248.000 85.685 C 248.000 85.342,247.761 85.206,247.400 85.345 C 247.070 85.471,246.800 85.401,246.800 85.187 C 246.800 84.974,246.575 84.803,246.300 84.806 C 246.025 84.810,246.358 85.305,247.040 85.906 M274.000 108.975 C 274.000 109.216,290.778 126.000,291.019 126.000 C 291.381 126.000,289.600 124.106,283.362 117.853 C 276.834 111.310,274.000 108.623,274.000 108.975 M292.011 127.109 C 292.017 127.269,292.757 128.210,293.656 129.200 C 302.184 138.594,301.921 138.297,303.945 140.800 C 304.745 141.790,305.490 142.690,305.601 142.800 C 305.962 143.160,308.171 145.804,309.600 147.586 C 310.370 148.546,311.186 149.527,311.413 149.766 C 311.640 150.005,313.078 151.820,314.609 153.800 C 316.139 155.780,317.529 157.460,317.696 157.533 C 317.863 157.607,318.000 157.907,318.000 158.200 C 318.000 158.493,318.147 158.793,318.327 158.867 C 318.508 158.940,319.899 160.710,321.420 162.800 C 322.940 164.890,324.593 167.048,325.092 167.596 C 325.592 168.144,326.000 168.819,326.000 169.096 C 326.000 169.373,326.180 169.600,326.400 169.600 C 326.620 169.600,326.800 169.870,326.800 170.200 C 326.800 170.530,326.972 170.800,327.181 170.800 C 327.391 170.800,327.857 171.422,328.218 172.182 C 328.579 172.941,329.127 173.774,329.437 174.031 C 329.747 174.288,330.000 174.731,330.000 175.016 C 330.000 175.300,330.138 175.593,330.307 175.667 C 330.476 175.740,331.871 177.690,333.407 180.000 C 334.943 182.310,336.290 184.290,336.400 184.400 C 336.697 184.697,337.566 186.113,337.873 186.800 C 338.021 187.130,338.245 187.490,338.371 187.600 C 338.685 187.874,339.402 189.078,340.456 191.100 C 340.943 192.035,341.487 192.800,341.665 192.800 C 341.843 192.800,341.632 192.215,341.196 191.500 C 340.760 190.785,340.402 189.885,340.401 189.500 C 340.401 189.115,340.174 188.800,339.898 188.800 C 339.282 188.800,338.244 186.576,338.594 186.009 C 338.733 185.784,338.561 185.600,338.211 185.600 C 337.861 185.600,337.464 185.310,337.328 184.956 C 337.192 184.602,336.658 183.856,336.140 183.298 C 335.623 182.740,335.200 182.054,335.200 181.775 C 335.200 181.495,335.065 181.207,334.900 181.133 C 334.168 180.808,330.351 174.704,330.552 174.180 C 330.700 173.794,330.511 173.600,329.987 173.600 C 329.554 173.600,329.200 173.330,329.200 173.000 C 329.200 172.670,328.999 172.400,328.753 172.400 C 328.508 172.400,328.397 172.056,328.507 171.635 C 328.635 171.145,328.472 170.807,328.054 170.698 C 327.694 170.603,327.130 170.013,326.800 169.386 C 326.470 168.759,325.704 167.700,325.098 167.032 C 324.492 166.364,323.885 165.469,323.750 165.042 C 323.615 164.616,322.986 163.831,322.352 163.298 C 321.718 162.765,321.200 162.075,321.200 161.764 C 321.200 161.454,321.001 161.200,320.757 161.200 C 320.514 161.200,320.418 160.930,320.545 160.600 C 320.678 160.251,320.551 160.000,320.241 160.000 C 319.782 160.000,317.600 157.200,317.600 156.612 C 317.600 156.499,317.060 155.891,316.400 155.260 C 315.740 154.629,315.200 153.908,315.200 153.657 C 315.200 153.406,315.001 153.200,314.757 153.200 C 314.514 153.200,314.418 152.930,314.545 152.600 C 314.676 152.258,314.553 152.000,314.259 152.000 C 313.976 152.000,313.216 151.338,312.572 150.529 C 311.927 149.720,311.175 148.833,310.900 148.558 C 310.625 148.282,310.400 147.864,310.400 147.629 C 310.400 147.393,310.220 147.200,310.000 147.200 C 309.780 147.200,309.600 146.930,309.600 146.600 C 309.600 146.270,309.330 146.000,309.000 146.000 C 308.670 146.000,308.397 145.865,308.392 145.700 C 308.388 145.535,307.758 144.682,306.992 143.804 C 306.227 142.927,305.600 142.090,305.600 141.944 C 305.600 141.799,305.015 141.077,304.300 140.340 C 303.049 139.050,300.379 136.064,298.500 133.853 C 298.005 133.271,297.600 132.615,297.600 132.397 C 297.600 132.179,297.370 132.000,297.089 132.000 C 296.808 132.000,296.240 131.595,295.827 131.100 C 294.115 129.049,292.001 126.838,292.011 127.109 M342.000 193.381 C 342.000 193.506,342.900 195.045,344.000 196.800 C 345.100 198.555,346.000 200.173,346.000 200.396 C 346.000 200.618,346.141 200.800,346.312 200.800 C 346.484 200.800,346.841 201.373,347.105 202.074 C 347.370 202.774,347.688 203.245,347.813 203.121 C 347.937 202.996,347.670 202.237,347.220 201.435 C 346.769 200.632,346.400 199.810,346.400 199.608 C 346.400 199.406,345.991 198.800,345.491 198.260 C 344.990 197.720,344.170 196.455,343.667 195.448 C 342.852 193.816,342.000 192.760,342.000 193.381 M348.000 203.976 C 348.000 204.209,348.141 204.400,348.312 204.400 C 348.484 204.400,348.841 204.973,349.105 205.674 C 349.370 206.374,349.680 206.853,349.795 206.739 C 350.046 206.487,348.904 204.112,348.375 203.784 C 348.169 203.657,348.000 203.743,348.000 203.976 M350.029 207.537 C 350.045 207.682,350.399 208.340,350.815 209.000 C 351.232 209.660,351.938 210.954,352.385 211.876 C 352.832 212.797,353.378 213.663,353.599 213.799 C 354.195 214.167,354.093 213.804,353.158 212.219 C 352.696 211.435,352.413 210.543,352.531 210.236 C 352.660 209.900,352.418 209.593,351.919 209.463 C 351.333 209.310,351.154 209.019,351.301 208.458 C 351.443 207.914,351.273 207.608,350.754 207.472 C 350.339 207.364,350.013 207.393,350.029 207.537 M354.000 214.486 C 354.000 215.152,355.804 217.987,355.950 217.550 C 356.044 217.269,355.913 216.971,355.660 216.887 C 355.407 216.802,355.194 216.523,355.187 216.267 C 355.175 215.799,354.000 214.037,354.000 214.486 M356.000 218.575 C 356.000 219.025,357.775 221.958,357.945 221.788 C 358.056 221.677,357.934 221.374,357.673 221.113 C 357.413 220.853,357.200 220.245,357.200 219.763 C 357.200 219.280,356.930 218.782,356.600 218.655 C 356.270 218.529,356.000 218.492,356.000 218.575 M358.000 222.605 C 358.000 222.718,358.160 223.123,358.356 223.505 C 358.551 223.887,359.046 224.890,359.456 225.733 C 359.865 226.576,360.363 227.369,360.562 227.495 C 360.761 227.621,360.828 227.561,360.710 227.362 C 360.593 227.163,360.028 225.965,359.454 224.700 C 358.546 222.698,358.000 221.911,358.000 222.605 M360.813 228.424 C 360.820 228.741,361.090 229.349,361.413 229.776 C 361.827 230.324,361.996 230.383,361.987 229.976 C 361.980 229.659,361.710 229.051,361.387 228.624 C 360.973 228.076,360.804 228.017,360.813 228.424 M362.029 231.137 C 362.045 231.282,362.403 231.940,362.825 232.600 C 363.563 233.756,363.703 234.043,364.382 235.800 C 365.629 239.028,365.858 239.386,366.095 238.478 C 366.252 237.881,366.145 237.600,365.763 237.600 C 365.066 237.600,365.014 236.142,365.700 235.865 C 365.975 235.754,365.795 235.649,365.300 235.632 C 364.574 235.606,364.400 235.368,364.400 234.400 C 364.400 233.645,364.195 233.200,363.847 233.200 C 363.165 233.200,362.713 231.696,363.332 231.489 C 363.578 231.407,363.379 231.236,362.890 231.108 C 362.400 230.980,362.013 230.993,362.029 231.137 M366.000 239.843 C 366.000 239.935,366.161 240.323,366.357 240.705 C 366.553 241.087,366.914 241.905,367.159 242.523 C 367.403 243.140,367.783 243.534,368.002 243.399 C 368.617 243.019,368.473 242.400,367.768 242.400 C 367.281 242.400,367.194 242.138,367.389 241.252 C 367.594 240.315,367.490 240.065,366.820 239.889 C 366.369 239.771,366.000 239.750,366.000 239.843 M368.014 244.476 C 368.006 244.848,368.180 245.264,368.400 245.400 C 368.620 245.536,368.800 245.957,368.800 246.335 C 368.800 246.713,369.160 247.330,369.600 247.707 C 370.269 248.280,370.400 248.295,370.400 247.796 C 370.400 247.468,370.130 247.200,369.800 247.200 C 369.470 247.200,369.194 246.885,369.186 246.500 C 369.166 245.525,368.033 243.568,368.014 244.476 M370.000 249.443 C 370.000 249.535,370.164 249.923,370.364 250.305 C 370.564 250.687,371.010 251.630,371.355 252.400 C 371.846 253.497,371.984 253.610,371.991 252.924 C 371.996 252.442,371.803 251.925,371.562 251.777 C 371.322 251.628,371.204 251.091,371.301 250.584 C 371.426 249.931,371.262 249.605,370.739 249.468 C 370.332 249.362,370.000 249.350,370.000 249.443 M372.000 254.414 C 372.000 254.600,372.180 254.864,372.400 255.000 C 372.620 255.136,372.806 255.642,372.813 256.124 C 372.829 257.272,373.822 258.611,374.202 257.997 C 374.355 257.750,374.166 257.317,373.781 257.036 C 373.313 256.694,373.148 256.184,373.280 255.493 C 373.427 254.725,373.289 254.412,372.739 254.268 C 372.332 254.162,372.000 254.227,372.000 254.414 M374.006 259.700 C 374.002 260.170,374.295 260.390,374.900 260.368 C 375.501 260.347,375.601 260.261,375.200 260.108 C 374.870 259.983,374.468 259.682,374.306 259.440 C 374.125 259.169,374.010 259.268,374.006 259.700 M374.846 261.254 C 374.821 261.614,375.063 262.514,375.384 263.254 C 375.813 264.241,375.973 264.381,375.984 263.780 C 375.993 263.329,375.837 262.789,375.639 262.580 C 375.440 262.371,375.191 261.840,375.085 261.400 C 374.950 260.837,374.879 260.794,374.846 261.254 M376.000 265.043 C 376.000 265.135,376.169 265.523,376.376 265.905 C 376.583 266.287,376.851 267.075,376.972 267.656 C 377.212 268.802,378.400 269.577,378.400 268.587 C 378.400 268.264,378.110 268.000,377.756 268.000 C 377.258 268.000,377.149 267.689,377.273 266.625 C 377.398 265.556,377.274 265.208,376.717 265.062 C 376.323 264.959,376.000 264.950,376.000 265.043 M378.032 270.513 C 378.014 270.904,378.238 271.316,378.528 271.428 C 378.849 271.551,378.994 272.061,378.896 272.724 C 378.787 273.470,379.001 274.058,379.568 274.571 C 380.261 275.199,380.400 275.221,380.400 274.705 C 380.400 274.364,380.110 273.974,379.756 273.839 C 379.259 273.648,379.172 273.274,379.374 272.196 C 379.577 271.118,379.503 270.800,379.051 270.800 C 378.730 270.800,378.376 270.575,378.265 270.300 C 378.146 270.006,378.050 270.094,378.032 270.513 M380.032 276.876 C 380.014 277.248,380.180 277.664,380.400 277.800 C 380.620 277.936,380.800 278.566,380.800 279.200 C 380.800 279.834,380.980 280.464,381.200 280.600 C 381.420 280.736,381.600 281.185,381.600 281.598 C 381.600 282.814,382.365 284.469,382.802 284.199 C 383.051 284.045,382.961 283.703,382.567 283.310 C 382.179 282.922,381.993 282.231,382.093 281.551 C 382.199 280.829,382.054 280.353,381.685 280.211 C 381.293 280.061,381.165 279.554,381.276 278.596 C 381.384 277.677,381.273 277.200,380.953 277.200 C 380.686 277.200,380.376 276.975,380.265 276.700 C 380.141 276.392,380.051 276.460,380.032 276.876 M382.825 285.851 C 382.811 286.319,383.059 286.917,383.376 287.180 C 383.693 287.443,383.857 287.908,383.739 288.214 C 383.622 288.519,383.813 289.344,384.163 290.046 C 384.513 290.748,384.800 291.838,384.800 292.467 C 384.800 293.096,384.962 293.923,385.161 294.305 C 385.359 294.687,385.674 295.718,385.861 296.596 C 386.169 298.045,387.600 299.225,387.600 298.029 C 387.600 297.793,387.342 297.600,387.027 297.600 C 386.277 297.600,385.876 296.275,386.191 294.842 C 386.379 293.987,386.273 293.637,385.769 293.443 C 385.240 293.241,385.142 292.845,385.310 291.593 C 385.464 290.444,385.379 290.000,385.005 290.000 C 384.305 290.000,383.947 288.951,384.244 287.768 C 384.394 287.168,384.313 286.800,384.030 286.800 C 383.780 286.800,383.411 286.395,383.212 285.900 C 382.857 285.017,382.850 285.016,382.825 285.851 M386.864 299.867 C 386.782 301.485,387.136 302.400,387.843 302.400 C 388.572 302.400,388.561 301.747,387.827 301.466 C 387.512 301.345,387.181 300.651,387.091 299.923 L 386.928 298.600 386.864 299.867 M387.789 303.300 C 387.467 304.168,388.229 306.195,388.929 306.329 C 389.327 306.406,389.600 306.203,389.600 305.829 C 389.600 305.483,389.342 305.200,389.027 305.200 C 388.385 305.200,387.814 303.825,388.198 303.204 C 388.335 302.982,388.341 302.800,388.211 302.800 C 388.081 302.800,387.891 303.025,387.789 303.300 M388.860 307.726 C 388.794 308.968,389.412 310.400,390.014 310.400 C 390.618 310.400,390.466 309.311,389.829 309.066 C 389.515 308.946,389.182 308.342,389.089 307.724 L 388.920 306.600 388.860 307.726 M389.862 312.800 C 390.156 315.096,391.600 316.592,391.600 314.600 C 391.600 314.270,391.348 314.000,391.040 314.000 C 390.732 314.000,390.289 313.325,390.055 312.500 L 389.631 311.000 389.862 312.800 M390.875 316.800 C 390.840 317.570,390.919 318.605,391.052 319.100 C 391.320 320.101,392.400 320.342,392.400 319.400 C 392.400 319.070,392.140 318.800,391.823 318.800 C 391.435 318.800,391.196 318.244,391.093 317.100 C 390.954 315.558,390.934 315.530,390.875 316.800 M391.839 321.138 C 391.462 321.747,392.103 324.465,392.675 324.684 C 393.591 325.036,393.859 324.378,393.043 323.782 C 392.614 323.468,392.268 322.704,392.243 322.015 C 392.197 320.707,392.157 320.622,391.839 321.138 M392.873 326.800 C 392.788 328.709,393.181 330.000,393.847 330.000 C 394.577 330.000,394.560 328.947,393.825 328.665 C 393.509 328.544,393.180 327.760,393.093 326.922 L 392.934 325.400 392.873 326.800 M393.756 330.971 C 393.635 331.285,393.604 331.960,393.686 332.471 C 393.795 333.154,393.888 333.004,394.037 331.900 C 394.247 330.347,394.136 329.981,393.756 330.971 M394.054 334.651 C 394.001 335.871,394.810 337.056,395.337 336.530 C 395.811 336.055,395.612 335.200,395.028 335.200 C 394.713 335.200,394.378 334.795,394.282 334.300 C 394.152 333.622,394.095 333.709,394.054 334.651 M394.872 339.274 C 394.794 341.304,395.334 343.200,395.990 343.200 C 396.619 343.200,396.476 341.715,395.823 341.464 C 395.464 341.326,395.189 340.516,395.095 339.321 L 394.944 337.400 394.872 339.274 M395.693 345.200 C 395.693 345.970,395.775 346.285,395.876 345.900 C 395.976 345.515,395.976 344.885,395.876 344.500 C 395.775 344.115,395.693 344.430,395.693 345.200 M396.046 347.667 C 395.984 349.103,396.367 350.000,397.043 350.000 C 397.370 350.000,397.600 349.588,397.600 349.000 C 397.600 348.401,397.371 348.000,397.029 348.000 C 396.715 348.000,396.376 347.685,396.276 347.300 C 396.160 346.856,396.076 346.990,396.046 347.667 M396.905 354.600 C 396.877 358.125,397.168 359.656,397.911 359.904 C 398.224 360.008,398.400 359.634,398.400 358.867 C 398.400 358.207,398.175 357.592,397.900 357.500 C 397.590 357.397,397.310 356.204,397.165 354.367 L 396.929 351.400 396.905 354.600 M397.701 363.400 C 397.705 364.280,397.787 364.593,397.883 364.095 C 397.979 363.598,397.975 362.878,397.875 362.495 C 397.775 362.113,397.696 362.520,397.701 363.400 M398.052 367.000 C 397.997 369.128,398.370 370.400,399.047 370.400 C 399.789 370.400,399.787 367.747,399.045 367.320 C 398.739 367.144,398.400 366.640,398.291 366.200 C 398.182 365.760,398.074 366.120,398.052 367.000 M399.075 383.000 C 399.174 387.180,399.406 391.500,399.592 392.600 C 399.992 394.974,399.774 387.198,399.238 380.000 C 398.944 376.050,398.921 376.474,399.075 383.000 " stroke="none" fill="#6c74a8" fill-rule="evenodd"></path><path id="path3" d="M18.800 0.400 C 19.130 0.613,20.120 0.778,21.000 0.766 C 22.257 0.748,22.429 0.670,21.800 0.400 C 20.633 -0.102,18.024 -0.102,18.800 0.400 M34.400 0.950 C 34.400 1.253,34.962 1.613,35.650 1.750 C 37.326 2.085,38.522 1.979,37.000 1.630 C 36.340 1.479,35.845 1.141,35.900 0.878 C 35.955 0.615,35.640 0.400,35.200 0.400 C 34.760 0.400,34.400 0.647,34.400 0.950 M44.278 1.856 C 43.863 2.270,44.387 2.800,45.211 2.800 C 45.726 2.800,45.900 2.604,45.745 2.200 C 45.508 1.584,44.732 1.402,44.278 1.856 M52.800 2.957 C 52.800 3.517,54.705 4.228,55.114 3.819 C 55.235 3.699,55.033 3.600,54.667 3.600 C 54.300 3.600,54.000 3.330,54.000 3.000 C 54.000 2.670,53.730 2.400,53.400 2.400 C 53.070 2.400,52.800 2.650,52.800 2.957 M59.600 4.200 C 59.600 4.530,59.864 4.800,60.187 4.800 C 60.545 4.800,60.685 4.565,60.545 4.200 C 60.418 3.870,60.154 3.600,59.957 3.600 C 59.761 3.600,59.600 3.870,59.600 4.200 M66.000 5.000 C 66.000 5.330,66.270 5.600,66.600 5.600 C 66.930 5.600,67.200 5.330,67.200 5.000 C 67.200 4.670,66.930 4.400,66.600 4.400 C 66.270 4.400,66.000 4.670,66.000 5.000 M72.092 6.075 C 72.179 6.336,72.464 6.621,72.725 6.708 C 73.018 6.806,73.107 6.623,72.957 6.233 C 72.678 5.506,71.852 5.355,72.092 6.075 M76.800 7.000 C 76.800 7.330,76.961 7.600,77.157 7.600 C 77.354 7.600,77.618 7.330,77.745 7.000 C 77.885 6.635,77.745 6.400,77.387 6.400 C 77.064 6.400,76.800 6.670,76.800 7.000 M86.800 8.973 C 86.800 9.571,88.286 10.248,88.697 9.837 C 88.827 9.706,88.633 9.600,88.267 9.600 C 87.900 9.600,87.600 9.330,87.600 9.000 C 87.600 8.670,87.420 8.400,87.200 8.400 C 86.980 8.400,86.800 8.658,86.800 8.973 M91.292 10.075 C 91.379 10.336,91.664 10.621,91.925 10.708 C 92.218 10.806,92.307 10.623,92.157 10.233 C 91.878 9.506,91.052 9.355,91.292 10.075 M102.800 13.000 C 102.800 13.330,102.980 13.600,103.200 13.600 C 103.420 13.600,103.600 13.330,103.600 13.000 C 103.600 12.670,103.420 12.400,103.200 12.400 C 102.980 12.400,102.800 12.670,102.800 13.000 M123.200 19.000 C 123.200 19.330,123.275 19.600,123.367 19.600 C 123.459 19.600,123.864 19.704,124.267 19.830 C 124.958 20.047,124.960 20.035,124.292 19.606 C 123.902 19.355,123.688 18.982,123.815 18.775 C 123.943 18.569,123.857 18.400,123.624 18.400 C 123.391 18.400,123.200 18.670,123.200 19.000 M152.800 30.200 C 153.074 30.530,153.450 30.800,153.636 30.800 C 153.823 30.800,153.871 30.530,153.745 30.200 C 153.618 29.870,153.242 29.600,152.908 29.600 C 152.415 29.600,152.395 29.712,152.800 30.200 M170.510 37.540 L 169.621 37.800 170.525 38.222 C 171.285 38.577,171.429 38.529,171.429 37.922 C 171.429 37.525,171.422 37.218,171.414 37.240 C 171.406 37.262,171.000 37.397,170.510 37.540 M172.800 38.644 C 172.800 39.276,173.697 40.000,174.480 40.000 C 174.876 40.000,175.200 40.180,175.200 40.400 C 175.200 40.620,175.363 40.800,175.563 40.800 C 175.762 40.800,175.836 40.461,175.728 40.046 C 175.589 39.514,175.289 39.356,174.706 39.509 C 174.178 39.647,173.686 39.459,173.340 38.986 C 173.043 38.580,172.800 38.425,172.800 38.644 M185.038 44.890 C 185.170 45.270,185.787 45.834,186.409 46.145 C 187.365 46.621,187.507 46.623,187.327 46.154 C 187.210 45.849,186.839 45.600,186.501 45.600 C 186.164 45.600,185.643 45.285,185.343 44.900 C 184.836 44.249,184.815 44.248,185.038 44.890 M197.518 51.528 C 196.925 51.765,196.957 51.857,197.764 52.237 C 198.574 52.618,198.668 52.580,198.499 51.937 C 198.393 51.532,198.283 51.213,198.253 51.228 C 198.224 51.244,197.893 51.379,197.518 51.528 M206.400 57.426 C 206.400 57.490,206.926 57.804,207.570 58.125 C 208.458 58.568,208.693 58.585,208.543 58.196 C 208.380 57.771,206.400 57.060,206.400 57.426 M214.636 62.458 C 214.752 62.646,215.092 62.800,215.390 62.800 C 215.689 62.800,216.024 63.025,216.135 63.300 C 216.263 63.617,216.348 63.561,216.368 63.147 C 216.387 62.757,216.002 62.417,215.412 62.304 C 214.869 62.201,214.519 62.270,214.636 62.458 M220.224 66.187 C 220.651 66.510,221.210 66.780,221.467 66.787 C 221.723 66.794,222.024 67.025,222.135 67.300 C 222.256 67.599,222.350 67.518,222.368 67.100 C 222.388 66.663,222.108 66.400,221.624 66.400 C 221.197 66.400,220.736 66.220,220.600 66.000 C 220.464 65.780,220.149 65.600,219.900 65.600 C 219.651 65.600,219.796 65.864,220.224 66.187 M223.132 68.057 C 223.691 68.800,225.200 69.315,225.200 68.763 C 225.200 68.563,224.876 68.400,224.480 68.400 C 224.084 68.400,223.508 68.175,223.199 67.900 C 222.727 67.479,222.717 67.504,223.132 68.057 M226.224 70.187 C 226.651 70.510,227.270 70.779,227.600 70.785 C 227.930 70.790,227.684 70.526,227.054 70.198 C 225.595 69.437,225.225 69.432,226.224 70.187 M229.168 72.100 C 229.460 72.485,229.931 72.800,230.216 72.800 C 230.500 72.800,230.804 73.012,230.890 73.271 C 230.977 73.530,231.262 73.609,231.524 73.447 C 232.361 72.930,232.036 72.400,230.880 72.400 C 230.264 72.400,229.508 72.175,229.199 71.900 C 228.722 71.475,228.718 71.504,229.168 72.100 M234.655 75.800 C 234.782 76.130,235.136 76.400,235.443 76.400 C 235.749 76.400,236.000 76.130,236.000 75.800 C 236.000 75.470,235.646 75.200,235.213 75.200 C 234.677 75.200,234.499 75.392,234.655 75.800 M241.436 81.258 C 241.552 81.446,241.842 81.600,242.080 81.600 C 242.317 81.600,242.748 81.915,243.036 82.300 C 243.516 82.942,243.542 82.928,243.344 82.140 C 243.219 81.643,242.725 81.202,242.176 81.097 C 241.652 80.997,241.319 81.070,241.436 81.258 M246.900 84.920 C 247.505 85.159,248.000 85.579,248.000 85.854 C 248.000 86.128,248.163 86.454,248.363 86.577 C 248.562 86.700,248.628 86.427,248.508 85.970 C 248.318 85.241,246.852 84.322,246.074 84.443 C 245.923 84.466,246.295 84.681,246.900 84.920 M250.800 88.426 C 251.350 88.866,252.201 89.595,252.691 90.046 L 253.581 90.866 253.152 89.633 C 252.832 88.717,252.475 88.400,251.761 88.400 C 251.232 88.400,250.800 88.220,250.800 88.000 C 250.800 87.780,250.575 87.606,250.300 87.613 C 250.025 87.621,250.250 87.986,250.800 88.426 M255.600 92.435 C 256.150 92.879,256.917 93.503,257.305 93.821 C 258.212 94.567,258.800 94.558,258.800 93.800 C 258.800 93.440,258.431 93.200,257.875 93.200 C 257.367 93.200,256.564 92.840,256.092 92.400 C 255.620 91.960,255.091 91.606,254.917 91.613 C 254.743 91.621,255.050 91.990,255.600 92.435 M264.500 99.903 C 265.105 100.278,265.600 100.724,265.600 100.893 C 265.600 101.062,265.870 101.200,266.200 101.200 C 266.971 101.200,266.956 100.991,266.111 100.005 C 265.732 99.562,264.967 99.205,264.411 99.211 L 263.400 99.221 264.500 99.903 M270.888 105.813 C 271.486 106.443,272.047 106.877,272.135 106.779 C 272.223 106.680,271.733 106.165,271.047 105.634 L 269.800 104.669 270.888 105.813 M277.039 111.400 C 278.755 113.050,280.272 114.400,280.412 114.400 C 280.551 114.400,280.906 114.850,281.200 115.400 C 281.494 115.950,281.898 116.400,282.096 116.400 C 282.595 116.400,283.600 117.450,283.600 117.971 C 283.600 118.207,283.793 118.400,284.029 118.400 C 284.495 118.400,285.600 119.385,285.600 119.800 C 285.600 120.215,286.705 121.200,287.171 121.200 C 287.407 121.200,287.600 121.369,287.600 121.576 C 287.600 121.784,288.500 122.892,289.600 124.039 C 290.700 125.186,291.600 125.917,291.600 125.662 C 291.600 125.408,291.420 125.200,291.200 125.200 C 290.980 125.200,290.800 124.750,290.800 124.200 C 290.800 123.578,290.573 123.200,290.200 123.200 C 289.870 123.200,289.600 123.007,289.600 122.771 C 289.600 122.218,288.582 121.200,288.029 121.200 C 287.793 121.200,287.600 121.007,287.600 120.771 C 287.600 120.250,286.595 119.200,286.096 119.200 C 285.898 119.200,285.494 118.750,285.200 118.200 C 284.906 117.650,284.425 117.200,284.132 117.200 C 283.840 117.200,283.600 117.007,283.600 116.771 C 283.600 116.250,282.595 115.200,282.096 115.200 C 281.898 115.200,281.494 114.750,281.200 114.200 C 280.906 113.650,280.415 113.200,280.109 113.200 C 279.803 113.200,279.664 113.020,279.800 112.800 C 279.936 112.580,279.767 112.400,279.424 112.400 C 279.081 112.400,278.800 112.130,278.800 111.800 C 278.800 111.470,278.519 111.200,278.176 111.200 C 277.833 111.200,277.664 111.020,277.800 110.800 C 277.936 110.580,277.767 110.400,277.424 110.400 C 277.081 110.400,276.800 110.130,276.800 109.800 C 276.800 109.427,276.422 109.200,275.800 109.200 C 275.250 109.200,274.800 109.020,274.800 108.800 C 274.800 108.580,274.602 108.400,274.360 108.400 C 274.118 108.400,275.324 109.750,277.039 111.400 M298.800 133.800 C 298.800 134.130,298.938 134.400,299.107 134.400 C 299.276 134.400,299.722 134.895,300.097 135.500 L 300.779 136.600 300.789 135.589 C 300.795 135.033,300.438 134.268,299.995 133.889 C 299.009 133.044,298.800 133.029,298.800 133.800 M305.600 141.595 C 305.600 141.813,305.858 142.308,306.172 142.695 C 308.451 145.501,308.909 146.000,309.209 146.000 C 309.394 146.000,308.928 145.345,308.173 144.544 C 307.408 143.733,306.800 142.670,306.800 142.144 C 306.800 141.572,306.564 141.200,306.200 141.200 C 305.870 141.200,305.600 141.378,305.600 141.595 M310.400 147.617 C 310.400 147.847,310.850 148.520,311.400 149.113 C 311.950 149.707,312.400 149.969,312.400 149.696 C 312.400 149.423,312.220 149.200,312.000 149.200 C 311.780 149.200,311.600 148.750,311.600 148.200 C 311.600 147.578,311.373 147.200,311.000 147.200 C 310.670 147.200,310.400 147.388,310.400 147.617 M313.403 151.605 C 313.537 151.822,313.872 152.000,314.146 152.000 C 314.421 152.000,314.841 152.495,315.080 153.100 C 315.458 154.055,315.520 154.088,315.557 153.349 C 315.602 152.463,315.104 151.904,313.879 151.467 C 313.450 151.313,313.257 151.369,313.403 151.605 M317.600 156.567 C 317.600 156.915,317.885 157.200,318.233 157.200 C 318.940 157.200,318.817 156.339,318.075 156.092 C 317.814 156.005,317.600 156.218,317.600 156.567 M320.806 160.500 C 320.820 161.642,321.588 162.226,321.594 161.100 C 321.597 160.495,321.420 160.000,321.200 160.000 C 320.980 160.000,320.803 160.225,320.806 160.500 M323.600 164.600 C 323.600 164.930,323.870 165.200,324.200 165.200 C 324.530 165.200,324.800 164.930,324.800 164.600 C 324.800 164.270,324.530 164.000,324.200 164.000 C 323.870 164.000,323.600 164.270,323.600 164.600 M326.572 168.445 C 326.421 168.689,326.469 169.004,326.678 169.145 C 326.887 169.285,327.175 169.715,327.317 170.100 C 327.459 170.485,327.896 170.779,328.287 170.754 C 328.955 170.710,328.956 170.696,328.300 170.524 C 327.834 170.403,327.600 169.949,327.600 169.171 C 327.600 167.990,327.080 167.623,326.572 168.445 M328.687 171.446 C 328.275 171.858,329.648 173.603,330.346 173.554 C 330.902 173.514,330.895 173.480,330.300 173.324 C 329.876 173.213,329.600 172.759,329.600 172.171 C 329.600 171.239,329.207 170.927,328.687 171.446 M330.983 175.100 C 331.131 175.705,331.510 176.426,331.825 176.701 C 332.197 177.028,332.258 177.035,331.999 176.721 C 331.779 176.457,331.600 175.736,331.600 175.120 C 331.600 174.504,331.400 174.000,331.157 174.000 C 330.874 174.000,330.811 174.399,330.983 175.100 M332.700 177.865 C 332.975 177.976,333.205 178.277,333.211 178.533 C 333.226 179.143,335.600 182.282,335.600 181.692 C 335.600 181.444,335.150 180.756,334.600 180.162 C 334.050 179.569,333.600 178.749,333.600 178.342 C 333.600 177.890,333.326 177.612,332.900 177.632 C 332.482 177.650,332.401 177.744,332.700 177.865 M336.629 183.906 C 336.865 184.068,337.175 184.515,337.317 184.900 C 337.459 185.285,337.896 185.579,338.287 185.554 C 338.955 185.510,338.956 185.496,338.300 185.324 C 337.915 185.224,337.600 184.795,337.600 184.371 C 337.600 183.901,337.327 183.602,336.900 183.606 C 336.478 183.610,336.371 183.729,336.629 183.906 M338.400 186.600 C 338.400 186.967,338.594 187.202,338.830 187.123 C 339.067 187.044,339.260 186.809,339.260 186.600 C 339.260 186.391,339.067 186.156,338.830 186.077 C 338.594 185.998,338.400 186.233,338.400 186.600 M343.215 194.400 C 343.221 194.730,343.490 195.349,343.813 195.776 C 344.568 196.775,344.563 196.405,343.802 194.946 C 343.474 194.316,343.210 194.070,343.215 194.400 M347.200 201.637 C 347.200 201.837,347.367 202.000,347.571 202.000 C 347.775 202.000,348.007 202.315,348.087 202.700 C 348.208 203.283,348.272 203.255,348.470 202.535 C 348.643 201.902,348.504 201.616,347.954 201.472 C 347.539 201.364,347.200 201.438,347.200 201.637 M351.328 208.595 C 351.375 209.062,351.738 209.425,352.205 209.472 C 352.781 209.532,352.814 209.499,352.325 209.352 C 351.953 209.242,351.558 208.847,351.448 208.475 C 351.301 207.986,351.268 208.019,351.328 208.595 M353.939 213.693 C 354.324 214.382,354.900 215.014,355.219 215.096 C 355.574 215.188,355.528 215.074,355.100 214.803 C 354.715 214.560,354.400 214.028,354.400 213.623 C 354.400 213.217,354.139 212.785,353.819 212.663 C 353.356 212.485,353.381 212.694,353.939 213.693 M359.500 224.491 C 359.728 224.771,360.002 225.360,360.111 225.800 C 360.266 226.431,360.317 226.377,360.354 225.543 C 360.382 224.900,360.143 224.387,359.743 224.234 C 359.249 224.044,359.189 224.107,359.500 224.491 M361.490 228.891 C 361.711 229.171,361.993 229.670,362.115 230.000 C 362.266 230.410,362.347 230.328,362.368 229.743 C 362.386 229.271,362.105 228.772,361.743 228.634 C 361.252 228.445,361.188 228.510,361.490 228.891 M371.500 251.691 C 371.728 251.971,372.002 252.560,372.111 253.000 C 372.266 253.631,372.317 253.577,372.354 252.743 C 372.382 252.100,372.143 251.587,371.743 251.434 C 371.249 251.244,371.189 251.307,371.500 251.691 M385.292 292.875 C 385.491 293.473,386.400 293.802,386.400 293.276 C 386.400 293.061,386.115 292.776,385.767 292.643 C 385.377 292.493,385.194 292.582,385.292 292.875 M388.400 304.800 C 388.400 305.020,388.670 305.200,389.000 305.200 C 389.330 305.200,389.600 305.020,389.600 304.800 C 389.600 304.580,389.330 304.400,389.000 304.400 C 388.670 304.400,388.400 304.580,388.400 304.800 M392.400 323.200 C 392.400 323.420,392.670 323.600,393.000 323.600 C 393.330 323.600,393.600 323.420,393.600 323.200 C 393.600 322.980,393.330 322.800,393.000 322.800 C 392.670 322.800,392.400 322.980,392.400 323.200 M393.292 327.675 C 393.491 328.273,394.400 328.602,394.400 328.076 C 394.400 327.861,394.115 327.576,393.767 327.443 C 393.377 327.293,393.194 327.382,393.292 327.675 M394.400 334.200 C 394.400 334.530,394.670 334.800,395.000 334.800 C 395.330 334.800,395.600 334.530,395.600 334.200 C 395.600 333.870,395.330 333.600,395.000 333.600 C 394.670 333.600,394.400 333.870,394.400 334.200 M395.271 340.268 C 395.342 340.634,395.625 341.009,395.900 341.100 C 396.635 341.345,396.510 340.128,395.771 339.844 C 395.332 339.676,395.181 339.804,395.271 340.268 M396.400 347.200 C 396.400 347.420,396.670 347.600,397.000 347.600 C 397.330 347.600,397.600 347.420,397.600 347.200 C 397.600 346.980,397.330 346.800,397.000 346.800 C 396.670 346.800,396.400 346.980,396.400 347.200 M397.328 355.369 C 397.402 356.569,398.400 357.374,398.400 356.233 C 398.400 355.885,398.233 355.600,398.029 355.600 C 397.825 355.600,397.568 355.285,397.458 354.900 C 397.347 354.515,397.289 354.726,397.328 355.369 M398.101 363.400 C 398.105 364.280,398.187 364.593,398.283 364.095 C 398.379 363.598,398.375 362.878,398.275 362.495 C 398.175 362.113,398.096 362.520,398.101 363.400 M398.400 366.000 C 398.400 366.444,398.667 366.800,399.000 366.800 C 399.333 366.800,399.600 366.444,399.600 366.000 C 399.600 365.556,399.333 365.200,399.000 365.200 C 398.667 365.200,398.400 365.556,398.400 366.000 M399.268 381.000 C 399.262 381.880,399.411 382.960,399.600 383.400 C 400.061 384.473,400.061 381.840,399.600 380.400 C 399.325 379.541,399.278 379.625,399.268 381.000 " stroke="none" fill="#8c94bc" fill-rule="evenodd"></path><path id="path4" d="M17.400 0.400 C 17.536 0.620,18.042 0.797,18.524 0.794 C 19.236 0.789,19.288 0.715,18.800 0.400 C 18.012 -0.109,17.085 -0.109,17.400 0.400 M33.600 1.000 C 33.600 1.330,33.780 1.600,34.000 1.600 C 34.220 1.600,34.400 1.330,34.400 1.000 C 34.400 0.670,34.220 0.400,34.000 0.400 C 33.780 0.400,33.600 0.670,33.600 1.000 M25.505 1.083 C 26.002 1.179,26.722 1.175,27.105 1.075 C 27.487 0.975,27.080 0.896,26.200 0.901 C 25.320 0.905,25.007 0.987,25.505 1.083 M266.575 101.832 C 266.923 102.180,267.431 102.374,267.704 102.264 C 268.081 102.111,268.075 102.056,267.676 102.032 C 267.388 102.014,267.264 101.820,267.400 101.600 C 267.536 101.380,267.264 101.200,266.795 101.200 C 266.018 101.200,265.999 101.256,266.575 101.832 M297.600 132.429 C 297.600 132.664,297.870 133.127,298.200 133.457 C 298.733 133.990,298.800 133.943,298.800 133.029 C 298.800 132.381,298.578 132.000,298.200 132.000 C 297.870 132.000,297.600 132.193,297.600 132.429 M309.600 146.567 C 309.600 146.915,309.885 147.200,310.233 147.200 C 310.940 147.200,310.817 146.339,310.075 146.092 C 309.814 146.005,309.600 146.218,309.600 146.567 M349.884 206.400 C 349.999 206.840,350.141 207.200,350.200 207.200 C 350.259 207.200,350.401 206.840,350.516 206.400 C 350.647 205.900,350.528 205.600,350.200 205.600 C 349.872 205.600,349.753 205.900,349.884 206.400 M399.256 383.400 C 399.256 383.840,399.411 384.560,399.600 385.000 L 399.944 385.800 399.944 385.000 C 399.944 384.560,399.789 383.840,399.600 383.400 L 399.256 382.600 399.256 383.400 " stroke="none" fill="#848cbc" fill-rule="evenodd"></path></g></svg>