<svg id="svg" version="1.1" xmlns="http://www.w3.org/2000/svg" xmlns:xlink="http://www.w3.org/1999/xlink" width="400" height="399.50248756218906" viewBox="0, 0, 400,399.50248756218906"><g id="svgg"><path id="path0" d="M199.667 0.266 C 199.520 0.413,199.445 90.368,199.500 200.167 C 199.554 309.965,199.644 354.752,199.700 299.693 L 199.802 199.585 202.898 199.652 C 205.864 199.716,205.902 199.706,203.796 199.410 C 202.239 199.191,203.374 199.115,207.693 199.151 C 211.045 199.178,213.837 199.053,213.897 198.871 C 214.076 198.329,218.981 198.015,218.981 198.546 C 218.981 198.796,219.161 199.001,219.381 199.001 C 219.600 199.001,219.735 198.789,219.680 198.529 C 219.612 198.207,221.159 197.900,224.575 197.560 C 227.323 197.287,230.380 196.874,231.369 196.643 C 234.737 195.856,240.667 194.961,241.188 195.161 C 241.473 195.270,241.769 195.171,241.846 194.941 C 241.923 194.710,243.778 194.106,245.968 193.598 C 252.296 192.130,262.934 189.049,265.135 188.047 C 265.794 187.747,266.783 187.375,267.333 187.221 C 268.822 186.803,273.304 185.085,275.125 184.233 C 276.004 183.823,277.856 183.015,279.241 182.439 C 280.626 181.863,283.090 180.768,284.717 180.006 C 286.344 179.245,287.863 178.621,288.093 178.621 C 288.323 178.621,288.511 178.459,288.511 178.261 C 288.511 178.063,289.006 177.728,289.610 177.517 C 290.215 177.307,292.777 175.967,295.305 174.541 C 297.832 173.115,300.519 171.607,301.275 171.189 C 302.032 170.771,302.841 170.298,303.073 170.137 C 303.306 169.976,306.014 168.182,309.091 166.149 C 312.168 164.116,315.854 161.584,317.283 160.523 C 318.711 159.461,320.412 158.199,321.062 157.718 C 327.840 152.699,338.559 142.781,346.838 133.866 C 351.621 128.716,359.599 118.631,363.437 112.883 C 364.316 111.567,365.138 110.400,365.265 110.290 C 365.391 110.180,365.835 109.505,366.250 108.791 C 366.666 108.077,367.147 107.493,367.319 107.493 C 367.491 107.493,367.632 107.328,367.632 107.127 C 367.632 106.927,369.165 104.184,371.038 101.034 C 375.369 93.747,380.284 83.842,383.596 75.724 C 384.313 73.966,385.137 71.988,385.426 71.329 C 385.716 70.669,386.260 69.141,386.635 67.932 C 387.011 66.723,387.458 65.554,387.630 65.335 C 387.801 65.115,388.242 63.766,388.611 62.338 C 388.980 60.909,389.421 59.560,389.592 59.341 C 389.762 59.121,390.224 57.592,390.619 55.944 C 391.013 54.296,391.478 52.677,391.651 52.348 C 391.824 52.018,392.255 50.310,392.607 48.551 C 392.960 46.793,393.408 44.995,393.603 44.555 C 393.923 43.834,394.715 39.607,396.225 30.569 C 396.519 28.811,396.769 26.698,396.781 25.874 C 396.793 25.050,396.943 24.376,397.113 24.376 C 397.284 24.376,397.355 23.655,397.271 22.773 C 397.076 20.733,397.479 19.057,398.075 19.426 C 398.380 19.614,398.411 19.523,398.172 19.143 C 397.782 18.522,397.926 13.845,398.340 13.687 C 398.484 13.632,398.548 10.530,398.483 6.794 L 398.365 0.000 299.149 0.000 C 244.581 0.000,199.814 0.120,199.667 0.266 M184.922 0.689 C 185.640 0.778,186.719 0.776,187.320 0.685 C 187.920 0.594,187.333 0.521,186.014 0.523 C 184.695 0.526,184.204 0.600,184.922 0.689 M180.519 1.081 C 181.014 1.176,181.823 1.176,182.318 1.081 C 182.812 0.986,182.408 0.908,181.419 0.908 C 180.430 0.908,180.025 0.986,180.519 1.081 M57.332 59.640 L 54.545 62.537 57.443 59.751 C 60.133 57.163,60.522 56.743,60.229 56.743 C 60.168 56.743,58.865 58.047,57.332 59.640 M0.908 181.019 C 0.908 182.008,0.986 182.413,1.081 181.918 C 1.176 181.424,1.176 180.614,1.081 180.120 C 0.986 179.625,0.908 180.030,0.908 181.019 M0.514 185.215 C 0.517 186.314,0.594 186.716,0.686 186.108 C 0.778 185.501,0.776 184.602,0.681 184.110 C 0.586 183.619,0.511 184.116,0.514 185.215 M0.000 299.643 L 0.000 399.201 99.124 399.201 C 211.380 399.201,199.198 399.632,195.105 395.803 C 193.951 394.724,193.007 393.690,193.007 393.506 C 193.007 393.323,149.580 349.728,96.503 296.628 L 0.000 200.085 0.000 299.643 M332.068 250.275 C 332.068 250.344,332.652 250.928,333.367 251.574 L 334.665 252.747 333.492 251.449 C 332.398 250.238,332.068 249.966,332.068 250.275 M398.464 392.607 C 398.455 393.047,398.596 394.126,398.778 395.005 L 399.109 396.603 399.115 395.205 C 399.118 394.436,398.977 393.357,398.801 392.807 C 398.542 391.999,398.478 391.961,398.464 392.607 " stroke="none" fill="#445cb4" fill-rule="evenodd"></path><path id="path1" d="M192.607 0.263 C 191.838 0.337,187.612 0.681,183.217 1.027 C 178.821 1.373,174.146 1.811,172.827 2.000 C 168.702 2.591,158.123 4.422,157.847 4.592 C 157.702 4.682,156.248 5.029,154.616 5.364 C 150.022 6.306,137.283 9.893,135.265 10.812 C 134.825 11.013,132.488 11.878,130.070 12.736 C 127.652 13.594,125.045 14.579,124.276 14.924 C 123.506 15.269,121.528 16.117,119.880 16.809 C 113.702 19.403,101.241 25.837,96.233 29.020 C 66.533 47.893,45.238 69.352,28.274 97.502 C 20.855 109.815,13.635 125.897,9.168 140.060 C 7.558 145.166,4.286 158.581,3.565 163.037 C 3.333 164.466,2.887 166.983,2.574 168.631 C 1.901 172.170,0.524 186.611,0.144 194.115 L -0.123 199.401 99.637 199.401 L 199.397 199.401 199.499 99.700 L 199.600 -0.000 196.803 0.064 C 195.265 0.099,193.377 0.189,192.607 0.263 M199.800 299.459 L 199.800 399.602 299.401 399.501 L 399.001 399.401 398.897 397.602 C 398.840 396.613,398.723 393.287,398.637 390.210 C 398.551 387.133,398.351 384.293,398.192 383.899 C 398.033 383.505,397.989 382.298,398.093 381.215 C 398.197 380.133,398.130 379.196,397.943 379.134 C 397.757 379.072,397.493 377.762,397.356 376.224 C 397.219 374.685,397.059 372.887,397.000 372.228 C 396.941 371.568,396.763 370.711,396.603 370.323 C 396.444 369.935,396.398 369.170,396.503 368.625 C 396.607 368.079,396.563 367.632,396.404 367.632 C 396.246 367.632,395.991 366.598,395.840 365.335 C 395.480 362.345,395.409 361.973,395.034 361.139 C 394.861 360.754,394.823 360.170,394.950 359.840 C 395.076 359.510,394.985 359.241,394.747 359.241 C 394.494 359.241,394.388 358.744,394.491 358.042 C 394.588 357.383,394.539 356.843,394.382 356.843 C 394.226 356.843,393.975 355.857,393.824 354.652 C 393.674 353.446,393.404 352.370,393.225 352.259 C 393.046 352.148,392.673 350.842,392.395 349.356 C 392.118 347.869,391.648 345.960,391.353 345.112 C 391.057 344.265,390.914 343.411,391.035 343.214 C 391.157 343.018,391.108 342.857,390.928 342.857 C 390.574 342.857,388.975 337.791,389.066 336.963 C 389.097 336.688,388.962 336.464,388.767 336.464 C 388.571 336.464,388.412 336.182,388.412 335.838 C 388.412 335.494,388.061 334.371,387.633 333.341 C 387.205 332.311,386.141 329.580,385.267 327.273 C 381.370 316.978,377.137 308.222,370.609 296.957 C 359.127 277.139,338.380 254.106,319.081 239.748 C 317.762 238.767,316.593 237.858,316.484 237.728 C 315.237 236.252,290.204 220.979,289.032 220.979 C 288.915 220.979,286.784 219.990,284.298 218.781 C 281.812 217.572,279.680 216.583,279.559 216.583 C 279.439 216.583,278.163 216.044,276.723 215.385 C 275.284 214.725,273.975 214.185,273.816 214.183 C 273.657 214.182,273.065 213.940,272.502 213.646 C 271.938 213.352,269.241 212.354,266.508 211.428 C 263.775 210.502,261.179 209.581,260.739 209.382 C 260.300 209.182,258.799 208.733,257.403 208.384 C 256.008 208.035,254.570 207.597,254.207 207.411 C 253.324 206.957,245.384 205.013,242.258 204.485 C 240.884 204.253,239.760 203.919,239.760 203.743 C 239.760 203.566,239.524 203.512,239.235 203.623 C 238.946 203.734,237.650 203.549,236.354 203.211 C 235.058 202.874,233.406 202.597,232.683 202.597 C 231.960 202.597,231.369 202.407,231.369 202.174 C 231.369 201.941,231.191 201.861,230.974 201.995 C 230.298 202.413,225.753 201.720,225.138 201.105 C 224.725 200.692,224.407 200.641,224.055 200.933 C 223.550 201.352,220.180 201.103,220.180 200.647 C 220.180 200.511,219.277 200.462,218.173 200.539 C 217.069 200.615,215.884 200.570,215.540 200.438 C 215.196 200.306,211.808 200.112,208.012 200.008 C 204.215 199.903,200.815 199.704,200.455 199.566 C 199.849 199.334,199.800 206.855,199.800 299.459 " stroke="none" fill="#242c7c" fill-rule="evenodd"></path><path id="path2" d="M0.057 94.206 C 0.089 147.294,0.257 186.406,0.442 183.816 C 1.553 168.243,4.974 151.541,10.264 135.864 C 13.113 127.423,13.934 125.248,15.769 121.279 C 16.073 120.619,16.991 118.551,17.807 116.683 C 19.131 113.653,21.992 107.994,25.215 102.027 C 34.102 85.574,48.259 67.653,63.986 52.947 C 75.523 42.158,89.623 32.005,103.696 24.351 C 107.367 22.354,118.572 16.783,118.916 16.783 C 119.124 16.783,123.670 14.892,125.674 13.972 C 127.856 12.970,136.956 9.841,143.457 7.858 C 147.618 6.588,150.693 5.818,156.563 4.575 C 159.046 4.050,161.212 3.536,161.377 3.435 C 161.651 3.265,169.335 2.113,176.594 1.152 C 178.226 0.936,181.822 0.615,184.586 0.438 C 187.365 0.260,147.250 0.090,94.805 0.058 L 0.000 0.000 0.057 94.206 M398.701 6.127 C 398.536 6.529,398.421 7.878,398.445 9.124 L 398.489 11.389 398.852 9.590 C 399.285 7.446,399.177 4.965,398.701 6.127 M398.302 15.415 C 398.137 15.582,398.002 16.083,398.002 16.530 C 398.002 17.118,398.123 17.222,398.439 16.906 C 398.679 16.665,398.814 16.164,398.739 15.791 C 398.663 15.418,398.467 15.249,398.302 15.415 M397.602 21.179 C 397.602 21.618,397.782 21.978,398.002 21.978 C 398.222 21.978,398.402 21.618,398.402 21.179 C 398.402 20.739,398.222 20.380,398.002 20.380 C 397.782 20.380,397.602 20.739,397.602 21.179 M397.003 26.374 C 396.851 27.064,396.810 27.713,396.912 27.815 C 397.014 27.916,397.212 27.425,397.353 26.723 C 397.686 25.058,397.363 24.735,397.003 26.374 M396.670 28.638 C 396.523 28.785,396.420 29.459,396.440 30.137 L 396.476 31.369 396.862 30.026 C 397.248 28.684,397.172 28.136,396.670 28.638 M396.295 31.810 C 396.135 31.970,396.004 32.377,396.004 32.714 C 396.004 33.164,396.122 33.208,396.449 32.882 C 396.693 32.638,396.824 32.231,396.740 31.978 C 396.656 31.725,396.456 31.650,396.295 31.810 M395.883 34.922 C 395.719 35.338,395.680 35.773,395.795 35.888 C 396.159 36.252,396.480 35.655,396.327 34.896 C 396.187 34.201,396.166 34.202,395.883 34.922 M394.672 40.226 C 394.525 40.373,394.417 40.867,394.431 41.325 C 394.454 42.091,394.487 42.081,394.839 41.201 C 395.230 40.222,395.149 39.749,394.672 40.226 M390.799 55.770 C 390.377 56.880,390.280 57.805,390.622 57.464 C 390.924 57.162,391.589 54.745,391.371 54.745 C 391.271 54.745,391.014 55.207,390.799 55.770 M388.314 63.736 C 388.209 64.286,388.257 64.735,388.420 64.735 C 388.584 64.735,388.804 64.286,388.909 63.736 C 389.014 63.187,388.966 62.737,388.802 62.737 C 388.639 62.737,388.419 63.187,388.314 63.736 M384.805 73.327 C 384.591 73.876,384.240 74.775,384.026 75.325 C 383.812 75.874,383.783 76.324,383.963 76.324 C 384.142 76.324,384.517 75.559,384.796 74.625 C 385.075 73.691,385.508 72.795,385.758 72.633 C 386.084 72.424,386.068 72.338,385.704 72.334 C 385.424 72.330,385.020 72.777,384.805 73.327 M379.057 86.256 C 378.546 87.082,378.057 88.737,378.383 88.535 C 378.581 88.413,378.931 87.773,379.161 87.114 C 379.560 85.968,379.507 85.528,379.057 86.256 M369.268 104.392 C 368.961 104.888,368.446 105.699,368.125 106.194 C 367.786 106.715,367.716 107.093,367.959 107.093 C 368.189 107.093,368.492 106.734,368.631 106.296 C 368.770 105.858,369.156 105.227,369.489 104.894 C 369.822 104.561,370.034 104.109,369.961 103.889 C 369.888 103.669,369.576 103.895,369.268 104.392 M366.670 108.492 C 366.310 109.041,366.171 109.491,366.360 109.491 C 366.550 109.491,366.910 109.041,367.160 108.492 C 367.410 107.942,367.550 107.493,367.470 107.493 C 367.390 107.493,367.030 107.942,366.670 108.492 M364.683 111.489 C 364.101 112.368,363.812 113.087,364.040 113.087 C 364.269 113.087,364.626 112.637,364.835 112.088 C 365.044 111.538,365.369 111.089,365.558 111.089 C 365.746 111.089,365.901 110.819,365.901 110.490 C 365.901 109.664,365.877 109.684,364.683 111.489 M358.788 119.778 C 357.355 121.507,357.146 121.878,357.603 121.878 C 357.855 121.878,358.225 121.447,358.426 120.921 C 358.626 120.395,359.026 119.880,359.315 119.777 C 359.604 119.674,359.734 119.474,359.605 119.333 C 359.475 119.192,359.107 119.392,358.788 119.778 M356.244 123.077 C 355.846 123.516,355.722 123.876,355.968 123.876 C 356.214 123.876,356.608 123.516,356.843 123.077 C 357.078 122.637,357.203 122.278,357.119 122.278 C 357.035 122.278,356.642 122.637,356.244 123.077 M352.297 127.872 C 350.825 129.630,349.762 131.057,349.935 131.043 C 350.108 131.029,350.699 130.477,351.249 129.817 C 351.798 129.157,352.697 128.111,353.247 127.492 C 354.257 126.354,355.369 124.675,355.112 124.675 C 355.035 124.675,353.768 126.114,352.297 127.872 M347.034 133.930 L 345.455 135.592 347.153 134.262 C 348.087 133.531,348.851 132.783,348.851 132.600 C 348.851 132.067,348.699 132.178,347.034 133.930 M340.253 141.142 C 337.620 143.825,335.890 145.668,336.411 145.238 C 338.217 143.744,345.559 136.264,345.218 136.264 C 345.122 136.264,342.887 138.459,340.253 141.142 M332.649 148.282 C 331.216 149.759,331.171 149.865,332.168 149.417 C 332.772 149.145,333.267 148.741,333.267 148.519 C 333.267 148.297,333.564 147.786,333.928 147.384 C 335.205 145.974,334.211 146.671,332.649 148.282 M327.473 152.689 C 324.835 154.947,322.256 157.425,324.307 155.731 C 324.764 155.354,325.328 155.045,325.560 155.045 C 325.792 155.045,326.268 154.609,326.617 154.076 C 326.966 153.543,327.571 152.995,327.961 152.857 C 328.534 152.655,330.858 150.193,330.400 150.273 C 330.328 150.285,329.011 151.373,327.473 152.689 M322.303 157.015 C 321.633 157.755,321.639 157.778,322.441 157.568 C 322.901 157.448,323.277 157.101,323.277 156.797 C 323.277 156.065,323.133 156.097,322.303 157.015 M319.780 158.875 C 318.493 159.889,318.111 160.639,318.881 160.639 C 319.101 160.639,319.281 160.373,319.281 160.048 C 319.281 159.722,319.730 159.343,320.280 159.205 C 320.829 159.067,321.279 158.704,321.279 158.398 C 321.279 157.682,321.304 157.674,319.780 158.875 M316.683 161.219 C 315.748 161.980,315.665 162.149,316.304 161.991 C 316.754 161.878,317.340 161.439,317.606 161.013 C 318.226 160.019,318.132 160.040,316.683 161.219 M311.511 164.868 C 310.863 165.342,310.843 165.435,311.389 165.435 C 311.747 165.435,312.159 165.243,312.304 165.008 C 312.728 164.323,312.348 164.256,311.511 164.868 M307.692 167.452 L 306.693 168.254 307.792 167.779 C 308.397 167.518,308.891 167.153,308.891 166.969 C 308.891 166.513,308.836 166.535,307.692 167.452 M304.496 169.431 C 303.506 170.088,302.930 170.627,303.214 170.628 C 303.497 170.629,304.116 170.270,304.588 169.830 C 305.059 169.391,305.681 169.031,305.969 169.031 C 306.258 169.031,306.494 168.851,306.494 168.631 C 306.494 168.092,306.533 168.076,304.496 169.431 M301.243 171.419 L 300.300 172.209 301.395 171.719 C 301.998 171.449,302.493 171.094,302.494 170.929 C 302.499 170.470,302.269 170.561,301.243 171.419 M285.614 179.649 C 285.010 179.977,284.515 180.326,284.515 180.424 C 284.515 180.647,286.579 179.783,287.093 179.345 C 287.719 178.811,286.817 178.997,285.614 179.649 M277.522 183.445 C 276.643 183.868,276.374 184.100,276.923 183.962 C 278.447 183.577,279.720 183.060,279.720 182.827 C 279.720 182.488,279.220 182.629,277.522 183.445 M272.328 185.628 C 271.324 186.112,271.291 186.167,272.128 185.965 C 272.677 185.833,273.298 185.565,273.506 185.370 C 274.024 184.886,273.740 184.948,272.328 185.628 M268.132 187.080 C 267.363 187.297,266.553 187.667,266.334 187.902 C 266.054 188.201,266.175 188.243,266.733 188.043 C 267.173 187.885,268.027 187.656,268.631 187.534 C 269.236 187.412,269.730 187.155,269.730 186.963 C 269.730 186.771,269.685 186.630,269.630 186.649 C 269.575 186.669,268.901 186.863,268.132 187.080 M246.154 193.806 C 245.331 194.070,245.296 194.132,245.954 194.160 C 246.394 194.178,247.023 194.019,247.353 193.806 C 248.053 193.354,247.567 193.354,246.154 193.806 M237.562 195.804 C 237.270 196.277,237.661 196.277,238.761 195.804 C 239.532 195.473,239.529 195.460,238.685 195.433 C 238.203 195.417,237.698 195.584,237.562 195.804 M234.565 196.603 C 234.565 196.823,234.835 197.003,235.165 197.003 C 235.495 197.003,235.764 196.823,235.764 196.603 C 235.764 196.384,235.495 196.204,235.165 196.204 C 234.835 196.204,234.565 196.384,234.565 196.603 M231.369 197.003 C 231.369 197.223,231.638 197.403,231.968 197.403 C 232.298 197.403,232.567 197.223,232.567 197.003 C 232.567 196.783,232.298 196.603,231.968 196.603 C 231.638 196.603,231.369 196.783,231.369 197.003 M228.372 197.403 C 228.236 197.622,228.394 197.802,228.724 197.802 C 229.054 197.802,229.435 197.622,229.570 197.403 C 229.706 197.183,229.548 197.003,229.218 197.003 C 228.888 197.003,228.507 197.183,228.372 197.403 M225.175 197.802 C 224.880 198.279,225.663 198.279,226.773 197.802 C 227.487 197.496,227.457 197.456,226.497 197.431 C 225.906 197.415,225.311 197.582,225.175 197.802 M220.180 198.601 C 220.180 198.821,220.539 199.001,220.979 199.001 C 221.419 199.001,221.778 198.821,221.778 198.601 C 221.778 198.382,221.419 198.202,220.979 198.202 C 220.539 198.202,220.180 198.382,220.180 198.601 M215.385 199.001 C 215.385 199.221,215.744 199.401,216.184 199.401 C 216.623 199.401,216.983 199.221,216.983 199.001 C 216.983 198.781,216.623 198.601,216.184 198.601 C 215.744 198.601,215.385 198.781,215.385 199.001 M206.993 199.401 C 207.323 199.614,208.132 199.788,208.791 199.788 C 209.451 199.788,210.260 199.614,210.589 199.401 C 211.013 199.127,210.485 199.013,208.791 199.013 C 207.097 199.013,206.570 199.127,206.993 199.401 M96.417 296.347 C 149.431 349.448,194.289 394.448,196.099 396.347 L 199.391 399.800 199.396 299.800 L 199.401 199.800 99.713 199.800 L 0.026 199.800 96.417 296.347 M211.693 200.083 C 212.190 200.178,212.909 200.175,213.291 200.075 C 213.673 199.975,213.267 199.897,212.388 199.901 C 211.508 199.905,211.196 199.987,211.693 200.083 M216.783 200.200 C 216.919 200.420,217.300 200.599,217.630 200.599 C 217.959 200.599,218.118 200.420,217.982 200.200 C 217.846 199.980,217.465 199.800,217.136 199.800 C 216.806 199.800,216.647 199.980,216.783 200.200 M221.379 200.599 C 221.379 200.819,221.648 200.999,221.978 200.999 C 222.308 200.999,222.577 200.819,222.577 200.599 C 222.577 200.380,222.308 200.200,221.978 200.200 C 221.648 200.200,221.379 200.380,221.379 200.599 M316.506 237.263 C 316.531 237.606,318.881 239.532,318.881 239.209 C 318.881 238.951,316.920 236.963,316.665 236.963 C 316.565 236.963,316.493 237.098,316.506 237.263 M329.863 248.141 C 330.280 248.815,332.468 250.217,332.259 249.676 C 332.147 249.387,331.510 248.840,330.844 248.459 C 330.178 248.079,329.737 247.936,329.863 248.141 M340.260 257.742 C 342.449 259.940,344.406 261.738,344.608 261.738 C 344.810 261.738,343.195 259.943,341.019 257.749 C 338.843 255.555,336.886 253.757,336.671 253.753 C 336.455 253.749,338.070 255.544,340.260 257.742 M348.805 266.847 C 349.009 267.229,349.569 267.896,350.048 268.330 L 350.920 269.119 350.185 267.832 C 349.410 266.475,348.108 265.545,348.805 266.847 M359.208 279.674 C 360.244 281.129,360.444 281.221,360.152 280.107 C 360.036 279.661,359.576 279.100,359.131 278.862 C 358.359 278.449,358.362 278.487,359.208 279.674 M363.242 285.324 C 363.737 286.250,364.036 286.338,364.036 285.557 C 364.036 285.251,363.762 284.895,363.427 284.767 C 362.931 284.576,362.897 284.679,363.242 285.324 M398.002 381.771 C 398.002 382.101,398.182 382.482,398.402 382.617 C 398.621 382.753,398.801 382.595,398.801 382.265 C 398.801 381.935,398.621 381.554,398.402 381.419 C 398.182 381.283,398.002 381.441,398.002 381.771 M398.449 387.646 C 398.475 388.616,398.643 389.950,398.822 390.609 C 399.028 391.366,399.066 390.775,398.926 389.011 C 398.673 385.835,398.378 384.991,398.449 387.646 " stroke="none" fill="#8c94d3" fill-rule="evenodd"></path><path id="path3" d="M398.653 10.666 C 398.503 11.756,398.564 12.710,398.798 12.944 C 399.069 13.214,399.201 12.598,399.201 11.069 C 399.201 8.302,398.997 8.152,398.653 10.666 M398.268 17.050 C 397.850 17.468,397.957 19.181,398.402 19.181 C 398.621 19.181,398.801 18.641,398.801 17.982 C 398.801 16.741,398.720 16.598,398.268 17.050 M397.602 22.977 C 397.602 23.526,397.782 23.976,398.002 23.976 C 398.222 23.976,398.402 23.526,398.402 22.977 C 398.402 22.428,398.222 21.978,398.002 21.978 C 397.782 21.978,397.602 22.428,397.602 22.977 M396.138 33.393 C 396.006 33.738,396.102 34.223,396.351 34.472 C 396.688 34.810,396.803 34.650,396.803 33.846 C 396.803 32.644,396.504 32.440,396.138 33.393 M395.604 36.563 C 395.604 36.893,395.784 37.163,396.004 37.163 C 396.224 37.163,396.404 36.893,396.404 36.563 C 396.404 36.234,396.224 35.964,396.004 35.964 C 395.784 35.964,395.604 36.234,395.604 36.563 M391.608 53.746 C 391.608 54.076,391.788 54.346,392.008 54.346 C 392.228 54.346,392.408 54.076,392.408 53.746 C 392.408 53.417,392.228 53.147,392.008 53.147 C 391.788 53.147,391.608 53.417,391.608 53.746 M390.010 58.941 C 390.010 59.271,390.190 59.540,390.410 59.540 C 390.629 59.540,390.809 59.271,390.809 58.941 C 390.809 58.611,390.629 58.342,390.410 58.342 C 390.190 58.342,390.010 58.611,390.010 58.941 M389.610 60.539 C 389.610 60.869,389.790 61.139,390.010 61.139 C 390.230 61.139,390.410 60.869,390.410 60.539 C 390.410 60.210,390.230 59.940,390.010 59.940 C 389.790 59.940,389.610 60.210,389.610 60.539 M385.215 73.094 C 385.215 73.296,385.090 73.791,384.937 74.193 C 384.678 74.879,384.703 74.883,385.337 74.254 C 386.088 73.510,386.230 72.727,385.614 72.727 C 385.395 72.727,385.215 72.892,385.215 73.094 M383.479 77.205 C 383.352 77.690,383.341 78.180,383.454 78.293 C 383.713 78.551,384.401 77.492,384.409 76.823 C 384.420 75.983,383.724 76.268,383.479 77.205 M379.243 86.862 C 378.804 87.885,378.456 88.834,378.468 88.971 C 378.480 89.109,378.327 89.331,378.128 89.466 C 377.624 89.807,375.890 93.506,376.124 93.740 C 376.230 93.845,376.542 93.386,376.818 92.720 C 377.094 92.054,377.442 91.508,377.592 91.508 C 377.742 91.508,378.187 90.609,378.583 89.510 C 378.978 88.412,379.443 87.512,379.617 87.512 C 379.997 87.512,380.547 85.509,380.249 85.211 C 380.134 85.096,379.681 85.839,379.243 86.862 M373.299 98.102 C 373.049 98.651,372.918 99.101,373.007 99.101 C 373.325 99.101,374.426 97.839,374.426 97.474 C 374.426 96.743,373.746 97.122,373.299 98.102 M371.884 100.712 C 371.499 101.364,371.345 101.898,371.542 101.898 C 371.911 101.898,372.963 99.903,372.721 99.661 C 372.647 99.586,372.270 100.059,371.884 100.712 M367.305 108.092 C 367.055 108.641,366.924 109.091,367.013 109.091 C 367.331 109.091,368.432 107.829,368.432 107.464 C 368.432 106.733,367.752 107.112,367.305 108.092 M365.877 110.123 C 365.727 110.512,365.817 110.695,366.109 110.598 C 366.706 110.399,367.035 109.491,366.510 109.491 C 366.295 109.491,366.010 109.775,365.877 110.123 M363.053 114.386 C 362.638 115.100,362.193 115.774,362.066 115.884 C 361.486 116.383,359.640 119.067,359.640 119.411 C 359.640 119.622,359.371 119.898,359.041 120.025 C 358.711 120.151,358.442 120.434,358.442 120.654 C 358.442 121.524,359.520 120.565,360.445 118.871 C 360.982 117.888,361.556 117.083,361.720 117.083 C 361.883 117.083,362.316 116.499,362.681 115.784 C 363.046 115.070,363.590 114.342,363.890 114.166 C 364.190 113.990,364.436 113.676,364.436 113.467 C 364.436 112.693,363.787 113.125,363.053 114.386 M357.085 122.511 C 356.936 122.900,357.025 123.083,357.317 122.985 C 357.915 122.786,358.244 121.878,357.718 121.878 C 357.504 121.878,357.219 122.163,357.085 122.511 M355.091 124.861 C 354.183 126.247,354.287 126.406,355.445 125.400 C 356.459 124.518,356.731 123.876,356.090 123.876 C 355.895 123.876,355.446 124.319,355.091 124.861 M353.172 127.370 C 352.011 128.721,351.870 129.189,352.798 128.610 C 353.600 128.109,354.221 127.115,353.920 126.813 C 353.840 126.734,353.503 126.984,353.172 127.370 M349.883 131.080 C 349.242 131.733,348.833 132.382,348.973 132.522 C 349.193 132.743,351.648 130.454,351.648 130.028 C 351.648 129.587,350.927 130.017,349.883 131.080 M345.386 136.127 C 343.465 138.377,337.709 144.098,334.667 146.780 C 333.788 147.554,333.197 148.315,333.352 148.470 C 333.609 148.727,348.052 134.596,348.052 134.087 C 348.052 133.395,347.087 134.133,345.386 136.127 M330.165 150.817 C 329.345 151.569,328.790 152.300,328.932 152.442 C 329.166 152.676,332.068 150.080,332.068 149.637 C 332.068 149.218,331.582 149.519,330.165 150.817 M327.362 153.269 C 326.502 153.872,326.162 154.658,326.773 154.633 C 327.057 154.621,328.653 152.647,328.379 152.647 C 328.308 152.647,327.850 152.927,327.362 153.269 M324.119 155.867 C 323.594 156.305,323.276 156.776,323.414 156.914 C 323.552 157.051,324.141 156.687,324.724 156.105 C 325.957 154.871,325.521 154.700,324.119 155.867 M315.047 162.872 L 313.886 163.907 315.185 163.262 C 315.899 162.907,316.484 162.442,316.484 162.228 C 316.484 161.660,316.332 161.728,315.047 162.872 M312.887 164.236 C 312.570 164.432,312.444 164.725,312.606 164.887 C 312.768 165.049,313.110 164.972,313.367 164.715 C 313.970 164.112,313.633 163.775,312.887 164.236 M308.908 167.019 C 308.407 167.453,307.659 167.916,307.245 168.047 C 306.832 168.178,306.494 168.453,306.494 168.658 C 306.494 169.231,307.085 169.103,307.997 168.332 C 308.452 167.947,309.153 167.429,309.557 167.180 C 309.960 166.931,310.184 166.615,310.054 166.478 C 309.924 166.341,309.409 166.584,308.908 167.019 M304.724 169.639 C 304.301 169.959,304.034 170.301,304.131 170.398 C 304.228 170.495,304.755 170.231,305.301 169.812 C 305.847 169.392,306.114 169.050,305.894 169.053 C 305.674 169.055,305.148 169.319,304.724 169.639 M300.728 172.037 C 299.868 172.688,300.047 173.176,301.011 172.806 C 301.653 172.559,302.301 171.418,301.786 171.441 C 301.628 171.448,301.152 171.716,300.728 172.037 M297.603 173.763 C 296.495 174.431,296.166 175.025,296.903 175.025 C 297.123 175.025,297.303 174.863,297.303 174.664 C 297.303 174.466,297.842 174.116,298.501 173.886 C 299.161 173.656,299.700 173.369,299.700 173.248 C 299.700 172.848,298.720 173.089,297.603 173.763 M292.008 176.900 C 290.965 177.481,290.168 178.014,290.239 178.085 C 290.523 178.369,293.675 176.882,293.871 176.372 C 294.134 175.685,294.252 175.651,292.008 176.900 M288.523 178.606 C 288.200 178.810,288.039 179.081,288.166 179.208 C 288.481 179.523,289.710 179.022,289.710 178.579 C 289.710 178.123,289.270 178.133,288.523 178.606 M285.614 180.058 C 284.570 180.582,283.716 181.103,283.716 181.215 C 283.716 181.634,284.878 181.398,285.405 180.872 C 285.705 180.571,286.348 180.199,286.832 180.046 C 287.316 179.892,287.712 179.599,287.712 179.394 C 287.712 179.189,287.667 179.040,287.612 179.063 C 287.557 179.086,286.658 179.534,285.614 180.058 M280.519 182.641 C 280.519 182.874,280.352 182.961,280.147 182.834 C 279.943 182.708,279.663 182.787,279.525 183.010 C 279.242 183.467,279.740 183.537,280.687 183.174 C 281.384 182.906,281.551 182.218,280.919 182.218 C 280.699 182.218,280.519 182.408,280.519 182.641 M276.424 184.092 C 276.039 184.192,275.724 184.441,275.724 184.645 C 275.724 185.210,276.509 185.086,277.180 184.416 C 277.787 183.808,277.681 183.763,276.424 184.092 M274.759 184.915 C 274.594 185.080,274.339 185.231,274.192 185.250 C 273.585 185.331,271.963 186.165,272.368 186.188 C 273.158 186.234,275.325 185.345,275.325 184.976 C 275.325 184.537,275.155 184.519,274.759 184.915 M265.335 188.611 C 265.335 188.831,265.604 189.011,265.934 189.011 C 266.264 189.011,266.533 188.831,266.533 188.611 C 266.533 188.392,266.264 188.212,265.934 188.212 C 265.604 188.212,265.335 188.392,265.335 188.611 M259.341 190.609 C 259.341 190.829,259.610 191.009,259.940 191.009 C 260.270 191.009,260.539 190.829,260.539 190.609 C 260.539 190.390,260.270 190.210,259.940 190.210 C 259.610 190.210,259.341 190.390,259.341 190.609 M252.947 192.607 C 252.947 192.827,253.217 193.007,253.546 193.007 C 253.876 193.007,254.146 192.827,254.146 192.607 C 254.146 192.388,253.876 192.208,253.546 192.208 C 253.217 192.208,252.947 192.388,252.947 192.607 M250.949 193.007 C 250.949 193.227,251.219 193.407,251.548 193.407 C 251.878 193.407,252.148 193.227,252.148 193.007 C 252.148 192.787,251.878 192.607,251.548 192.607 C 251.219 192.607,250.949 192.787,250.949 193.007 M244.955 194.605 C 244.955 194.825,245.315 195.005,245.754 195.005 C 246.194 195.005,246.553 194.825,246.553 194.605 C 246.553 194.386,246.194 194.206,245.754 194.206 C 245.315 194.206,244.955 194.386,244.955 194.605 M242.957 195.005 C 242.957 195.225,243.227 195.405,243.556 195.405 C 243.886 195.405,244.156 195.225,244.156 195.005 C 244.156 194.785,243.886 194.605,243.556 194.605 C 243.227 194.605,242.957 194.785,242.957 195.005 M235.764 196.603 C 235.764 196.823,236.034 197.003,236.364 197.003 C 236.693 197.003,236.963 196.823,236.963 196.603 C 236.963 196.384,236.693 196.204,236.364 196.204 C 236.034 196.204,235.764 196.384,235.764 196.603 M232.567 197.003 C 232.567 197.223,232.927 197.403,233.367 197.403 C 233.806 197.403,234.166 197.223,234.166 197.003 C 234.166 196.783,233.806 196.603,233.367 196.603 C 232.927 196.603,232.567 196.783,232.567 197.003 M229.570 197.403 C 229.435 197.622,229.694 197.802,230.146 197.802 C 230.599 197.802,230.969 197.622,230.969 197.403 C 230.969 197.183,230.710 197.003,230.393 197.003 C 230.077 197.003,229.706 197.183,229.570 197.403 M221.778 198.601 C 221.778 198.821,222.318 199.001,222.977 199.001 C 223.636 199.001,224.176 198.821,224.176 198.601 C 224.176 198.382,223.636 198.202,222.977 198.202 C 222.318 198.202,221.778 198.382,221.778 198.601 M216.983 199.001 C 216.983 199.221,217.433 199.401,217.982 199.401 C 218.531 199.401,218.981 199.221,218.981 199.001 C 218.981 198.781,218.531 198.601,217.982 198.601 C 217.433 198.601,216.983 198.781,216.983 199.001 M210.589 199.401 C 210.164 199.675,210.629 199.782,212.188 199.766 C 213.781 199.750,214.166 199.650,213.586 199.401 C 212.501 198.934,211.311 198.934,210.589 199.401 M217.982 200.200 C 218.118 200.420,218.477 200.599,218.781 200.599 C 219.085 200.599,219.445 200.420,219.580 200.200 C 219.721 199.972,219.377 199.800,218.781 199.800 C 218.186 199.800,217.841 199.972,217.982 200.200 M222.577 200.599 C 222.577 200.819,222.937 200.999,223.377 200.999 C 223.816 200.999,224.176 200.819,224.176 200.599 C 224.176 200.380,223.816 200.200,223.377 200.200 C 222.937 200.200,222.577 200.380,222.577 200.599 M226.573 200.999 C 226.573 201.219,226.933 201.399,227.373 201.399 C 227.812 201.399,228.172 201.219,228.172 200.999 C 228.172 200.779,227.812 200.599,227.373 200.599 C 226.933 200.599,226.573 200.779,226.573 200.999 M235.764 202.597 C 235.764 202.817,236.034 202.997,236.364 202.997 C 236.693 202.997,236.963 202.817,236.963 202.597 C 236.963 202.378,236.693 202.198,236.364 202.198 C 236.034 202.198,235.764 202.378,235.764 202.597 M245.355 204.595 C 245.355 204.815,245.624 204.995,245.954 204.995 C 246.284 204.995,246.553 204.815,246.553 204.595 C 246.553 204.376,246.284 204.196,245.954 204.196 C 245.624 204.196,245.355 204.376,245.355 204.595 M247.353 204.995 C 247.353 205.215,247.622 205.395,247.952 205.395 C 248.282 205.395,248.551 205.215,248.551 204.995 C 248.551 204.775,248.282 204.595,247.952 204.595 C 247.622 204.595,247.353 204.775,247.353 204.995 M254.945 206.993 C 254.945 207.213,255.215 207.393,255.544 207.393 C 255.874 207.393,256.144 207.213,256.144 206.993 C 256.144 206.773,255.874 206.593,255.544 206.593 C 255.215 206.593,254.945 206.773,254.945 206.993 M261.339 208.991 C 261.339 209.211,261.608 209.391,261.938 209.391 C 262.268 209.391,262.537 209.211,262.537 208.991 C 262.537 208.771,262.268 208.591,261.938 208.591 C 261.608 208.591,261.339 208.771,261.339 208.991 M281.918 216.983 C 281.782 217.203,281.847 217.383,282.062 217.383 C 282.276 217.383,282.782 217.507,283.184 217.660 C 283.870 217.920,283.874 217.894,283.245 217.260 C 282.469 216.477,282.258 216.433,281.918 216.983 M286.114 218.938 C 286.114 219.135,286.398 219.404,286.746 219.538 C 287.724 219.913,287.821 219.831,287.170 219.181 C 286.491 218.501,286.114 218.415,286.114 218.938 M290.110 220.936 C 290.110 221.133,290.394 221.402,290.742 221.536 C 291.720 221.911,291.817 221.829,291.166 221.179 C 290.487 220.499,290.110 220.413,290.110 220.936 M292.698 222.425 C 293.054 222.781,293.466 222.951,293.614 222.803 C 293.762 222.655,293.618 222.367,293.295 222.162 C 292.351 221.565,291.995 221.722,292.698 222.425 M300.100 226.597 C 300.100 226.830,300.280 226.909,300.500 226.773 C 300.719 226.637,300.899 226.697,300.899 226.907 C 300.899 227.116,301.169 227.391,301.499 227.517 C 302.267 227.812,302.258 227.590,301.470 226.802 C 300.747 226.079,300.100 225.982,300.100 226.597 M303.343 228.504 C 303.867 228.907,304.925 229.581,305.694 230.003 C 306.464 230.424,307.183 230.879,307.293 231.013 C 307.403 231.147,308.122 231.567,308.891 231.945 L 310.290 232.633 309.091 231.626 C 308.432 231.072,307.443 230.383,306.893 230.095 C 306.344 229.807,305.804 229.462,305.694 229.327 C 305.436 229.011,303.021 227.772,302.663 227.772 C 302.513 227.772,302.819 228.102,303.343 228.504 M310.490 232.904 C 310.490 233.089,311.119 233.580,311.888 233.994 C 312.657 234.408,313.287 234.867,313.287 235.013 C 313.287 235.159,313.556 235.383,313.886 235.509 C 315.045 235.954,314.470 234.978,313.187 234.322 C 312.473 233.957,311.744 233.413,311.569 233.113 C 311.217 232.512,310.490 232.372,310.490 232.904 M318.881 238.947 C 318.881 239.159,319.254 239.532,319.711 239.776 C 320.469 240.183,320.502 240.150,320.096 239.391 C 319.640 238.538,318.881 238.261,318.881 238.947 M320.879 240.463 C 320.879 240.630,321.239 240.991,321.678 241.266 C 322.553 241.812,322.762 241.403,321.998 240.639 C 321.457 240.098,320.879 240.007,320.879 240.463 M323.976 243.035 C 324.458 243.517,324.980 243.785,325.135 243.630 C 325.289 243.475,325.070 243.086,324.646 242.766 C 323.458 241.867,322.994 242.053,323.976 243.035 M326.092 244.777 C 326.920 245.774,328.106 246.308,327.816 245.553 C 327.591 244.967,326.451 244.156,325.851 244.156 C 325.700 244.156,325.808 244.435,326.092 244.777 M328.945 246.974 C 329.022 247.205,329.711 247.784,330.476 248.261 L 331.868 249.129 330.600 247.841 C 329.316 246.537,328.690 246.209,328.945 246.974 M333.267 250.744 C 333.267 251.088,336.250 253.724,336.653 253.735 C 336.866 253.741,336.327 253.033,335.454 252.161 C 334.004 250.713,333.267 250.236,333.267 250.744 M345.854 263.382 C 346.733 264.339,347.498 265.200,347.552 265.295 C 347.607 265.390,347.765 265.356,347.902 265.218 C 348.206 264.914,346.163 262.651,345.055 262.064 C 344.615 261.831,344.975 262.424,345.854 263.382 M349.955 267.536 C 350.778 269.038,351.583 269.929,351.864 269.648 C 352.019 269.493,351.554 268.776,350.832 268.053 C 350.110 267.331,349.715 267.098,349.955 267.536 M352.831 271.298 C 353.075 271.755,353.448 272.128,353.660 272.128 C 354.346 272.128,354.069 271.369,353.217 270.913 C 352.458 270.507,352.425 270.540,352.831 271.298 M354.845 273.664 C 354.845 273.850,355.205 274.327,355.644 274.725 C 356.543 275.539,356.698 275.094,355.887 274.026 C 355.319 273.278,354.845 273.113,354.845 273.664 M364.927 287.387 C 365.126 287.985,366.034 288.314,366.034 287.788 C 366.034 287.574,365.749 287.289,365.401 287.155 C 365.012 287.006,364.829 287.095,364.927 287.387 M366.057 288.625 C 366.030 288.993,367.198 290.874,367.927 291.637 C 368.697 292.443,368.528 291.545,367.732 290.604 C 367.348 290.150,366.819 289.448,366.557 289.045 C 366.295 288.642,366.070 288.453,366.057 288.625 M368.831 293.201 C 368.831 293.393,369.281 294.160,369.830 294.905 C 370.877 296.324,371.156 296.262,370.366 294.787 C 369.797 293.722,368.831 292.725,368.831 293.201 M371.084 297.103 C 371.211 297.433,371.485 297.702,371.695 297.702 C 371.904 297.702,371.964 297.882,371.828 298.102 C 371.692 298.322,371.772 298.501,372.004 298.501 C 372.619 298.501,372.523 297.855,371.800 297.131 C 371.011 296.343,370.789 296.334,371.084 297.103 M373.233 300.799 C 373.244 301.346,373.979 302.278,374.213 302.044 C 374.528 301.729,374.027 300.500,373.584 300.500 C 373.387 300.500,373.230 300.634,373.233 300.799 M375.480 305.095 C 375.606 305.425,375.881 305.694,376.090 305.694 C 376.300 305.694,376.360 305.874,376.224 306.094 C 376.088 306.314,376.167 306.494,376.400 306.494 C 376.930 306.494,376.932 306.245,376.410 305.268 C 375.925 304.363,375.143 304.217,375.480 305.095 M376.829 307.164 C 376.841 307.777,377.577 308.670,377.848 308.399 C 377.996 308.251,377.826 307.839,377.470 307.483 C 377.114 307.127,376.826 306.984,376.829 307.164 M378.827 311.160 C 378.839 311.773,379.575 312.666,379.846 312.395 C 379.994 312.247,379.824 311.835,379.468 311.479 C 379.112 311.123,378.824 310.980,378.827 311.160 M379.620 313.287 C 379.620 313.506,379.811 313.686,380.044 313.686 C 380.276 313.686,380.363 313.854,380.237 314.058 C 380.110 314.263,380.190 314.543,380.413 314.681 C 380.870 314.964,380.940 314.466,380.577 313.519 C 380.309 312.822,379.620 312.655,379.620 313.287 M381.966 317.819 C 382.210 318.114,382.292 318.474,382.148 318.618 C 382.003 318.763,382.095 318.881,382.351 318.881 C 382.886 318.881,382.908 318.784,382.575 317.915 C 382.441 317.567,382.149 317.283,381.926 317.283 C 381.671 317.283,381.686 317.482,381.966 317.819 M383.501 321.678 C 383.616 322.118,383.868 322.478,384.063 322.478 C 384.480 322.478,384.495 322.350,384.173 321.511 C 383.821 320.594,383.254 320.735,383.501 321.678 M391.608 345.055 C 391.608 345.385,391.788 345.654,392.008 345.654 C 392.228 345.654,392.408 345.385,392.408 345.055 C 392.408 344.725,392.228 344.456,392.008 344.456 C 391.788 344.456,391.608 344.725,391.608 345.055 M397.602 375.824 C 397.602 376.374,397.782 376.823,398.002 376.823 C 398.222 376.823,398.402 376.374,398.402 375.824 C 398.402 375.275,398.222 374.825,398.002 374.825 C 397.782 374.825,397.602 375.275,397.602 375.824 M398.002 380.596 C 398.002 380.912,398.182 381.283,398.402 381.419 C 398.621 381.554,398.801 381.295,398.801 380.843 C 398.801 380.390,398.621 380.020,398.402 380.020 C 398.182 380.020,398.002 380.279,398.002 380.596 M398.910 387.612 C 398.910 388.601,398.988 389.006,399.083 388.511 C 399.178 388.017,399.178 387.208,399.083 386.713 C 398.988 386.219,398.910 386.623,398.910 387.612 " stroke="none" fill="#d2d6e9" fill-rule="evenodd"></path><path id="path4" d="M190.115 0.283 C 190.612 0.378,191.331 0.375,191.713 0.275 C 192.095 0.175,191.688 0.096,190.809 0.101 C 189.930 0.105,189.617 0.187,190.115 0.283 M398.408 3.297 C 398.412 5.573,398.534 6.408,398.801 5.994 C 399.316 5.197,399.316 0.000,398.801 0.000 C 398.567 0.000,398.404 1.361,398.408 3.297 M174.925 1.481 C 175.420 1.576,176.229 1.576,176.723 1.481 C 177.218 1.386,176.813 1.308,175.824 1.308 C 174.835 1.308,174.431 1.386,174.925 1.481 M161.838 3.294 C 160.849 3.520,160.220 3.766,160.440 3.840 C 160.659 3.914,161.828 3.730,163.037 3.430 C 165.581 2.800,164.523 2.680,161.838 3.294 M152.703 5.254 C 151.965 5.466,151.438 5.718,151.533 5.812 C 151.628 5.907,152.502 5.735,153.475 5.429 C 155.462 4.806,154.791 4.653,152.703 5.254 M145.111 7.252 C 144.373 7.464,143.843 7.713,143.935 7.804 C 144.136 8.006,147.053 7.230,147.053 6.974 C 147.053 6.739,146.736 6.784,145.111 7.252 M138.462 9.405 C 137.462 9.886,137.429 9.941,138.262 9.738 C 139.394 9.461,140.667 8.812,140.060 8.821 C 139.840 8.825,139.121 9.087,138.462 9.405 M132.468 11.403 C 131.468 11.884,131.435 11.939,132.268 11.736 C 133.400 11.459,134.673 10.810,134.066 10.819 C 133.846 10.823,133.127 11.085,132.468 11.403 M398.002 14.609 C 398.002 15.189,398.175 15.525,398.402 15.385 C 398.621 15.249,398.801 14.789,398.801 14.362 C 398.801 13.935,398.621 13.586,398.402 13.586 C 398.182 13.586,398.002 14.047,398.002 14.609 M117.483 17.383 C 116.933 17.697,116.663 17.954,116.883 17.954 C 117.103 17.954,117.732 17.697,118.282 17.383 C 118.831 17.069,119.101 16.812,118.881 16.812 C 118.661 16.812,118.032 17.069,117.483 17.383 M397.397 20.060 C 397.260 20.607,397.219 21.757,397.308 22.616 C 397.465 24.148,397.469 24.143,397.535 22.311 C 397.574 21.238,397.814 20.368,398.102 20.263 C 398.490 20.121,398.495 19.966,398.124 19.573 C 397.744 19.169,397.596 19.269,397.397 20.060 M108.991 21.407 C 107.497 22.218,107.588 22.555,109.091 21.778 C 109.750 21.437,110.290 21.073,110.290 20.969 C 110.290 20.712,110.247 20.726,108.991 21.407 M396.831 25.475 C 396.856 26.448,396.898 26.482,397.203 25.774 C 397.672 24.683,397.672 24.376,397.203 24.376 C 396.983 24.376,396.816 24.870,396.831 25.475 M395.436 34.765 C 394.843 37.835,394.776 38.552,395.138 37.962 C 395.549 37.292,396.161 33.566,395.860 33.566 C 395.755 33.566,395.564 34.106,395.436 34.765 M79.505 39.989 L 78.122 41.217 79.620 40.141 C 80.945 39.191,81.375 38.761,81.004 38.761 C 80.941 38.761,80.266 39.314,79.505 39.989 M393.427 44.855 C 392.940 46.437,392.807 47.716,393.189 47.153 C 393.412 46.823,393.597 46.164,393.600 45.688 C 393.604 45.211,393.831 44.731,394.106 44.620 C 394.497 44.462,394.494 44.412,394.093 44.387 C 393.812 44.370,393.512 44.580,393.427 44.855 M64.121 52.847 L 62.138 54.945 64.236 52.962 C 66.185 51.119,66.517 50.749,66.219 50.749 C 66.156 50.749,65.211 51.693,64.121 52.847 M391.487 52.647 C 391.030 53.463,390.809 55.192,391.193 54.955 C 391.421 54.814,391.608 54.274,391.608 53.756 C 391.608 53.238,391.833 52.723,392.108 52.612 C 392.468 52.467,392.475 52.402,392.131 52.379 C 391.870 52.362,391.580 52.483,391.487 52.647 M389.190 60.195 C 388.969 60.775,388.880 61.340,388.990 61.451 C 389.171 61.632,389.368 61.211,389.836 59.640 C 390.119 58.690,389.589 59.145,389.190 60.195 M52.532 64.436 L 50.549 66.533 52.647 64.550 C 54.597 62.708,54.929 62.338,54.630 62.338 C 54.567 62.338,53.623 63.282,52.532 64.436 M387.192 66.189 C 386.971 66.769,386.865 67.318,386.956 67.408 C 387.046 67.499,387.312 67.025,387.545 66.354 C 388.065 64.863,387.751 64.717,387.192 66.189 M48.932 68.432 L 47.353 70.130 49.051 68.550 C 50.630 67.081,50.933 66.733,50.631 66.733 C 50.565 66.733,49.801 67.498,48.932 68.432 M385.196 71.563 C 384.951 72.021,384.851 72.496,384.973 72.619 C 385.096 72.741,385.322 72.501,385.476 72.085 C 385.630 71.669,385.949 71.197,386.185 71.035 C 386.476 70.836,386.458 70.740,386.128 70.735 C 385.861 70.732,385.442 71.104,385.196 71.563 M382.882 77.340 C 382.213 78.809,382.340 79.123,383.064 77.787 C 383.402 77.163,383.604 76.578,383.513 76.486 C 383.421 76.395,383.138 76.779,382.882 77.340 M39.560 79.920 C 39.091 80.579,38.797 81.119,38.907 81.119 C 39.017 81.119,39.491 80.579,39.960 79.920 C 40.430 79.261,40.724 78.721,40.614 78.721 C 40.504 78.721,40.030 79.261,39.560 79.920 M381.454 80.662 C 380.920 81.526,380.472 83.117,380.762 83.117 C 380.939 83.117,381.278 82.488,381.514 81.718 C 381.926 80.376,381.901 79.938,381.454 80.662 M371.066 100.899 C 370.706 101.449,370.566 101.898,370.756 101.898 C 370.945 101.898,371.305 101.449,371.556 100.899 C 371.806 100.350,371.945 99.900,371.866 99.900 C 371.786 99.900,371.426 100.350,371.066 100.899 M21.379 109.091 C 21.038 109.750,20.849 110.290,20.958 110.290 C 21.068 110.290,21.437 109.750,21.778 109.091 C 22.119 108.432,22.308 107.892,22.198 107.892 C 22.088 107.892,21.720 108.432,21.379 109.091 M19.361 113.124 C 19.010 113.804,18.793 114.431,18.880 114.518 C 18.967 114.604,19.337 114.048,19.702 113.282 C 20.524 111.558,20.239 111.427,19.361 113.124 M361.183 116.184 C 360.033 117.572,359.546 118.282,359.744 118.282 C 359.855 118.282,360.425 117.652,361.012 116.883 C 362.101 115.456,362.233 114.917,361.183 116.184 M13.231 127.117 C 12.985 127.824,12.854 128.471,12.939 128.557 C 13.024 128.642,13.296 128.134,13.542 127.428 C 13.788 126.722,13.920 126.074,13.834 125.989 C 13.749 125.903,13.477 126.411,13.231 127.117 M348.227 132.368 L 347.053 133.666 348.352 132.493 C 349.066 131.847,349.650 131.263,349.650 131.194 C 349.650 130.885,349.321 131.157,348.227 132.368 M344.231 136.763 L 343.057 138.062 344.356 136.888 C 345.070 136.243,345.654 135.658,345.654 135.590 C 345.654 135.281,345.325 135.553,344.231 136.763 M335.439 145.554 L 334.266 146.853 335.564 145.679 C 336.279 145.034,336.863 144.450,336.863 144.381 C 336.863 144.072,336.533 144.344,335.439 145.554 M5.228 152.880 C 4.970 153.905,4.834 154.817,4.926 154.909 C 5.017 155.001,5.303 154.238,5.561 153.213 C 5.819 152.189,5.955 151.276,5.863 151.185 C 5.772 151.093,5.486 151.856,5.228 152.880 M309.635 165.825 L 308.691 166.614 309.787 166.124 C 310.390 165.855,310.884 165.500,310.886 165.335 C 310.891 164.876,310.660 164.966,309.635 165.825 M1.308 175.425 C 1.308 176.414,1.386 176.818,1.481 176.324 C 1.576 175.829,1.576 175.020,1.481 174.525 C 1.386 174.031,1.308 174.436,1.308 175.425 M280.320 182.032 C 279.316 182.516,279.283 182.570,280.120 182.369 C 280.669 182.236,281.290 181.968,281.499 181.773 C 282.016 181.289,281.732 181.352,280.320 182.032 M0.101 189.610 C 0.105 190.490,0.187 190.802,0.283 190.305 C 0.378 189.808,0.375 189.089,0.275 188.707 C 0.175 188.325,0.096 188.731,0.101 189.610 M251.349 192.208 C 250.546 192.465,250.506 192.530,251.149 192.539 C 251.588 192.546,252.308 192.397,252.747 192.208 C 253.766 191.770,252.715 191.770,251.349 192.208 M243.357 194.172 L 242.358 194.458 243.378 194.661 C 243.957 194.776,244.612 194.635,244.892 194.335 C 245.459 193.729,245.055 193.686,243.357 194.172 M233.367 196.204 C 232.011 196.489,232.005 196.499,233.167 196.511 C 233.826 196.518,234.815 196.380,235.365 196.204 C 236.675 195.784,235.360 195.784,233.367 196.204 M223.976 197.802 C 223.840 198.022,223.999 198.202,224.328 198.202 C 224.658 198.202,225.039 198.022,225.175 197.802 C 225.311 197.582,225.152 197.403,224.822 197.403 C 224.493 197.403,224.112 197.582,223.976 197.802 M219.597 198.174 C 219.471 198.379,219.550 198.659,219.774 198.797 C 219.997 198.935,220.180 198.870,220.180 198.652 C 220.180 198.433,220.674 198.180,221.279 198.088 C 222.320 197.931,222.311 197.919,221.103 197.862 C 220.401 197.829,219.724 197.970,219.597 198.174 M214.685 198.484 C 213.572 198.698,213.495 199.401,214.585 199.401 C 215.025 199.401,215.385 199.231,215.385 199.023 C 215.385 198.815,216.239 198.578,217.283 198.496 L 219.181 198.346 217.383 198.328 C 216.394 198.319,215.180 198.389,214.685 198.484 M201.832 199.145 C 201.923 199.224,203.257 199.400,204.795 199.535 C 206.647 199.698,207.390 199.651,206.993 199.397 C 206.451 199.050,201.438 198.805,201.832 199.145 M49.882 199.700 C 77.427 199.757,122.382 199.757,149.782 199.700 C 177.182 199.644,154.645 199.597,99.700 199.597 C 44.755 199.597,22.337 199.644,49.882 199.700 M208.896 200.083 C 209.393 200.178,210.112 200.175,210.494 200.075 C 210.876 199.975,210.470 199.897,209.590 199.901 C 208.711 199.905,208.399 199.987,208.896 200.083 M247.386 205.538 C 247.478 205.617,248.092 205.802,248.751 205.950 C 249.627 206.146,249.788 206.109,249.351 205.812 C 248.811 205.447,246.985 205.192,247.386 205.538 M335.664 253.472 C 335.664 253.540,336.249 254.125,336.963 254.770 L 338.262 255.944 337.088 254.645 C 335.994 253.435,335.664 253.163,335.664 253.472 M342.857 260.664 C 342.857 260.733,343.442 261.318,344.156 261.963 L 345.455 263.137 344.281 261.838 C 343.187 260.628,342.857 260.356,342.857 260.664 M397.602 378.222 C 397.602 378.551,397.782 378.821,398.002 378.821 C 398.222 378.821,398.402 378.551,398.402 378.222 C 398.402 377.892,398.222 377.622,398.002 377.622 C 397.782 377.622,397.602 377.892,397.602 378.222 M398.489 390.609 C 398.485 391.269,398.625 392.258,398.801 392.807 L 399.121 393.806 399.114 392.807 C 399.110 392.258,398.969 391.269,398.801 390.609 L 398.496 389.411 398.489 390.609 M197.802 398.601 C 198.243 399.132,187.159 399.211,99.049 399.301 L -0.200 399.402 99.463 399.501 C 199.103 399.600,199.125 399.600,198.402 398.801 C 197.565 397.877,197.061 397.708,197.802 398.601 " stroke="none" fill="#596db8" fill-rule="evenodd"></path></g></svg>