<svg id="svg" version="1.1" xmlns="http://www.w3.org/2000/svg" xmlns:xlink="http://www.w3.org/1999/xlink" width="400" height="89.33333333333334" viewBox="0, 0, 400,89.33333333333334"><g id="svgg"><path id="path0" d="M44.750 44.591 C 44.682 56.832,44.672 66.895,44.730 66.952 C 44.787 67.009,44.833 62.018,44.833 55.861 L 44.833 44.667 45.792 44.666 C 48.926 44.662,53.436 43.311,56.239 41.535 C 56.612 41.299,57.329 40.844,57.833 40.525 C 58.870 39.867,62.252 36.534,62.954 35.477 C 63.209 35.094,63.549 34.586,63.711 34.348 C 65.386 31.891,66.923 27.201,67.116 23.958 L 67.212 22.333 56.044 22.333 L 44.875 22.333 44.750 44.591 M22.333 55.917 L 22.333 67.000 33.458 67.000 L 44.582 67.000 33.500 55.917 C 27.405 49.821,22.399 44.833,22.375 44.833 C 22.352 44.833,22.333 49.821,22.333 55.917 M375.167 49.369 C 374.571 49.734,373.783 50.201,373.417 50.407 C 373.050 50.612,371.738 51.369,370.500 52.088 C 369.262 52.807,367.929 53.576,367.536 53.798 L 366.822 54.201 366.869 55.885 L 366.917 57.569 367.999 57.788 C 370.973 58.389,373.588 60.676,373.893 62.943 C 374.020 63.889,374.601 63.833,364.655 63.833 L 355.837 63.833 355.793 56.458 L 355.750 49.083 353.795 49.036 L 351.840 48.989 351.893 56.036 C 351.923 59.912,351.885 63.252,351.811 63.458 L 351.675 63.833 344.462 63.833 L 337.250 63.833 337.261 59.875 C 337.275 54.981,337.515 55.500,335.232 55.500 L 333.333 55.500 333.333 59.344 C 333.333 61.676,333.265 63.315,333.161 63.511 C 332.988 63.834,321.062 64.039,320.264 63.732 C 320.032 63.643,320.000 63.090,320.000 59.232 L 320.000 54.833 318.926 54.833 C 318.037 54.833,317.773 54.901,317.393 55.228 C 316.957 55.603,316.906 55.610,316.342 55.373 C 313.429 54.144,309.682 56.291,308.893 59.642 C 307.675 64.819,312.379 69.246,316.281 66.595 L 316.834 66.219 317.772 66.692 L 318.709 67.164 326.924 67.124 L 335.140 67.083 335.886 66.557 L 336.632 66.031 337.189 66.606 L 337.746 67.181 345.748 67.132 L 353.750 67.083 354.333 66.675 C 354.654 66.450,354.959 66.205,355.011 66.131 C 355.063 66.056,355.372 66.261,355.698 66.587 L 356.290 67.179 365.937 67.131 C 376.983 67.076,376.443 67.149,377.415 65.584 C 379.030 62.984,376.684 57.635,373.008 55.535 L 372.150 55.045 373.533 54.195 C 374.294 53.728,375.273 53.136,375.708 52.881 L 376.500 52.417 376.500 50.635 C 376.500 48.506,376.530 48.534,375.167 49.369 M267.913 49.599 C 267.182 50.021,266.021 50.685,265.333 51.076 C 262.908 52.456,261.575 53.234,260.792 53.726 L 260.000 54.223 260.000 55.867 C 260.000 57.037,260.060 57.528,260.208 57.573 C 260.323 57.607,260.891 57.729,261.470 57.843 C 264.077 58.357,266.852 61.035,266.901 63.083 L 266.917 63.750 257.250 63.793 L 247.583 63.836 247.573 61.293 C 247.563 59.015,247.524 58.672,247.193 58.000 C 245.145 53.846,238.120 54.384,236.682 58.804 C 235.330 62.962,237.503 66.543,241.681 67.042 C 243.490 67.259,243.537 67.302,242.987 68.235 C 242.280 69.432,239.566 70.131,237.625 69.615 C 236.794 69.395,236.964 70.681,237.932 71.929 C 238.919 73.202,238.978 73.229,240.481 73.095 C 244.366 72.747,246.652 71.069,247.372 68.036 L 247.576 67.178 258.163 67.131 C 269.564 67.080,269.203 67.107,270.079 66.230 C 270.338 65.971,270.390 65.993,270.857 66.560 L 271.358 67.167 279.387 67.163 C 291.669 67.156,290.658 68.087,290.663 56.792 L 290.667 49.000 288.667 49.000 L 286.667 49.000 286.667 56.316 C 286.667 62.833,286.638 63.642,286.403 63.732 C 286.258 63.788,282.744 63.833,278.593 63.833 L 271.047 63.833 270.947 62.875 C 270.651 60.073,268.939 57.392,266.387 55.736 L 265.358 55.069 266.137 54.559 C 266.566 54.279,267.497 53.683,268.206 53.234 L 269.496 52.417 269.498 50.625 C 269.499 49.640,269.442 48.833,269.371 48.833 C 269.300 48.833,268.644 49.178,267.913 49.599 M164.460 56.370 L 164.417 63.750 158.167 63.794 L 151.917 63.837 151.929 59.669 L 151.941 55.500 149.917 55.500 L 147.893 55.500 147.898 59.375 C 147.900 61.506,147.851 63.381,147.789 63.542 C 147.686 63.809,147.318 63.833,143.364 63.833 L 139.051 63.833 139.354 62.958 C 141.128 57.822,136.222 53.548,131.195 55.851 C 128.741 56.974,127.458 60.835,128.724 63.284 L 128.970 63.759 124.485 63.754 L 120.000 63.750 120.000 59.625 L 120.000 55.500 118.003 55.500 L 116.006 55.500 115.961 59.625 L 115.917 63.750 110.042 63.794 L 104.167 63.838 104.167 59.669 L 104.167 55.500 102.167 55.500 L 100.167 55.500 100.167 59.564 L 100.167 63.628 99.792 63.728 C 99.035 63.931,89.912 63.845,89.700 63.633 C 89.555 63.488,89.500 62.256,89.500 59.133 L 89.500 54.833 88.446 54.833 C 87.546 54.833,87.336 54.892,87.012 55.237 C 86.644 55.628,86.613 55.633,85.942 55.388 C 81.762 53.863,77.847 57.424,78.367 62.277 C 78.814 66.451,83.127 68.796,86.082 66.471 C 86.493 66.148,86.533 66.145,86.830 66.414 C 87.588 67.100,88.147 67.152,94.833 67.158 C 101.631 67.165,102.241 67.108,102.952 66.396 L 103.362 65.987 104.019 66.580 L 104.676 67.174 111.028 67.163 C 117.777 67.151,118.081 67.118,118.928 66.323 C 119.275 65.996,119.278 65.996,119.596 66.348 C 120.283 67.107,120.422 67.121,126.833 67.096 C 131.494 67.078,133.046 67.020,133.471 66.849 C 133.933 66.662,134.100 66.662,134.471 66.846 C 135.073 67.145,148.587 67.293,149.528 67.011 C 149.871 66.908,150.387 66.626,150.676 66.384 L 151.200 65.943 151.777 66.555 L 152.354 67.167 158.814 67.167 C 169.189 67.167,168.525 67.892,168.460 56.643 L 168.417 49.083 166.460 49.036 L 164.503 48.989 164.460 56.370 M171.833 58.328 L 171.833 67.667 172.758 67.667 C 173.612 67.667,174.558 67.360,174.693 67.039 C 174.724 66.965,174.994 66.733,175.293 66.523 L 175.836 66.142 175.793 57.613 L 175.750 49.083 173.792 49.036 L 171.833 48.989 171.833 58.328 M294.111 49.111 C 294.050 49.172,294.000 53.372,294.000 58.444 L 294.000 67.667 295.083 67.667 C 295.891 67.667,296.242 67.592,296.464 67.375 C 296.627 67.215,297.040 66.873,297.380 66.617 L 298.000 66.150 298.000 57.575 L 298.000 49.000 296.111 49.000 C 295.072 49.000,294.172 49.050,294.111 49.111 M81.706 50.571 C 80.635 51.552,80.937 53.212,82.290 53.777 C 84.292 54.614,85.969 52.102,84.433 50.567 C 83.620 49.754,82.596 49.755,81.706 50.571 M86.495 50.284 C 85.203 51.175,85.230 52.855,86.550 53.683 C 87.311 54.160,88.208 54.019,88.951 53.305 C 90.590 51.732,88.365 48.995,86.495 50.284 M116.626 50.669 C 115.997 51.298,115.962 51.382,116.044 52.105 C 116.248 53.918,118.234 54.599,119.449 53.273 C 121.259 51.298,118.521 48.773,116.626 50.669 M130.373 50.571 C 129.813 51.084,129.750 51.225,129.750 51.974 C 129.750 53.865,131.902 54.665,133.154 53.239 C 134.844 51.314,132.264 48.838,130.373 50.571 M135.248 50.186 C 134.107 50.741,133.861 52.438,134.788 53.364 C 136.092 54.669,138.167 53.728,138.167 51.833 C 138.167 50.455,136.559 49.548,135.248 50.186 M144.898 50.154 C 142.884 51.019,143.923 54.333,146.081 53.928 C 147.755 53.614,148.327 51.669,147.089 50.505 C 146.646 50.089,145.483 49.903,144.898 50.154 M149.349 50.201 C 147.954 50.951,147.949 52.916,149.339 53.713 C 150.891 54.603,152.921 52.787,152.115 51.228 C 151.576 50.186,150.277 49.703,149.349 50.201 M312.386 50.325 C 311.727 50.727,311.500 51.136,311.500 51.922 C 311.500 53.816,313.669 54.654,314.958 53.258 C 316.510 51.578,314.357 49.123,312.386 50.325 M316.869 50.260 C 315.644 51.118,315.787 53.124,317.118 53.755 C 318.913 54.607,320.758 52.544,319.650 50.926 C 319.015 50.000,317.693 49.683,316.869 50.260 M194.516 55.035 C 193.061 55.816,193.085 57.788,194.560 58.582 C 196.588 59.674,198.432 56.818,196.696 55.272 C 196.257 54.881,195.048 54.749,194.516 55.035 M199.167 54.951 C 197.721 55.480,197.511 57.574,198.816 58.452 C 200.169 59.363,201.841 58.460,201.864 56.806 C 201.883 55.434,200.482 54.470,199.167 54.951 M204.506 59.525 C 204.519 62.688,204.476 63.579,204.303 63.689 C 203.981 63.893,192.320 63.870,191.730 63.664 C 190.864 63.362,190.782 63.033,190.819 60.047 L 190.854 57.333 189.754 57.333 C 188.699 57.333,188.617 57.364,187.703 58.095 L 186.750 58.857 186.835 61.303 C 186.932 64.095,187.101 64.621,188.275 65.764 C 189.647 67.100,190.026 67.152,198.482 67.163 C 206.327 67.173,206.394 67.167,207.456 66.332 L 207.892 65.989 208.497 66.580 L 209.102 67.172 219.510 67.163 C 233.983 67.151,233.000 67.667,233.000 60.089 L 233.000 55.500 231.042 55.500 L 229.083 55.500 229.109 59.375 C 229.123 61.531,229.064 63.380,228.977 63.543 C 228.830 63.818,228.210 63.833,218.706 63.793 L 208.591 63.750 208.562 62.917 C 208.546 62.458,208.526 60.602,208.516 58.792 L 208.500 55.500 206.495 55.500 L 204.489 55.500 204.506 59.525 M85.292 58.653 C 85.449 58.663,85.500 59.315,85.500 61.314 L 85.500 63.961 85.070 64.043 C 83.931 64.261,82.644 63.461,82.333 62.343 C 81.756 60.265,82.928 58.380,84.667 58.589 C 84.896 58.617,85.177 58.645,85.292 58.653 M135.116 59.112 C 136.235 60.503,135.838 63.031,134.427 63.496 C 132.758 64.047,131.528 61.592,132.484 59.617 C 133.070 58.406,134.351 58.160,135.116 59.112 M243.179 58.987 L 243.667 59.474 243.667 61.662 L 243.667 63.850 242.770 63.773 C 241.031 63.624,240.282 62.796,240.298 61.038 C 240.317 58.914,241.947 57.754,243.179 58.987 M315.792 58.646 C 316.024 58.669,316.107 63.981,315.875 64.022 C 313.899 64.374,312.667 63.269,312.667 61.147 C 312.667 59.247,313.679 58.437,315.792 58.646 M96.750 68.324 C 95.431 68.864,95.207 70.777,96.349 71.738 C 97.425 72.643,99.240 72.012,99.592 70.610 C 99.974 69.087,98.258 67.707,96.750 68.324 M100.869 68.579 C 99.359 69.849,100.280 72.310,102.196 72.126 C 104.729 71.883,104.738 68.451,102.206 68.208 C 101.513 68.142,101.328 68.193,100.869 68.579 M225.335 68.792 C 224.795 69.332,224.667 69.580,224.667 70.080 C 224.667 72.003,226.827 72.846,228.125 71.429 C 229.835 69.563,227.126 67.002,225.335 68.792 M230.145 68.447 C 228.850 69.251,228.865 71.121,230.173 71.894 C 231.407 72.623,233.167 71.656,233.167 70.249 C 233.167 68.699,231.419 67.657,230.145 68.447 M329.556 68.562 C 328.810 69.190,328.572 69.861,328.813 70.663 C 329.577 73.216,333.363 72.181,332.653 69.613 C 332.289 68.292,330.570 67.709,329.556 68.562 M334.024 68.589 C 332.095 70.212,334.134 73.151,336.281 71.842 C 336.949 71.435,337.208 70.957,337.197 70.152 C 337.174 68.504,335.251 67.556,334.024 68.589 " stroke="none" fill="#445cb4" fill-rule="evenodd"></path><path id="path1" d="M22.353 32.458 C 22.363 38.027,22.394 42.471,22.421 42.333 C 22.448 42.196,22.560 41.521,22.670 40.833 C 24.142 31.640,31.836 24.080,41.250 22.579 C 42.413 22.393,41.292 22.364,32.458 22.350 L 22.333 22.333 22.353 32.458 M33.500 55.750 C 39.595 61.846,44.601 66.833,44.625 66.833 C 44.648 66.833,44.667 61.846,44.667 55.750 L 44.667 44.667 33.542 44.667 L 22.418 44.667 33.500 55.750 " stroke="none" fill="#848ecf" fill-rule="evenodd"></path><path id="path2" d="M33.417 55.833 C 39.558 61.975,44.620 67.000,44.666 67.000 C 44.712 67.000,39.724 61.975,33.583 55.833 C 27.442 49.692,22.380 44.667,22.334 44.667 C 22.288 44.667,27.276 49.692,33.417 55.833 M89.573 59.167 C 89.573 61.596,89.596 62.590,89.625 61.375 C 89.653 60.160,89.653 58.173,89.625 56.958 C 89.596 55.744,89.573 56.737,89.573 59.167 M208.570 58.833 C 208.570 60.712,208.595 61.481,208.624 60.542 C 208.654 59.602,208.654 58.065,208.624 57.125 C 208.595 56.185,208.570 56.954,208.570 58.833 M229.061 57.250 C 229.061 58.167,229.089 58.520,229.123 58.036 C 229.157 57.552,229.156 56.802,229.122 56.369 C 229.088 55.937,229.060 56.333,229.061 57.250 M233.072 59.750 C 233.072 62.042,233.096 63.002,233.124 61.885 C 233.153 60.767,233.153 58.892,233.125 57.718 C 233.096 56.544,233.072 57.458,233.072 59.750 M333.238 59.500 C 333.238 61.654,333.262 62.535,333.291 61.458 C 333.320 60.381,333.320 58.619,333.291 57.542 C 333.262 56.465,333.238 57.346,333.238 59.500 M186.730 60.833 C 186.730 61.887,186.757 62.319,186.790 61.792 C 186.823 61.265,186.823 60.402,186.790 59.875 C 186.757 59.348,186.730 59.779,186.730 60.833 M229.062 60.750 C 229.063 61.758,229.090 62.149,229.123 61.619 C 229.157 61.088,229.156 60.263,229.123 59.786 C 229.089 59.308,229.062 59.742,229.062 60.750 " stroke="none" fill="#445cbc" fill-rule="evenodd"></path><path id="path3" d="M43.208 22.448 C 43.369 22.490,43.631 22.490,43.792 22.448 C 43.952 22.406,43.821 22.372,43.500 22.372 C 43.179 22.372,43.048 22.406,43.208 22.448 M44.745 33.500 C 44.745 39.688,44.766 42.219,44.792 39.125 C 44.817 36.031,44.817 30.969,44.792 27.875 C 44.766 24.781,44.745 27.313,44.745 33.500 M28.909 28.875 L 28.250 29.583 28.958 28.925 C 29.348 28.562,29.667 28.243,29.667 28.216 C 29.667 28.090,29.522 28.216,28.909 28.875 " stroke="none" fill="#243484" fill-rule="evenodd"></path><path id="path4" d="M241.833 23.583 L 241.833 25.000 244.000 25.000 L 246.167 25.000 246.167 23.583 L 246.167 22.167 244.000 22.167 L 241.833 22.167 241.833 23.583 M320.833 30.917 L 320.833 39.667 322.833 39.667 L 324.833 39.667 324.833 30.917 L 324.833 22.167 322.833 22.167 L 320.833 22.167 320.833 30.917 M327.000 30.917 L 327.000 39.667 329.000 39.667 L 331.000 39.667 331.000 30.917 L 331.000 22.167 329.000 22.167 L 327.000 22.167 327.000 30.917 M42.667 22.511 C 31.637 23.536,23.432 32.058,22.416 43.542 L 22.316 44.667 33.492 44.667 L 44.667 44.667 44.667 33.500 C 44.667 22.967,44.650 22.335,44.375 22.357 C 44.215 22.369,43.446 22.439,42.667 22.511 M78.207 30.958 L 78.250 39.583 80.208 39.630 L 82.167 39.677 82.167 38.109 L 82.167 36.541 83.210 35.624 L 84.254 34.708 85.169 35.974 C 87.407 39.070,88.350 39.667,91.006 39.667 L 92.500 39.667 92.500 38.083 L 92.500 36.500 91.449 36.500 C 90.089 36.500,90.396 36.782,86.954 32.373 C 86.833 32.219,87.522 31.454,89.561 29.481 C 91.086 28.007,92.333 26.732,92.333 26.650 C 92.333 26.567,91.266 26.507,89.958 26.516 L 87.583 26.531 85.289 28.974 C 84.027 30.317,82.808 31.675,82.581 31.991 L 82.167 32.565 82.167 27.449 L 82.167 22.333 80.165 22.333 L 78.164 22.333 78.207 30.958 M146.167 23.667 L 146.167 25.000 148.333 25.000 L 150.500 25.000 150.500 23.667 L 150.500 22.333 148.333 22.333 L 146.167 22.333 146.167 23.667 M154.375 25.033 L 151.667 27.729 151.667 28.698 L 151.667 29.667 152.817 29.667 L 153.967 29.667 154.033 33.208 C 154.139 38.899,154.688 39.569,159.250 39.578 L 161.750 39.583 161.750 38.083 L 161.750 36.583 160.093 36.535 C 157.861 36.470,158.000 36.712,158.000 32.896 L 158.000 29.667 159.917 29.667 L 161.833 29.667 161.833 28.083 L 161.833 26.500 159.917 26.500 L 158.000 26.500 158.000 24.417 L 158.000 22.333 157.542 22.335 C 157.173 22.336,156.554 22.863,154.375 25.033 M171.784 25.023 L 168.985 27.710 169.034 28.646 L 169.083 29.583 170.292 29.632 L 171.500 29.681 171.501 33.049 C 171.503 38.829,172.058 39.533,176.703 39.640 L 179.167 39.697 179.167 38.099 L 179.167 36.500 177.597 36.500 C 175.301 36.500,175.500 36.834,175.500 32.982 L 175.500 29.667 177.333 29.667 L 179.167 29.667 179.167 28.083 L 179.167 26.500 177.333 26.500 L 175.500 26.500 175.500 24.417 L 175.500 22.333 175.042 22.335 C 174.678 22.337,174.008 22.889,171.784 25.023 M210.667 31.000 L 210.667 39.667 212.656 39.667 L 214.645 39.667 214.698 35.625 C 214.766 30.378,215.260 29.395,217.800 29.454 C 219.882 29.503,220.070 29.979,220.135 35.375 L 220.187 39.667 222.192 39.667 L 224.196 39.667 224.140 34.708 L 224.083 29.750 223.556 28.636 C 222.162 25.695,217.910 25.210,215.458 27.714 L 214.667 28.522 214.667 25.428 L 214.667 22.333 212.667 22.333 L 210.667 22.333 210.667 31.000 M277.833 31.000 L 277.833 39.667 279.833 39.667 L 281.833 39.667 281.833 31.000 L 281.833 22.333 279.833 22.333 L 277.833 22.333 277.833 31.000 M135.313 26.542 C 133.233 27.269,131.833 28.838,131.833 30.442 C 131.833 30.830,131.850 30.833,133.737 30.833 L 135.640 30.833 135.745 30.354 C 136.131 28.600,140.041 28.290,140.413 29.985 C 140.657 31.095,140.245 31.339,137.291 31.835 C 132.318 32.671,130.789 34.181,131.677 37.380 C 132.591 40.671,138.423 40.927,140.354 37.760 L 140.665 37.250 140.668 37.833 C 140.669 38.154,140.717 38.698,140.774 39.042 L 140.877 39.667 142.563 39.667 L 144.250 39.667 144.208 35.042 C 144.150 28.562,143.952 27.905,141.733 26.812 C 140.184 26.050,137.093 25.920,135.313 26.542 M184.504 26.425 C 180.448 27.554,178.544 32.588,180.612 36.714 C 182.852 41.184,191.182 41.317,193.268 36.917 C 193.874 35.639,193.907 35.667,191.808 35.667 L 189.949 35.667 189.398 36.310 C 187.656 38.345,184.379 37.366,183.763 34.625 L 183.660 34.167 188.686 34.167 L 193.711 34.167 193.626 32.542 C 193.376 27.740,189.388 25.066,184.504 26.425 M199.711 26.413 C 196.370 27.354,194.922 29.395,194.919 33.167 C 194.915 37.111,196.814 39.404,200.583 40.005 C 204.838 40.684,208.409 38.524,208.924 34.958 L 209.038 34.167 207.019 34.167 C 205.098 34.167,205.000 34.183,205.000 34.507 C 205.000 36.731,201.235 37.844,199.684 36.078 C 198.590 34.832,198.503 31.776,199.521 30.362 C 200.919 28.419,205.000 29.430,205.000 31.719 C 205.000 31.966,205.231 32.000,206.917 32.000 L 208.833 32.000 208.833 31.423 C 208.833 27.842,204.019 25.198,199.711 26.413 M232.968 26.478 C 232.009 26.865,231.391 27.332,230.792 28.122 L 230.333 28.726 230.333 27.613 L 230.333 26.500 228.333 26.500 L 226.333 26.500 226.333 33.083 L 226.333 39.667 228.333 39.667 L 230.333 39.667 230.333 36.114 C 230.333 30.600,231.218 28.963,233.917 29.481 C 235.707 29.824,235.833 30.221,235.833 35.503 L 235.833 39.667 237.842 39.667 L 239.851 39.667 239.801 34.625 C 239.745 29.068,239.669 28.641,238.533 27.443 C 237.396 26.245,234.704 25.778,232.968 26.478 M252.863 26.334 C 248.753 27.205,246.489 31.868,248.146 36.047 C 250.507 42.004,260.941 41.233,261.760 35.042 L 261.876 34.167 259.933 34.167 C 258.524 34.167,257.972 34.224,257.925 34.375 C 257.890 34.490,257.817 34.784,257.764 35.029 C 257.394 36.723,254.618 37.545,252.971 36.448 C 251.426 35.419,251.206 31.478,252.619 30.131 C 254.346 28.483,257.833 29.506,257.833 31.660 C 257.833 31.983,257.931 32.000,259.823 32.000 L 261.812 32.000 261.728 31.375 C 261.214 27.587,257.341 25.385,252.863 26.334 M267.167 26.396 C 264.982 27.031,263.333 28.733,263.333 30.354 L 263.333 30.833 265.237 30.833 L 267.140 30.833 267.245 30.354 C 267.631 28.600,271.541 28.290,271.913 29.985 C 272.157 31.095,271.745 31.339,268.791 31.835 C 263.818 32.671,262.289 34.181,263.177 37.380 C 264.091 40.671,269.923 40.927,271.854 37.760 L 272.165 37.250 272.168 37.833 C 272.169 38.154,272.217 38.698,272.274 39.042 L 272.377 39.667 274.063 39.667 L 275.750 39.667 275.708 35.042 C 275.650 28.562,275.452 27.905,273.233 26.812 C 271.932 26.172,268.699 25.950,267.167 26.396 M294.243 26.389 C 287.589 28.085,287.468 38.218,294.083 39.813 C 298.987 40.995,303.417 38.397,303.498 34.292 C 303.499 34.223,302.616 34.167,301.535 34.167 L 299.569 34.167 299.375 34.893 C 298.743 37.256,295.000 37.718,293.728 35.591 C 293.217 34.736,293.198 31.805,293.698 30.833 C 294.883 28.528,298.672 28.878,299.339 31.355 L 299.513 32.000 301.445 32.000 L 303.376 32.000 303.262 31.135 C 302.782 27.519,298.549 25.291,294.243 26.389 M309.667 26.350 C 303.615 27.531,302.482 36.748,308.069 39.348 C 313.183 41.729,318.693 38.909,318.961 33.774 C 319.247 28.312,315.391 25.232,309.667 26.350 M337.482 26.398 C 331.260 28.195,330.926 37.580,337.010 39.679 C 340.708 40.954,345.258 39.457,346.324 36.614 C 346.676 35.675,346.662 35.667,344.625 35.668 L 342.750 35.669 342.473 36.156 C 341.189 38.412,336.667 37.161,336.667 34.551 L 336.667 34.167 341.565 34.167 L 346.464 34.167 346.561 33.779 C 346.859 32.591,346.183 29.825,345.281 28.548 C 343.915 26.612,340.245 25.600,337.482 26.398 M351.825 26.394 C 346.577 27.809,346.190 36.926,351.297 38.836 C 353.628 39.709,356.326 39.340,357.792 37.949 L 358.333 37.435 358.330 38.842 C 358.323 41.274,357.676 42.107,355.649 42.291 C 353.832 42.455,352.323 41.759,352.078 40.643 L 351.974 40.167 349.968 40.167 L 347.963 40.167 348.078 40.792 C 348.645 43.870,351.160 45.302,355.667 45.114 C 358.493 44.995,359.717 44.588,360.857 43.389 C 362.258 41.913,362.333 41.396,362.333 33.242 L 362.333 26.500 360.333 26.500 L 358.333 26.500 358.333 27.264 L 358.333 28.028 357.601 27.383 C 356.331 26.266,353.866 25.843,351.825 26.394 M368.815 26.398 C 362.596 28.194,362.262 37.582,368.343 39.679 C 372.041 40.954,376.591 39.457,377.657 36.614 C 378.010 35.675,377.995 35.667,375.958 35.668 L 374.083 35.669 373.806 36.156 C 372.523 38.412,368.000 37.161,368.000 34.551 L 368.000 34.167 372.899 34.167 L 377.797 34.167 377.895 33.779 C 378.193 32.591,377.516 29.825,376.615 28.548 C 375.248 26.612,371.579 25.600,368.815 26.398 M93.389 26.762 C 93.108 27.495,93.454 36.244,93.799 37.135 C 95.189 40.723,100.200 41.277,102.524 38.100 L 103.000 37.450 103.000 38.558 L 103.000 39.667 105.000 39.667 L 107.000 39.667 107.000 33.083 L 107.000 26.500 105.014 26.500 L 103.027 26.500 102.972 30.292 L 102.917 34.083 102.417 35.083 C 101.776 36.364,100.871 36.906,99.604 36.767 C 97.635 36.550,97.500 36.165,97.500 30.755 L 97.500 26.500 95.495 26.500 C 93.824 26.500,93.473 26.544,93.389 26.762 M108.167 26.795 C 108.167 26.957,108.311 27.614,108.488 28.253 C 108.665 28.893,109.381 31.592,110.080 34.250 C 110.778 36.908,111.389 39.215,111.436 39.375 C 111.566 39.813,116.951 39.821,117.119 39.383 C 117.179 39.227,117.760 37.249,118.411 34.987 L 119.593 30.874 120.493 33.979 C 120.987 35.686,121.569 37.665,121.786 38.375 L 122.179 39.667 124.917 39.667 L 127.654 39.667 127.836 38.958 C 127.937 38.569,128.087 38.025,128.170 37.750 C 128.313 37.274,129.388 33.211,130.585 28.625 L 131.139 26.500 129.250 26.500 L 127.361 26.500 126.150 31.458 L 124.938 36.417 124.064 33.667 C 123.584 32.154,122.877 29.923,122.494 28.708 L 121.798 26.500 119.750 26.500 L 117.702 26.500 117.006 28.708 C 116.623 29.923,115.916 32.154,115.436 33.667 L 114.562 36.417 113.331 31.458 L 112.099 26.500 110.133 26.500 C 108.363 26.500,108.167 26.529,108.167 26.795 M146.333 33.083 L 146.333 39.667 148.333 39.667 L 150.333 39.667 150.333 33.083 L 150.333 26.500 148.333 26.500 L 146.333 26.500 146.333 33.083 M242.000 33.083 L 242.000 39.667 244.000 39.667 L 246.000 39.667 246.000 33.083 L 246.000 26.500 244.000 26.500 L 242.000 26.500 242.000 33.083 M188.640 29.288 C 189.283 29.768,189.665 30.359,189.776 31.046 L 189.877 31.667 186.855 31.667 C 183.456 31.667,183.555 31.712,184.144 30.417 C 184.815 28.942,187.330 28.310,188.640 29.288 M341.448 29.223 C 342.067 29.543,342.446 30.102,342.646 30.989 L 342.798 31.667 339.732 31.667 C 336.345 31.667,336.463 31.714,336.985 30.566 C 337.711 28.966,339.760 28.350,341.448 29.223 M372.782 29.223 C 373.401 29.543,373.780 30.102,373.979 30.989 L 374.131 31.667 371.066 31.667 C 367.679 31.667,367.797 31.714,368.318 30.566 C 369.044 28.966,371.093 28.350,372.782 29.223 M313.780 29.768 C 315.465 31.024,315.428 35.543,313.724 36.538 C 312.612 37.188,310.362 37.048,309.526 36.277 C 308.189 35.045,308.151 31.137,309.465 29.948 C 310.252 29.236,312.917 29.125,313.780 29.768 M357.113 29.761 C 358.532 30.799,358.751 34.169,357.483 35.465 C 356.591 36.378,354.198 36.592,352.961 35.871 C 351.030 34.745,351.373 30.150,353.437 29.498 C 354.333 29.215,356.587 29.376,357.113 29.761 M140.331 34.594 C 139.752 37.383,135.706 38.398,135.533 35.797 C 135.463 34.741,135.987 34.330,138.027 33.838 C 138.883 33.631,139.771 33.364,140.000 33.245 C 140.533 32.966,140.607 33.267,140.331 34.594 M271.831 34.594 C 271.252 37.383,267.206 38.398,267.033 35.797 C 266.963 34.741,267.487 34.330,269.527 33.838 C 270.383 33.631,271.271 33.364,271.500 33.245 C 272.033 32.966,272.107 33.267,271.831 34.594 M44.833 55.808 L 44.833 67.000 56.000 67.000 L 67.167 67.000 67.166 65.958 C 67.159 55.338,57.512 45.364,46.625 44.722 L 44.833 44.616 44.833 55.808 " stroke="none" fill="#242c7c" fill-rule="evenodd"></path></g></svg>