<svg id="svg" version="1.1" xmlns="http://www.w3.org/2000/svg" xmlns:xlink="http://www.w3.org/1999/xlink" width="400" height="400" viewBox="0, 0, 400,400"><g id="svgg"><path id="path0" d="M0.000 189.067 C 0.000 293.053,0.135 377.999,0.300 377.835 C 0.465 377.671,0.718 374.806,0.861 371.468 C 1.005 368.131,1.429 362.790,1.804 359.600 C 2.178 356.410,2.624 352.270,2.796 350.400 C 2.967 348.530,3.417 345.200,3.796 343.000 C 4.455 339.172,4.608 338.128,5.546 331.113 C 5.773 329.415,6.148 327.671,6.379 327.239 C 6.611 326.806,6.800 325.869,6.800 325.155 C 6.800 324.441,6.965 323.304,7.167 322.628 C 7.534 321.402,8.351 317.539,9.205 313.000 C 9.706 310.337,10.705 306.236,12.226 300.600 C 12.583 299.280,13.048 297.480,13.261 296.600 C 14.146 292.943,15.635 287.812,17.788 281.000 C 18.274 279.460,19.171 276.580,19.779 274.600 C 20.388 272.620,21.025 270.640,21.195 270.200 C 21.365 269.760,21.782 268.680,22.122 267.800 C 22.462 266.920,23.215 264.850,23.795 263.200 C 24.375 261.550,24.996 259.924,25.174 259.587 C 25.352 259.250,25.625 258.397,25.780 257.691 C 25.935 256.986,26.228 256.306,26.431 256.181 C 26.634 256.055,26.800 255.601,26.800 255.171 C 26.800 254.741,26.971 254.077,27.181 253.695 C 27.390 253.313,27.818 252.370,28.133 251.600 C 28.447 250.830,29.176 249.160,29.752 247.889 C 30.328 246.618,30.800 245.401,30.800 245.184 C 30.800 244.967,30.962 244.477,31.159 244.095 C 32.421 241.657,33.600 239.070,33.600 238.742 C 33.600 238.352,35.591 234.087,40.237 224.525 C 41.647 221.623,42.800 219.073,42.800 218.858 C 42.800 218.643,42.935 218.407,43.100 218.333 C 43.265 218.260,43.805 217.390,44.301 216.400 C 44.796 215.410,45.940 213.250,46.843 211.600 C 47.746 209.950,49.048 207.520,49.737 206.200 C 50.425 204.880,51.081 203.710,51.194 203.600 C 51.307 203.490,51.758 202.680,52.196 201.800 C 52.634 200.920,53.084 200.110,53.196 200.000 C 53.483 199.719,54.352 198.315,54.682 197.600 C 54.834 197.270,56.003 195.324,57.279 193.276 C 58.556 191.228,59.600 189.445,59.600 189.314 C 59.600 189.183,60.010 188.519,60.511 187.838 C 61.011 187.157,61.772 185.925,62.201 185.100 C 62.631 184.275,63.121 183.600,63.291 183.600 C 63.461 183.600,63.600 183.345,63.600 183.033 C 63.600 182.722,63.735 182.407,63.900 182.333 C 64.065 182.260,66.438 178.870,69.174 174.800 C 71.909 170.730,74.789 166.579,75.574 165.575 C 76.358 164.571,77.360 163.254,77.800 162.647 C 78.240 162.040,79.590 160.238,80.800 158.642 C 82.010 157.046,83.360 155.241,83.800 154.630 C 84.682 153.407,86.230 151.432,87.275 150.197 C 87.646 149.759,89.505 147.510,91.407 145.200 C 94.820 141.054,97.181 138.239,98.690 136.517 C 106.876 127.178,128.768 105.300,136.517 98.714 C 137.003 98.301,138.210 97.264,139.200 96.410 C 140.190 95.556,142.890 93.303,145.200 91.403 C 147.510 89.504,149.759 87.646,150.197 87.275 C 151.432 86.230,153.407 84.682,154.630 83.800 C 155.816 82.945,161.532 78.648,162.200 78.109 C 164.038 76.625,170.995 71.732,176.600 67.981 C 180.340 65.478,183.490 63.333,183.600 63.215 C 183.868 62.927,185.256 62.061,186.000 61.718 C 186.330 61.566,188.945 59.982,191.811 58.198 C 194.678 56.413,197.288 54.827,197.611 54.673 C 197.935 54.519,198.740 54.064,199.400 53.662 C 200.060 53.260,201.680 52.332,203.000 51.600 C 204.320 50.868,206.210 49.816,207.200 49.263 C 213.381 45.808,219.975 42.468,231.200 37.104 C 236.000 34.810,237.152 34.285,239.800 33.186 C 240.460 32.912,241.540 32.462,242.200 32.186 C 242.860 31.910,243.940 31.463,244.600 31.193 C 245.260 30.923,246.278 30.454,246.862 30.151 C 247.446 29.848,248.211 29.600,248.562 29.600 C 248.913 29.600,249.200 29.420,249.200 29.200 C 249.200 28.980,249.545 28.800,249.968 28.800 C 250.390 28.800,251.245 28.547,251.868 28.237 C 253.001 27.674,253.439 27.493,256.800 26.207 C 257.790 25.828,258.913 25.356,259.295 25.159 C 259.677 24.962,260.255 24.800,260.581 24.800 C 261.125 24.800,263.209 24.004,264.895 23.151 C 265.277 22.958,265.916 22.800,266.315 22.800 C 266.714 22.800,267.211 22.645,267.420 22.456 C 267.629 22.267,268.790 21.789,270.000 21.395 C 271.210 21.001,272.767 20.436,273.460 20.139 C 274.154 19.843,274.951 19.600,275.232 19.600 C 275.762 19.600,277.581 19.062,280.000 18.191 C 280.770 17.913,282.210 17.467,283.200 17.200 C 284.190 16.933,285.630 16.483,286.400 16.200 C 287.170 15.917,288.520 15.491,289.400 15.254 C 290.280 15.016,292.080 14.530,293.400 14.174 C 294.720 13.817,296.430 13.375,297.200 13.191 C 297.970 13.007,299.680 12.565,301.000 12.209 C 302.320 11.853,304.030 11.405,304.800 11.213 C 305.570 11.021,307.010 10.639,308.000 10.366 C 308.990 10.092,310.655 9.718,311.700 9.534 C 317.467 8.520,321.073 7.769,323.028 7.174 C 323.704 6.968,324.841 6.800,325.555 6.800 C 326.269 6.800,327.173 6.628,327.565 6.419 C 328.243 6.056,331.513 5.506,337.200 4.799 C 338.630 4.621,341.510 4.180,343.600 3.819 C 345.690 3.458,349.110 3.003,351.200 2.808 C 353.290 2.612,357.520 2.155,360.600 1.792 C 363.680 1.429,369.380 1.012,373.267 0.866 C 377.155 0.720,380.470 0.465,380.634 0.300 C 380.799 0.135,295.223 0.000,190.467 0.000 L 0.000 0.000 0.000 189.067 " stroke="none" fill="#8b93d3" fill-rule="evenodd"></path><path id="path1" d="M395.362 0.398 C 395.138 0.622,390.071 0.978,383.782 1.211 C 377.632 1.439,371.599 1.800,370.376 2.013 C 369.153 2.226,366.506 2.400,364.495 2.400 C 362.483 2.400,360.424 2.573,359.919 2.785 C 359.071 3.140,353.070 3.810,346.800 4.249 C 345.370 4.349,343.840 4.598,343.400 4.802 C 342.481 5.228,337.409 5.975,333.600 6.246 C 332.170 6.348,330.640 6.593,330.200 6.790 C 329.219 7.230,325.299 7.997,322.600 8.276 C 321.500 8.389,320.408 8.638,320.174 8.829 C 319.939 9.020,318.719 9.297,317.462 9.444 C 316.206 9.592,315.082 9.867,314.965 10.056 C 314.848 10.245,313.773 10.400,312.576 10.400 C 311.379 10.400,310.400 10.563,310.400 10.762 C 310.400 10.962,309.500 11.249,308.400 11.400 C 307.301 11.551,306.300 11.838,306.177 12.037 C 306.054 12.237,305.254 12.400,304.400 12.400 C 303.546 12.400,302.742 12.570,302.614 12.777 C 302.486 12.984,301.573 13.275,300.586 13.423 C 299.598 13.571,298.692 13.852,298.571 14.046 C 298.451 14.241,297.553 14.400,296.576 14.400 C 295.599 14.400,294.800 14.580,294.800 14.800 C 294.800 15.020,294.125 15.206,293.300 15.213 C 292.475 15.220,291.451 15.490,291.024 15.813 C 290.596 16.136,289.651 16.400,288.924 16.400 C 288.196 16.400,287.600 16.580,287.600 16.800 C 287.600 17.020,286.992 17.200,286.249 17.200 C 285.506 17.200,284.674 17.470,284.400 17.800 C 284.126 18.130,283.395 18.400,282.775 18.400 C 282.155 18.400,281.536 18.580,281.400 18.800 C 281.264 19.020,280.658 19.200,280.053 19.200 C 279.448 19.200,278.604 19.464,278.176 19.787 C 277.749 20.110,276.815 20.380,276.100 20.387 C 275.385 20.394,274.800 20.580,274.800 20.800 C 274.800 21.020,274.192 21.200,273.449 21.200 C 272.706 21.200,271.874 21.470,271.600 21.800 C 271.326 22.130,270.685 22.400,270.175 22.400 C 269.665 22.400,269.136 22.580,269.000 22.800 C 268.864 23.020,268.358 23.206,267.876 23.213 C 267.394 23.220,266.651 23.490,266.224 23.813 C 265.796 24.136,265.031 24.400,264.524 24.400 C 264.016 24.400,263.600 24.580,263.600 24.800 C 263.600 25.020,263.082 25.200,262.449 25.200 C 261.816 25.200,261.074 25.470,260.800 25.800 C 260.526 26.130,259.885 26.400,259.375 26.400 C 258.865 26.400,258.336 26.580,258.200 26.800 C 258.064 27.020,257.423 27.200,256.776 27.200 C 256.129 27.200,255.600 27.377,255.600 27.592 C 255.600 27.808,255.105 28.092,254.500 28.223 C 253.312 28.481,251.759 29.080,250.800 29.649 C 250.470 29.845,249.930 30.107,249.600 30.232 C 249.270 30.356,248.687 30.625,248.305 30.829 C 247.923 31.033,247.270 31.200,246.854 31.200 C 246.438 31.200,245.874 31.470,245.600 31.800 C 245.326 32.130,244.852 32.400,244.546 32.400 C 244.240 32.400,243.677 32.554,243.295 32.741 C 242.597 33.084,240.663 33.928,238.800 34.704 C 238.250 34.933,236.270 35.836,234.400 36.710 C 229.356 39.067,228.262 39.588,227.600 39.949 C 225.817 40.920,225.158 41.200,224.654 41.200 C 224.348 41.200,223.874 41.470,223.600 41.800 C 223.326 42.130,222.764 42.400,222.351 42.400 C 221.938 42.400,221.600 42.580,221.600 42.800 C 221.600 43.020,221.169 43.200,220.643 43.200 C 220.116 43.200,219.582 43.470,219.455 43.800 C 219.329 44.130,218.859 44.400,218.413 44.400 C 217.966 44.400,217.600 44.580,217.600 44.800 C 217.600 45.020,217.251 45.200,216.824 45.200 C 216.397 45.200,215.936 45.380,215.799 45.601 C 215.663 45.822,214.797 46.374,213.876 46.830 C 211.771 47.869,209.429 49.138,207.471 50.300 C 206.637 50.795,205.695 51.200,205.377 51.200 C 205.060 51.200,204.800 51.377,204.800 51.592 C 204.800 51.808,204.350 52.098,203.800 52.236 C 203.250 52.374,202.800 52.647,202.800 52.843 C 202.800 53.040,202.518 53.200,202.173 53.200 C 201.829 53.200,200.957 53.650,200.236 54.200 C 199.514 54.750,198.794 55.200,198.636 55.200 C 198.477 55.200,197.757 55.650,197.036 56.200 C 196.314 56.750,195.516 57.200,195.262 57.200 C 195.008 57.200,194.800 57.377,194.800 57.592 C 194.800 57.808,194.350 58.098,193.800 58.236 C 193.250 58.374,192.798 58.602,192.795 58.743 C 192.793 58.885,192.073 59.344,191.195 59.764 C 190.318 60.185,189.600 60.680,189.600 60.864 C 189.600 61.049,189.240 61.200,188.800 61.200 C 188.360 61.200,188.000 61.339,188.000 61.509 C 188.000 61.679,187.325 62.172,186.500 62.605 C 185.675 63.038,184.910 63.484,184.800 63.596 C 184.188 64.220,179.574 67.200,179.220 67.200 C 178.989 67.200,178.800 67.375,178.800 67.590 C 178.800 67.804,178.215 68.279,177.500 68.646 C 176.785 69.012,176.110 69.435,176.000 69.586 C 175.890 69.737,175.175 70.207,174.411 70.630 C 173.648 71.054,172.569 71.805,172.015 72.300 C 171.461 72.795,170.781 73.200,170.504 73.200 C 170.227 73.200,170.000 73.341,170.000 73.514 C 170.000 73.686,169.415 74.168,168.700 74.584 C 167.985 74.999,167.310 75.456,167.200 75.598 C 167.090 75.740,165.920 76.641,164.600 77.600 C 163.280 78.559,162.110 79.464,162.000 79.612 C 161.890 79.759,161.148 80.311,160.351 80.840 C 158.722 81.920,154.307 85.217,154.000 85.582 C 153.890 85.713,152.991 86.446,152.001 87.210 C 149.383 89.233,148.776 89.728,148.051 90.431 C 147.693 90.778,146.680 91.588,145.800 92.230 C 144.920 92.873,143.734 93.849,143.165 94.400 C 142.595 94.950,141.630 95.760,141.020 96.200 C 140.410 96.640,139.674 97.225,139.384 97.500 C 139.094 97.775,138.664 98.000,138.429 98.000 C 138.193 98.000,138.000 98.270,138.000 98.600 C 138.000 98.930,137.850 99.200,137.667 99.200 C 137.484 99.200,136.269 100.236,134.967 101.503 C 133.665 102.770,131.620 104.615,130.423 105.603 C 127.641 107.898,107.980 127.532,105.600 130.391 C 104.610 131.580,102.765 133.625,101.500 134.935 C 100.235 136.244,99.200 137.470,99.200 137.658 C 99.200 137.846,98.930 138.000,98.600 138.000 C 98.270 138.000,98.000 138.270,98.000 138.600 C 98.000 138.930,97.865 139.201,97.700 139.203 C 97.535 139.204,96.951 139.864,96.403 140.669 C 95.855 141.474,94.955 142.597,94.403 143.166 C 93.851 143.735,92.873 144.920,92.230 145.800 C 91.588 146.680,90.778 147.693,90.431 148.051 C 89.728 148.776,89.233 149.383,87.210 152.001 C 86.446 152.991,85.713 153.890,85.582 154.000 C 85.217 154.307,81.920 158.722,80.840 160.351 C 80.311 161.148,79.759 161.890,79.612 162.000 C 79.239 162.278,75.898 166.727,75.351 167.672 C 75.104 168.099,74.519 168.889,74.051 169.427 C 73.583 169.966,73.200 170.542,73.200 170.707 C 73.200 170.873,72.795 171.466,72.300 172.025 C 71.165 173.308,70.443 174.404,70.142 175.300 C 70.012 175.685,69.776 176.000,69.616 176.000 C 69.457 176.000,68.987 176.630,68.572 177.400 C 68.157 178.170,67.679 178.800,67.509 178.800 C 67.339 178.800,67.200 179.070,67.200 179.400 C 67.200 179.730,67.020 180.000,66.800 180.000 C 66.580 180.000,66.400 180.175,66.400 180.388 C 66.400 180.725,64.164 184.243,63.596 184.800 C 63.484 184.910,63.038 185.675,62.605 186.500 C 62.172 187.325,61.679 188.000,61.509 188.000 C 61.339 188.000,61.200 188.283,61.200 188.629 C 61.200 188.974,60.975 189.508,60.700 189.815 C 59.456 191.202,59.200 191.606,59.200 192.183 C 59.200 192.522,59.061 192.800,58.891 192.800 C 58.721 192.800,58.228 193.475,57.795 194.300 C 57.362 195.125,56.916 195.890,56.804 196.000 C 56.494 196.304,55.699 197.648,54.948 199.137 C 54.577 199.872,54.032 200.566,53.737 200.680 C 53.442 200.793,53.200 201.316,53.200 201.843 C 53.200 202.369,53.040 202.800,52.843 202.800 C 52.647 202.800,52.374 203.250,52.236 203.800 C 52.098 204.350,51.808 204.800,51.592 204.800 C 51.377 204.800,51.200 205.074,51.200 205.408 C 51.200 205.742,50.790 206.687,50.289 207.508 C 49.787 208.329,49.026 209.675,48.598 210.500 C 48.169 211.325,47.679 212.000,47.509 212.000 C 47.339 212.000,47.200 212.242,47.200 212.539 C 47.200 213.226,46.067 215.512,45.575 215.816 C 45.369 215.943,45.200 216.397,45.200 216.824 C 45.200 217.251,45.020 217.600,44.800 217.600 C 44.580 217.600,44.400 217.966,44.400 218.413 C 44.400 218.859,44.130 219.329,43.800 219.455 C 43.470 219.582,43.200 220.116,43.200 220.643 C 43.200 221.169,43.020 221.600,42.800 221.600 C 42.580 221.600,42.400 221.966,42.400 222.413 C 42.400 222.859,42.130 223.329,41.800 223.455 C 41.470 223.582,41.200 224.116,41.200 224.643 C 41.200 225.169,41.020 225.600,40.800 225.600 C 40.580 225.600,40.400 225.938,40.400 226.351 C 40.400 226.764,40.130 227.326,39.800 227.600 C 39.470 227.874,39.200 228.425,39.200 228.825 C 39.200 229.225,39.020 229.664,38.800 229.800 C 38.580 229.936,38.400 230.397,38.400 230.824 C 38.400 231.251,38.255 231.600,38.077 231.600 C 37.899 231.600,37.434 232.365,37.043 233.300 C 36.653 234.235,36.097 235.540,35.809 236.200 C 35.520 236.860,35.064 237.940,34.796 238.600 C 34.527 239.260,34.147 240.070,33.951 240.400 C 33.755 240.730,33.493 241.270,33.368 241.600 C 33.244 241.930,32.975 242.513,32.771 242.895 C 32.567 243.277,32.400 243.930,32.400 244.346 C 32.400 244.762,32.130 245.326,31.800 245.600 C 31.470 245.874,31.200 246.348,31.200 246.654 C 31.200 246.960,31.046 247.523,30.859 247.905 C 30.481 248.674,29.577 250.754,28.819 252.600 C 28.548 253.260,28.073 254.310,27.763 254.932 C 27.453 255.555,27.200 256.400,27.200 256.809 C 27.200 257.218,27.020 257.664,26.800 257.800 C 26.580 257.936,26.400 258.465,26.400 258.975 C 26.400 259.485,26.130 260.126,25.800 260.400 C 25.470 260.674,25.200 261.405,25.200 262.025 C 25.200 262.645,25.020 263.264,24.800 263.400 C 24.580 263.536,24.394 264.042,24.387 264.524 C 24.380 265.006,24.110 265.749,23.787 266.176 C 23.464 266.604,23.200 267.369,23.200 267.876 C 23.200 268.384,23.020 268.800,22.800 268.800 C 22.580 268.800,22.400 269.346,22.400 270.013 C 22.400 270.721,22.151 271.321,21.800 271.455 C 21.433 271.596,21.200 272.203,21.200 273.019 C 21.200 273.753,21.020 274.464,20.800 274.600 C 20.580 274.736,20.394 275.332,20.387 275.924 C 20.380 276.516,20.110 277.349,19.787 277.776 C 19.464 278.204,19.200 279.048,19.200 279.653 C 19.200 280.258,19.020 280.864,18.800 281.000 C 18.580 281.136,18.400 281.742,18.400 282.347 C 18.400 282.952,18.136 283.796,17.813 284.224 C 17.490 284.651,17.220 285.484,17.213 286.076 C 17.206 286.668,17.020 287.264,16.800 287.400 C 16.580 287.536,16.400 288.189,16.400 288.852 C 16.400 289.515,16.130 290.327,15.800 290.657 C 15.470 290.987,15.200 291.964,15.200 292.829 C 15.200 293.693,15.020 294.400,14.800 294.400 C 14.580 294.400,14.400 295.199,14.400 296.176 C 14.400 297.153,14.244 298.049,14.053 298.168 C 13.861 298.286,13.584 299.142,13.435 300.071 C 13.286 301.000,13.013 301.949,12.827 302.180 C 12.642 302.411,12.395 303.320,12.278 304.200 C 11.996 306.333,11.074 309.860,10.700 310.234 C 10.535 310.398,10.400 311.393,10.400 312.443 C 10.400 313.493,10.245 314.448,10.056 314.565 C 9.867 314.682,9.592 315.806,9.444 317.062 C 9.297 318.319,9.020 319.539,8.829 319.774 C 8.638 320.008,8.385 321.100,8.266 322.200 C 7.887 325.697,7.079 329.600,6.734 329.600 C 6.550 329.600,6.400 330.939,6.400 332.576 C 6.400 334.213,6.245 335.648,6.056 335.765 C 5.867 335.882,5.586 337.373,5.431 339.078 C 5.277 340.783,4.998 342.363,4.811 342.589 C 4.624 342.815,4.375 344.260,4.256 345.800 C 3.650 353.692,3.136 358.270,2.788 358.895 C 2.574 359.277,2.400 361.275,2.400 363.335 C 2.400 365.395,2.232 367.602,2.026 368.240 C 1.820 368.878,1.529 373.502,1.380 378.516 C 1.174 385.473,0.978 387.764,0.555 388.188 C 0.134 388.609,0.000 390.105,0.000 394.371 L 0.000 400.000 199.357 400.000 C 380.776 400.000,398.736 399.943,398.957 399.367 C 399.091 399.019,399.200 309.019,399.200 199.367 L 399.200 0.000 397.480 0.000 C 396.534 0.000,395.581 0.179,395.362 0.398 " stroke="none" fill="#242c7c" fill-rule="evenodd"></path><path id="path2" d="M380.200 0.400 C 379.656 0.634,380.386 0.753,382.476 0.772 C 384.168 0.787,385.664 0.620,385.800 0.400 C 386.106 -0.095,381.352 -0.095,380.200 0.400 M367.110 1.023 C 366.988 1.146,365.383 1.404,363.544 1.598 L 360.200 1.951 364.200 1.731 C 366.400 1.610,370.270 1.385,372.800 1.231 L 377.400 0.950 372.367 0.875 C 369.598 0.834,367.233 0.900,367.110 1.023 M355.400 2.400 C 354.262 2.690,354.283 2.705,355.800 2.705 C 356.680 2.705,357.940 2.568,358.600 2.400 C 359.738 2.110,359.717 2.095,358.200 2.095 C 357.320 2.095,356.060 2.232,355.400 2.400 M347.893 3.041 C 347.761 3.173,346.696 3.433,345.526 3.618 C 342.761 4.057,347.115 3.757,351.000 3.241 L 353.400 2.922 350.767 2.861 C 349.318 2.827,348.025 2.908,347.893 3.041 M340.200 4.400 C 339.106 4.870,340.933 4.870,342.400 4.400 C 343.375 4.088,343.370 4.079,342.200 4.068 C 341.540 4.062,340.640 4.211,340.200 4.400 M334.699 5.035 C 334.569 5.164,333.067 5.443,331.360 5.655 C 329.654 5.867,327.974 6.222,327.629 6.444 C 327.158 6.747,327.302 6.790,328.200 6.614 C 328.860 6.485,330.750 6.185,332.400 5.948 C 334.050 5.710,336.210 5.379,337.200 5.211 L 339.000 4.907 336.967 4.853 C 335.848 4.824,334.828 4.906,334.699 5.035 M322.800 7.218 C 322.250 7.402,320.751 7.759,319.469 8.011 C 318.187 8.264,317.231 8.565,317.345 8.679 C 317.459 8.793,318.418 8.695,319.476 8.461 C 326.147 6.988,326.585 6.867,325.200 6.876 C 324.430 6.881,323.350 7.035,322.800 7.218 M313.600 9.200 C 313.270 9.413,312.476 9.591,311.835 9.594 C 311.194 9.597,309.664 9.887,308.435 10.237 C 307.206 10.587,305.570 11.029,304.800 11.218 C 304.030 11.407,302.320 11.853,301.000 12.209 C 299.680 12.565,297.970 13.007,297.200 13.191 C 295.925 13.496,293.785 14.063,289.400 15.257 C 287.026 15.904,285.551 16.484,285.757 16.691 C 285.926 16.859,287.894 16.318,289.800 15.579 C 290.779 15.199,293.644 14.450,295.800 14.011 C 296.680 13.831,298.480 13.374,299.800 12.995 C 301.120 12.616,302.830 12.165,303.600 11.993 C 304.370 11.820,306.440 11.320,308.200 10.882 C 309.960 10.444,312.480 9.866,313.800 9.597 C 317.054 8.936,317.218 8.867,315.600 8.838 C 314.830 8.824,313.930 8.987,313.600 9.200 M282.600 17.296 C 279.767 18.268,279.185 18.518,279.357 18.691 C 279.528 18.861,281.556 18.301,283.400 17.574 C 283.840 17.400,284.470 17.170,284.800 17.061 C 285.192 16.932,285.122 16.867,284.600 16.874 C 284.160 16.880,283.260 17.070,282.600 17.296 M276.800 19.161 C 276.470 19.346,275.531 19.617,274.714 19.764 C 273.229 20.031,272.218 20.800,273.353 20.800 C 273.683 20.800,274.064 20.620,274.200 20.400 C 274.336 20.180,274.941 20.000,275.544 20.000 C 276.147 20.000,276.811 19.837,277.020 19.639 C 277.229 19.440,277.760 19.191,278.200 19.085 L 279.000 18.893 278.200 18.859 C 277.760 18.840,277.130 18.976,276.800 19.161 M269.800 21.414 C 268.182 22.155,269.548 22.157,271.254 21.416 C 272.150 21.027,272.333 20.837,271.800 20.848 C 271.360 20.857,270.460 21.112,269.800 21.414 M264.800 23.190 C 264.470 23.379,263.609 23.753,262.887 24.021 C 262.165 24.289,261.635 24.569,261.710 24.643 C 261.843 24.776,266.439 23.233,266.767 22.946 C 267.110 22.645,265.376 22.861,264.800 23.190 M259.200 25.176 C 258.870 25.357,257.970 25.785,257.200 26.127 C 256.430 26.469,256.104 26.760,256.476 26.774 C 256.848 26.788,257.264 26.620,257.400 26.400 C 257.536 26.180,257.976 26.000,258.378 26.000 C 258.780 26.000,259.624 25.731,260.254 25.402 C 261.161 24.929,261.233 24.809,260.600 24.826 C 260.160 24.838,259.530 24.995,259.200 25.176 M254.000 27.181 C 253.670 27.364,252.882 27.721,252.248 27.972 C 251.615 28.224,251.192 28.526,251.309 28.643 C 251.426 28.760,251.855 28.685,252.261 28.476 C 252.667 28.267,253.630 27.816,254.400 27.474 C 255.170 27.131,255.530 26.850,255.200 26.849 C 254.870 26.848,254.330 26.997,254.000 27.181 M249.200 29.200 C 249.200 29.420,248.874 29.600,248.476 29.600 C 248.079 29.600,247.404 29.864,246.976 30.187 C 246.109 30.843,246.435 30.997,247.505 30.436 C 247.887 30.236,248.830 29.790,249.600 29.445 C 250.732 28.938,250.828 28.816,250.100 28.809 C 249.605 28.804,249.200 28.980,249.200 29.200 M244.400 31.181 C 244.070 31.364,243.282 31.721,242.648 31.972 C 242.015 32.224,241.592 32.526,241.709 32.643 C 241.826 32.760,242.255 32.685,242.661 32.476 C 243.067 32.267,244.030 31.816,244.800 31.474 C 245.570 31.131,245.930 30.850,245.600 30.849 C 245.270 30.848,244.730 30.997,244.400 31.181 M239.600 33.181 C 239.270 33.364,238.482 33.721,237.848 33.972 C 237.215 34.224,236.787 34.520,236.897 34.630 C 237.006 34.740,238.065 34.388,239.248 33.848 C 240.432 33.308,241.130 32.861,240.800 32.856 C 240.470 32.851,239.930 32.997,239.600 33.181 M230.800 37.194 C 228.270 38.458,223.950 40.597,221.200 41.948 C 216.259 44.374,211.265 46.991,206.600 49.599 C 205.280 50.337,203.527 51.302,202.705 51.742 C 201.883 52.183,201.271 52.604,201.346 52.679 C 201.421 52.754,202.814 52.084,204.441 51.189 C 206.069 50.294,207.895 49.373,208.500 49.142 C 209.105 48.911,209.600 48.559,209.600 48.361 C 209.600 48.162,209.844 48.000,210.143 48.000 C 210.441 48.000,212.196 47.142,214.043 46.093 C 215.889 45.044,218.390 43.708,219.600 43.124 C 220.810 42.541,224.619 40.699,228.064 39.032 C 231.509 37.364,234.479 35.994,234.664 35.987 C 234.849 35.980,235.349 35.710,235.776 35.387 C 237.357 34.191,235.346 34.922,230.800 37.194 M199.400 53.625 C 198.740 54.046,197.935 54.518,197.611 54.672 C 197.079 54.927,187.045 61.056,185.600 62.009 C 185.270 62.227,184.730 62.526,184.400 62.673 C 184.070 62.821,183.710 63.052,183.600 63.186 C 183.490 63.320,180.340 65.478,176.600 67.981 C 170.995 71.732,164.038 76.625,162.200 78.109 C 161.532 78.648,155.816 82.945,154.630 83.800 C 153.407 84.682,151.432 86.230,150.197 87.275 C 149.478 87.884,143.769 92.597,139.776 95.878 C 138.921 96.580,138.307 97.231,138.411 97.324 C 138.515 97.417,140.850 95.609,143.600 93.307 C 148.379 89.305,154.779 84.180,158.200 81.617 C 159.080 80.957,161.330 79.265,163.200 77.856 C 170.149 72.621,190.982 58.922,198.479 54.659 C 199.513 54.071,200.469 53.413,200.603 53.195 C 200.921 52.680,200.826 52.714,199.400 53.625 M136.721 98.529 C 128.249 105.815,106.974 127.067,98.690 136.517 C 96.866 138.599,89.513 147.432,88.050 149.300 C 87.749 149.685,87.605 150.000,87.731 150.000 C 87.957 150.000,91.645 145.669,95.395 141.000 C 96.455 139.680,98.330 137.514,99.561 136.188 C 100.793 134.861,103.232 132.161,104.982 130.188 C 109.096 125.550,125.552 109.094,130.188 104.982 C 134.690 100.989,138.261 97.618,138.000 97.609 C 137.890 97.604,137.314 98.019,136.721 98.529 M85.777 152.027 C 85.130 152.921,84.420 153.867,84.200 154.128 C 83.084 155.454,82.648 156.125,83.065 155.875 C 83.769 155.453,87.662 150.400,87.283 150.400 C 87.102 150.400,86.424 151.132,85.777 152.027 M80.557 158.971 C 79.481 160.385,78.240 162.038,77.800 162.646 C 77.360 163.253,76.358 164.571,75.574 165.575 C 74.789 166.579,71.909 170.730,69.174 174.800 C 66.438 178.870,64.065 182.260,63.900 182.333 C 63.735 182.407,63.600 182.722,63.600 183.033 C 63.600 183.345,63.461 183.600,63.291 183.600 C 63.121 183.600,62.631 184.275,62.201 185.100 C 61.772 185.925,61.011 187.157,60.511 187.838 C 60.010 188.519,59.600 189.183,59.600 189.314 C 59.600 189.445,58.513 191.295,57.184 193.426 C 55.855 195.557,54.840 197.374,54.930 197.463 C 55.072 197.606,61.545 187.271,61.961 186.236 C 62.049 186.016,62.280 185.648,62.473 185.418 C 62.667 185.188,65.546 180.950,68.871 176.000 C 72.197 171.050,76.024 165.560,77.376 163.800 C 80.680 159.500,82.907 156.400,82.691 156.400 C 82.594 156.400,81.634 157.557,80.557 158.971 M54.080 198.480 C 53.816 198.744,53.600 199.194,53.600 199.480 C 53.600 199.766,53.420 200.000,53.200 200.000 C 52.980 200.000,52.800 200.191,52.800 200.424 C 52.800 201.117,53.507 200.469,54.144 199.192 C 54.800 197.877,54.790 197.770,54.080 198.480 M51.923 202.248 C 51.644 202.882,51.320 203.490,51.202 203.600 C 51.084 203.710,50.425 204.880,49.737 206.200 C 49.048 207.520,47.746 209.950,46.843 211.600 C 45.940 213.250,44.796 215.410,44.301 216.400 C 43.805 217.390,43.265 218.260,43.100 218.333 C 42.935 218.407,42.800 218.643,42.800 218.858 C 42.800 219.073,41.647 221.623,40.237 224.525 C 35.257 234.773,33.600 238.363,33.600 238.898 C 33.600 239.196,33.387 239.653,33.127 239.913 C 32.866 240.174,32.746 240.479,32.859 240.593 C 33.070 240.803,33.393 240.214,34.611 237.400 C 35.750 234.767,38.316 229.397,41.779 222.400 C 45.559 214.763,47.859 210.401,52.085 202.853 C 52.500 202.112,52.747 201.414,52.635 201.301 C 52.522 201.189,52.202 201.615,51.923 202.248 M32.121 242.101 C 31.893 242.595,31.473 243.495,31.186 244.099 C 30.900 244.704,30.755 245.289,30.865 245.399 C 30.975 245.509,31.276 245.149,31.533 244.599 C 31.790 244.050,32.210 243.150,32.467 242.601 C 32.724 242.051,32.845 241.511,32.735 241.401 C 32.625 241.291,32.348 241.606,32.121 242.101 M29.627 248.027 C 29.124 249.138,28.793 250.126,28.890 250.223 C 28.986 250.320,29.276 249.949,29.533 249.399 C 29.790 248.850,30.210 247.950,30.467 247.401 C 30.724 246.851,30.846 246.312,30.737 246.204 C 30.629 246.095,30.129 246.916,29.627 248.027 M28.011 251.845 C 27.785 252.480,27.420 253.313,27.200 253.695 C 26.980 254.077,26.811 254.707,26.825 255.095 C 26.844 255.609,26.970 255.530,27.291 254.800 C 28.180 252.779,28.759 251.026,28.593 250.860 C 28.499 250.766,28.237 251.209,28.011 251.845 M26.011 256.971 C 25.785 257.565,25.600 258.280,25.600 258.559 C 25.600 258.838,25.477 259.190,25.326 259.341 C 24.925 259.741,24.006 262.539,24.209 262.742 C 24.304 262.837,24.473 262.664,24.585 262.357 C 26.178 258.008,26.752 256.219,26.603 256.069 C 26.504 255.970,26.237 256.376,26.011 256.971 M23.111 265.000 C 21.924 268.510,21.355 269.978,21.074 270.259 C 20.923 270.410,20.809 270.908,20.821 271.367 C 20.834 271.910,21.058 271.643,21.464 270.600 C 21.807 269.720,22.337 268.433,22.643 267.740 C 22.950 267.046,23.200 266.227,23.200 265.920 C 23.200 265.612,23.397 265.163,23.638 264.922 C 23.878 264.682,24.010 264.151,23.931 263.742 C 23.841 263.273,23.538 263.737,23.111 265.000 M19.251 276.248 C 18.705 278.190,17.868 280.852,15.855 287.048 C 15.275 288.835,14.809 290.635,14.819 291.048 C 14.839 291.833,15.154 290.963,17.008 285.000 C 17.624 283.020,18.561 280.091,19.091 278.490 C 19.621 276.890,19.998 275.292,19.927 274.939 C 19.857 274.585,19.553 275.175,19.251 276.248 M13.984 293.700 C 13.738 294.635,13.388 296.030,13.205 296.800 C 13.023 297.570,12.583 299.280,12.226 300.600 C 11.482 303.359,11.100 304.843,10.271 308.200 C 9.066 313.076,8.801 314.437,8.846 315.506 C 8.895 316.683,9.189 315.613,9.974 311.400 C 10.179 310.300,10.642 308.320,11.003 307.000 C 11.365 305.680,11.817 303.970,12.008 303.200 C 12.200 302.430,12.650 300.720,13.008 299.400 C 13.367 298.080,13.803 296.370,13.977 295.600 C 14.152 294.830,14.428 293.705,14.591 293.100 C 14.754 292.495,14.784 292.000,14.659 292.000 C 14.534 292.000,14.231 292.765,13.984 293.700 M8.005 319.100 C 7.757 320.365,7.384 321.953,7.177 322.628 C 6.970 323.304,6.821 324.384,6.846 325.028 C 6.896 326.312,7.245 325.127,7.972 321.200 C 8.155 320.210,8.439 318.815,8.602 318.100 C 8.766 317.385,8.800 316.800,8.679 316.800 C 8.557 316.800,8.254 317.835,8.005 319.100 M6.221 327.483 C 5.888 328.343,5.173 333.411,4.992 336.200 L 4.862 338.200 5.230 336.200 C 5.432 335.100,5.696 333.300,5.816 332.200 C 5.936 331.100,6.235 329.524,6.482 328.698 C 6.938 327.167,6.726 326.179,6.221 327.483 M4.289 339.600 C 4.136 340.150,4.025 341.050,4.042 341.600 C 4.068 342.461,4.126 342.414,4.458 341.260 C 4.670 340.524,4.781 339.624,4.706 339.260 C 4.608 338.794,4.486 338.893,4.289 339.600 M3.435 344.900 C 3.299 345.835,3.115 347.860,3.027 349.400 C 2.849 352.516,3.201 350.802,3.827 345.500 C 4.140 342.854,3.809 342.347,3.435 344.900 M2.296 354.750 C 2.133 355.493,2.020 356.753,2.044 357.550 C 2.088 359.000,2.088 359.000,2.450 357.200 C 2.650 356.210,2.763 354.950,2.702 354.400 C 2.604 353.520,2.556 353.561,2.296 354.750 M1.438 362.300 C 1.312 363.785,1.139 367.250,1.055 370.000 C 0.901 374.983,0.902 374.986,1.206 371.000 C 1.374 368.800,1.646 365.335,1.811 363.300 C 1.976 361.265,2.011 359.600,1.890 359.600 C 1.768 359.600,1.565 360.815,1.438 362.300 M0.300 377.733 C -0.181 378.907,-0.077 383.837,0.419 383.341 C 0.658 383.102,0.787 381.656,0.719 379.961 C 0.646 378.156,0.483 377.286,0.300 377.733 " stroke="none" fill="#5c64a4" fill-rule="evenodd"></path><path id="path3" d="M387.780 0.376 C 387.571 0.583,386.590 0.831,385.600 0.927 C 384.610 1.023,386.320 1.024,389.400 0.929 C 395.850 0.730,397.862 0.000,391.960 0.000 C 389.870 0.000,387.989 0.169,387.780 0.376 M399.200 199.367 C 399.200 309.019,399.091 399.019,398.957 399.367 C 398.798 399.782,398.935 400.000,399.357 400.000 C 399.947 400.000,400.000 383.429,400.000 200.000 C 400.000 66.933,399.866 0.000,399.600 0.000 C 399.334 0.000,399.200 66.722,399.200 199.367 M369.453 1.481 C 369.298 1.635,367.243 1.886,364.886 2.039 C 360.703 2.311,360.720 2.313,365.600 2.134 C 368.350 2.033,373.120 1.817,376.200 1.654 L 381.800 1.357 375.767 1.278 C 372.448 1.235,369.607 1.326,369.453 1.481 M357.600 2.800 L 356.200 3.095 357.800 3.141 C 358.680 3.167,359.670 3.013,360.000 2.800 C 360.724 2.332,359.823 2.332,357.600 2.800 M349.465 3.468 C 349.318 3.616,347.983 3.871,346.499 4.036 L 343.800 4.335 346.800 4.164 C 348.450 4.070,351.150 3.843,352.800 3.661 L 355.800 3.329 352.767 3.265 C 351.098 3.229,349.613 3.321,349.465 3.468 M341.600 4.800 C 340.645 5.106,340.657 5.122,341.876 5.160 C 342.578 5.182,343.264 5.020,343.400 4.800 C 343.684 4.340,343.036 4.340,341.600 4.800 M336.273 5.460 C 336.130 5.603,334.885 5.857,333.506 6.025 L 331.000 6.329 333.600 6.187 C 335.030 6.109,337.190 5.880,338.400 5.679 L 340.600 5.313 338.567 5.256 C 337.448 5.225,336.416 5.317,336.273 5.460 M328.600 6.800 C 327.886 7.107,327.915 7.147,328.876 7.172 C 329.468 7.187,330.064 7.020,330.200 6.800 C 330.495 6.322,329.711 6.322,328.600 6.800 M324.650 7.483 C 324.494 7.639,323.519 7.896,322.483 8.053 L 320.600 8.338 322.600 8.202 C 323.700 8.127,325.320 7.891,326.200 7.679 L 327.800 7.292 326.367 7.246 C 325.578 7.221,324.806 7.328,324.650 7.483 M319.000 8.800 C 318.229 9.131,318.231 9.145,319.076 9.172 C 319.558 9.187,320.064 9.020,320.200 8.800 C 320.492 8.327,320.101 8.327,319.000 8.800 M315.050 9.483 C 314.894 9.639,313.919 9.885,312.883 10.030 L 311.000 10.293 312.820 10.347 C 313.821 10.376,314.811 10.233,315.020 10.029 C 315.229 9.824,316.030 9.583,316.800 9.493 L 318.200 9.328 316.767 9.264 C 315.978 9.229,315.206 9.328,315.050 9.483 M309.200 10.800 C 308.715 11.114,308.772 11.189,309.500 11.194 C 309.995 11.197,310.400 11.020,310.400 10.800 C 310.400 10.299,309.976 10.299,309.200 10.800 M306.271 11.462 C 306.127 11.606,305.332 11.856,304.504 12.016 L 303.000 12.308 304.420 12.354 C 305.201 12.379,306.011 12.235,306.220 12.034 C 306.429 11.832,307.050 11.587,307.600 11.488 L 308.600 11.309 307.567 11.254 C 306.998 11.225,306.415 11.318,306.271 11.462 M298.287 13.446 C 298.151 13.582,297.446 13.833,296.720 14.005 L 295.400 14.318 296.820 14.359 C 297.601 14.382,298.411 14.235,298.620 14.034 C 298.829 13.832,299.450 13.587,300.000 13.488 C 300.881 13.330,300.854 13.302,299.767 13.254 C 299.088 13.225,298.422 13.311,298.287 13.446 M293.600 14.800 C 293.115 15.114,293.172 15.189,293.900 15.194 C 294.395 15.197,294.800 15.020,294.800 14.800 C 294.800 14.299,294.376 14.299,293.600 14.800 M290.180 15.566 C 289.971 15.768,289.350 16.013,288.800 16.112 C 287.912 16.271,287.937 16.297,289.024 16.346 C 289.696 16.375,290.596 16.136,291.024 15.813 C 291.640 15.346,291.672 15.223,291.180 15.213 C 290.839 15.206,290.389 15.365,290.180 15.566 M283.800 17.600 C 283.664 17.820,283.158 18.006,282.676 18.014 C 281.587 18.032,279.460 19.165,280.476 19.186 C 280.848 19.194,281.264 19.020,281.400 18.800 C 281.536 18.580,282.155 18.400,282.775 18.400 C 283.395 18.400,284.126 18.130,284.400 17.800 C 284.714 17.422,284.741 17.200,284.473 17.200 C 284.239 17.200,283.936 17.380,283.800 17.600 M277.400 19.600 C 277.264 19.820,276.668 20.006,276.076 20.013 C 275.484 20.020,274.651 20.290,274.224 20.613 C 273.546 21.125,273.534 21.200,274.124 21.200 C 274.496 21.200,274.800 21.020,274.800 20.800 C 274.800 20.580,275.385 20.394,276.100 20.387 C 276.815 20.380,277.749 20.110,278.176 19.787 C 278.828 19.295,278.848 19.200,278.300 19.200 C 277.941 19.200,277.536 19.380,277.400 19.600 M270.800 21.581 C 270.470 21.764,269.682 22.121,269.048 22.372 C 268.415 22.624,268.013 22.946,268.155 23.088 C 268.297 23.230,268.626 23.134,268.887 22.873 C 269.147 22.613,269.752 22.400,270.231 22.400 C 270.710 22.400,271.326 22.130,271.600 21.800 C 272.139 21.150,271.760 21.047,270.800 21.581 M265.800 23.600 C 265.664 23.820,265.224 24.000,264.822 24.000 C 264.420 24.000,263.576 24.269,262.946 24.598 C 261.896 25.145,261.875 25.195,262.700 25.198 C 263.195 25.199,263.600 25.020,263.600 24.800 C 263.600 24.580,264.016 24.400,264.524 24.400 C 265.453 24.400,267.413 23.236,266.524 23.213 C 266.262 23.206,265.936 23.380,265.800 23.600 M260.000 25.576 C 259.670 25.757,258.770 26.185,258.000 26.527 C 257.230 26.869,256.904 27.160,257.276 27.174 C 257.648 27.188,258.064 27.020,258.200 26.800 C 258.336 26.580,258.865 26.400,259.375 26.400 C 259.885 26.400,260.526 26.130,260.800 25.800 C 261.338 25.152,260.964 25.047,260.000 25.576 M254.200 27.808 C 251.720 28.747,250.980 29.149,251.676 29.175 C 252.048 29.189,252.464 29.020,252.600 28.800 C 252.736 28.580,253.242 28.397,253.724 28.394 C 254.620 28.388,255.928 27.760,255.588 27.498 C 255.485 27.418,254.860 27.558,254.200 27.808 M249.600 29.577 C 249.270 29.759,248.488 30.148,247.863 30.441 C 247.237 30.735,246.938 31.046,247.198 31.133 C 247.457 31.219,247.870 31.090,248.115 30.845 C 248.360 30.600,248.862 30.400,249.231 30.400 C 249.600 30.400,250.126 30.130,250.400 29.800 C 250.938 29.152,250.563 29.047,249.600 29.577 M243.600 32.219 C 242.610 32.733,242.104 33.163,242.476 33.176 C 242.848 33.189,243.264 33.020,243.400 32.800 C 243.536 32.580,243.975 32.400,244.375 32.400 C 244.775 32.400,245.326 32.130,245.600 31.800 C 246.269 30.994,245.752 31.102,243.600 32.219 M240.400 33.600 C 240.400 33.820,240.085 34.006,239.700 34.014 C 238.725 34.034,236.768 35.167,237.676 35.186 C 238.048 35.194,238.464 35.020,238.600 34.800 C 238.736 34.580,239.152 34.394,239.524 34.387 C 240.491 34.369,242.020 33.200,241.076 33.200 C 240.704 33.200,240.400 33.380,240.400 33.600 M235.600 35.613 C 235.270 35.814,233.597 36.636,231.883 37.439 C 230.168 38.242,228.846 38.979,228.944 39.077 C 229.042 39.175,229.455 39.074,229.861 38.852 C 230.267 38.630,231.995 37.801,233.700 37.009 C 235.405 36.218,236.800 35.487,236.800 35.385 C 236.800 35.104,236.269 35.205,235.600 35.613 M226.000 40.219 C 225.010 40.733,224.504 41.163,224.876 41.176 C 225.248 41.189,225.664 41.020,225.800 40.800 C 225.936 40.580,226.375 40.400,226.775 40.400 C 227.175 40.400,227.726 40.130,228.000 39.800 C 228.669 38.994,228.152 39.102,226.000 40.219 M223.200 41.600 C 223.200 41.820,222.885 42.006,222.500 42.013 C 221.518 42.031,219.965 43.200,220.924 43.200 C 221.296 43.200,221.600 43.020,221.600 42.800 C 221.600 42.580,221.938 42.400,222.351 42.400 C 222.764 42.400,223.326 42.130,223.600 41.800 C 223.944 41.385,223.959 41.200,223.649 41.200 C 223.402 41.200,223.200 41.380,223.200 41.600 M217.866 44.151 C 217.019 44.606,216.562 45.054,216.846 45.149 C 217.129 45.243,217.429 45.113,217.513 44.860 C 217.598 44.607,218.001 44.400,218.410 44.400 C 218.818 44.400,219.271 44.208,219.416 43.973 C 219.866 43.246,219.459 43.293,217.866 44.151 M214.302 46.104 C 213.479 46.563,212.865 46.998,212.938 47.071 C 213.133 47.266,215.545 46.012,215.816 45.575 C 216.108 45.101,216.098 45.105,214.302 46.104 M211.600 47.600 C 211.600 47.820,211.262 48.000,210.849 48.000 C 210.436 48.000,209.874 48.270,209.600 48.600 C 208.971 49.358,209.169 49.354,210.731 48.575 C 212.060 47.911,212.729 47.200,212.024 47.200 C 211.791 47.200,211.600 47.380,211.600 47.600 M206.600 50.231 C 205.720 50.757,205.215 51.190,205.477 51.193 C 205.974 51.200,208.800 49.641,208.800 49.360 C 208.800 49.043,208.173 49.291,206.600 50.231 M203.066 52.124 C 202.222 52.593,201.747 53.049,202.012 53.137 C 202.276 53.225,202.607 53.120,202.746 52.903 C 202.886 52.686,203.405 52.381,203.900 52.227 C 204.395 52.072,204.800 51.778,204.800 51.573 C 204.800 51.125,204.944 51.080,203.066 52.124 M199.200 54.423 C 198.210 55.062,197.012 55.756,196.539 55.967 C 195.667 56.355,194.913 57.200,195.439 57.200 C 195.596 57.200,196.314 56.750,197.036 56.200 C 197.757 55.650,198.494 55.199,198.673 55.198 C 198.853 55.197,199.540 54.753,200.200 54.212 C 201.781 52.917,201.418 52.993,199.200 54.423 M191.477 59.094 C 189.767 60.136,188.553 61.051,188.780 61.127 C 189.007 61.202,189.460 60.997,189.788 60.670 C 190.115 60.343,190.926 59.834,191.591 59.540 C 192.256 59.246,192.800 58.888,192.800 58.746 C 192.800 58.603,193.250 58.374,193.800 58.236 C 194.350 58.098,194.800 57.808,194.800 57.592 C 194.800 57.050,194.936 56.988,191.477 59.094 M186.481 62.081 C 185.756 62.529,185.236 62.970,185.327 63.060 C 185.557 63.291,187.994 61.867,187.997 61.500 C 188.001 61.127,188.065 61.103,186.481 62.081 M182.701 64.629 C 181.661 65.383,180.650 66.000,180.454 66.000 C 180.258 66.000,179.874 66.270,179.600 66.600 C 178.761 67.611,179.527 67.277,182.120 65.500 C 183.484 64.566,184.675 63.756,184.767 63.700 C 184.858 63.645,184.856 63.523,184.762 63.429 C 184.668 63.334,183.740 63.874,182.701 64.629 M176.705 68.610 C 175.663 69.374,174.705 70.000,174.577 70.000 C 174.448 70.000,174.073 70.270,173.743 70.600 C 173.413 70.930,173.252 71.200,173.386 71.200 C 173.677 71.200,175.716 69.924,176.000 69.565 C 176.110 69.426,176.785 69.012,177.500 68.646 C 178.215 68.279,178.800 67.804,178.800 67.590 C 178.800 67.062,178.847 67.039,176.705 68.610 M168.193 74.423 C 165.777 76.167,163.509 77.843,163.152 78.148 C 162.796 78.453,160.816 79.933,158.752 81.437 C 156.689 82.940,154.910 84.272,154.800 84.396 C 154.690 84.519,153.790 85.240,152.800 85.998 C 151.810 86.755,150.010 88.199,148.800 89.207 C 144.401 92.872,141.291 95.425,139.849 96.554 C 139.038 97.189,138.462 97.795,138.568 97.902 C 138.675 98.008,139.021 97.849,139.337 97.548 C 139.653 97.246,140.410 96.640,141.020 96.200 C 141.630 95.760,142.595 94.950,143.165 94.400 C 143.734 93.849,144.920 92.873,145.800 92.230 C 146.680 91.588,147.693 90.778,148.051 90.431 C 148.776 89.728,149.383 89.233,152.001 87.210 C 152.991 86.446,153.890 85.713,154.000 85.582 C 154.307 85.217,158.722 81.920,160.351 80.840 C 161.148 80.311,161.890 79.759,162.000 79.612 C 162.110 79.464,163.280 78.559,164.600 77.600 C 165.920 76.641,167.090 75.740,167.200 75.598 C 167.310 75.456,167.985 74.999,168.700 74.584 C 169.415 74.168,170.000 73.686,170.000 73.514 C 170.000 73.341,170.225 73.194,170.500 73.187 C 171.076 73.171,172.995 71.662,172.750 71.416 C 172.660 71.326,170.609 72.679,168.193 74.423 M135.373 100.540 C 134.997 100.945,131.603 103.971,128.839 106.367 C 128.310 106.825,128.015 107.200,128.183 107.200 C 128.880 107.200,136.315 100.575,135.980 100.253 C 135.881 100.158,135.608 100.288,135.373 100.540 M117.286 117.730 C 111.959 123.060,107.600 127.555,107.600 127.718 C 107.600 127.881,112.032 123.593,117.448 118.189 C 122.864 112.784,127.223 108.290,127.134 108.201 C 127.045 108.112,122.614 112.400,117.286 117.730 M106.393 128.781 C 105.559 129.803,101.109 134.829,100.471 135.469 C 100.181 135.761,100.067 136.000,100.219 136.000 C 100.815 136.000,107.460 128.526,107.144 128.211 C 107.058 128.124,106.720 128.381,106.393 128.781 M96.554 139.849 C 95.919 140.659,94.490 142.420,93.377 143.761 C 85.994 152.664,84.891 154.050,81.449 158.752 C 79.938 160.816,78.453 162.796,78.148 163.152 C 76.768 164.764,71.270 172.603,71.416 172.750 C 71.608 172.941,73.167 171.139,73.187 170.703 C 73.194 170.540,73.583 169.966,74.051 169.427 C 74.519 168.889,75.104 168.099,75.351 167.672 C 75.898 166.727,79.239 162.278,79.612 162.000 C 79.759 161.890,80.311 161.148,80.840 160.351 C 81.920 158.722,85.217 154.307,85.582 154.000 C 85.713 153.890,86.446 152.991,87.210 152.001 C 89.233 149.383,89.728 148.776,90.431 148.051 C 90.778 147.693,91.584 146.680,92.223 145.800 C 92.862 144.920,93.748 143.837,94.192 143.394 C 94.637 142.951,95.530 141.871,96.179 140.994 C 96.827 140.117,97.542 139.275,97.767 139.122 C 97.993 138.969,98.071 138.738,97.943 138.609 C 97.814 138.480,97.189 139.038,96.554 139.849 M70.400 173.800 C 70.117 174.141,69.976 174.509,70.086 174.619 C 70.196 174.729,70.517 174.541,70.800 174.200 C 71.083 173.859,71.224 173.491,71.114 173.381 C 71.004 173.271,70.683 173.459,70.400 173.800 M68.419 176.972 C 67.728 177.977,67.338 178.800,67.554 178.800 C 67.770 178.800,68.050 178.472,68.178 178.071 C 68.305 177.669,68.785 176.937,69.245 176.444 C 69.704 175.951,69.990 175.456,69.879 175.345 C 69.768 175.235,69.111 175.966,68.419 176.972 M65.734 180.863 C 65.114 181.818,64.516 182.690,64.404 182.800 C 64.292 182.910,63.973 183.405,63.697 183.900 C 62.843 185.426,63.744 184.887,64.704 183.297 C 66.372 180.535,66.598 180.201,66.988 179.922 C 67.202 179.769,67.261 179.527,67.118 179.385 C 66.976 179.243,66.353 179.908,65.734 180.863 M62.542 185.673 C 61.739 186.925,61.268 188.000,61.524 187.997 C 61.882 187.994,63.279 185.546,63.053 185.319 C 62.958 185.224,62.728 185.384,62.542 185.673 M60.092 189.734 C 59.616 190.541,59.401 191.200,59.613 191.200 C 59.826 191.200,60.000 191.033,60.000 190.829 C 60.000 190.624,60.284 190.173,60.632 189.825 C 60.980 189.477,61.195 188.985,61.110 188.731 C 61.026 188.477,60.567 188.928,60.092 189.734 M57.500 193.997 C 56.675 195.316,56.000 196.499,56.000 196.625 C 56.000 196.750,55.577 197.426,55.059 198.127 C 54.043 199.501,53.393 200.975,53.956 200.627 C 54.147 200.509,54.600 199.825,54.962 199.106 C 55.693 197.659,56.493 196.307,56.800 196.000 C 56.910 195.890,57.346 195.170,57.770 194.400 C 58.193 193.630,58.710 192.886,58.919 192.746 C 59.127 192.607,59.230 192.291,59.148 192.045 C 59.066 191.799,58.324 192.677,57.500 193.997 M52.110 203.170 C 51.632 204.067,51.399 204.800,51.593 204.800 C 51.787 204.800,52.072 204.395,52.227 203.900 C 52.381 203.405,52.686 202.886,52.903 202.746 C 53.120 202.607,53.226 202.278,53.139 202.017 C 53.052 201.755,52.589 202.274,52.110 203.170 M50.080 206.827 C 49.585 207.754,49.252 208.585,49.340 208.674 C 49.587 208.920,51.250 205.950,51.107 205.520 C 51.037 205.311,50.575 205.899,50.080 206.827 M48.542 209.673 C 47.739 210.925,47.268 212.000,47.524 211.997 C 47.882 211.994,49.279 209.546,49.053 209.319 C 48.958 209.224,48.728 209.384,48.542 209.673 M46.500 213.423 C 46.225 213.722,46.000 214.244,46.000 214.583 C 46.000 214.922,45.820 215.200,45.600 215.200 C 45.380 215.200,45.200 215.391,45.200 215.624 C 45.200 216.330,45.912 215.660,46.576 214.327 C 47.276 212.924,47.250 212.610,46.500 213.423 M44.086 217.925 C 43.595 218.936,43.445 219.585,43.724 219.492 C 43.986 219.405,44.266 218.989,44.346 218.567 C 44.427 218.145,44.674 217.686,44.895 217.546 C 45.116 217.407,45.214 217.047,45.111 216.746 C 45.003 216.430,44.572 216.926,44.086 217.925 M42.093 222.003 C 41.567 222.988,41.408 223.597,41.703 223.499 C 41.976 223.408,42.266 222.989,42.346 222.567 C 42.427 222.145,42.674 221.686,42.895 221.546 C 43.116 221.407,43.226 221.078,43.139 220.817 C 43.052 220.555,42.581 221.088,42.093 222.003 M40.441 225.463 C 40.147 226.088,39.719 226.960,39.489 227.400 C 39.116 228.115,39.142 228.142,39.736 227.651 C 40.101 227.349,40.400 226.779,40.400 226.384 C 40.400 225.990,40.607 225.598,40.860 225.513 C 41.113 225.429,41.242 225.127,41.148 224.843 C 41.047 224.540,40.753 224.798,40.441 225.463 M38.028 230.436 C 37.041 232.480,37.014 232.643,37.800 231.857 C 38.130 231.527,38.400 231.010,38.400 230.709 C 38.400 230.407,38.613 229.947,38.873 229.687 C 39.134 229.426,39.236 229.103,39.101 228.968 C 38.966 228.833,38.483 229.494,38.028 230.436 M36.000 234.600 C 35.489 235.593,35.160 236.494,35.269 236.602 C 35.377 236.710,35.697 236.304,35.979 235.699 C 36.262 235.095,36.665 234.267,36.874 233.861 C 37.084 233.455,37.182 233.049,37.092 232.959 C 37.002 232.869,36.511 233.607,36.000 234.600 M34.188 238.823 C 33.770 239.800,33.347 240.780,33.249 241.000 C 33.150 241.220,33.369 241.153,33.735 240.851 C 34.101 240.549,34.400 240.000,34.400 239.631 C 34.400 239.262,34.600 238.760,34.845 238.515 C 35.090 238.270,35.213 237.840,35.119 237.558 C 35.025 237.276,34.606 237.845,34.188 238.823 M32.372 243.048 C 32.120 243.682,31.753 244.513,31.557 244.895 C 31.033 245.913,31.120 246.164,31.800 245.600 C 32.130 245.326,32.400 244.710,32.400 244.231 C 32.400 243.752,32.613 243.147,32.873 242.887 C 33.134 242.626,33.230 242.297,33.088 242.155 C 32.946 242.013,32.624 242.415,32.372 243.048 M30.420 247.687 C 30.153 248.409,29.756 249.333,29.539 249.739 C 29.322 250.145,29.240 250.574,29.357 250.691 C 29.474 250.808,29.779 250.385,30.035 249.752 C 30.290 249.118,30.687 248.195,30.917 247.701 C 31.147 247.206,31.238 246.705,31.121 246.588 C 31.004 246.470,30.688 246.965,30.420 247.687 M28.420 252.487 C 28.153 253.209,27.756 254.133,27.539 254.539 C 27.322 254.945,27.240 255.374,27.357 255.491 C 27.474 255.608,27.779 255.185,28.035 254.552 C 28.290 253.918,28.687 252.995,28.917 252.501 C 29.147 252.006,29.238 251.505,29.121 251.388 C 29.004 251.270,28.688 251.765,28.420 252.487 M26.485 257.373 C 26.218 257.959,26.000 258.753,26.000 259.139 C 26.000 259.524,25.775 260.092,25.500 260.401 C 25.075 260.878,25.104 260.882,25.700 260.432 C 26.085 260.140,26.400 259.510,26.400 259.031 C 26.400 258.552,26.600 257.960,26.845 257.715 C 27.090 257.470,27.218 257.054,27.130 256.790 C 27.042 256.525,26.752 256.788,26.485 257.373 M24.444 263.231 C 24.163 263.984,23.768 264.913,23.567 265.295 C 22.984 266.399,23.142 267.030,23.787 266.176 C 24.110 265.749,24.380 265.031,24.387 264.580 C 24.394 264.129,24.600 263.560,24.845 263.315 C 25.090 263.070,25.214 262.643,25.122 262.366 C 25.030 262.089,24.724 262.478,24.444 263.231 M22.499 268.391 C 22.224 268.830,22.000 269.516,22.000 269.915 C 22.000 270.314,21.775 270.878,21.500 271.170 C 21.096 271.598,21.116 271.665,21.600 271.519 C 21.930 271.420,22.261 270.813,22.336 270.170 C 22.411 269.528,22.658 268.888,22.885 268.748 C 23.112 268.607,23.230 268.290,23.147 268.042 C 23.063 267.790,22.779 267.943,22.499 268.391 M20.627 273.820 C 20.452 274.249,20.169 275.140,20.000 275.800 C 19.831 276.460,19.557 277.360,19.392 277.800 L 19.092 278.600 19.733 277.800 C 20.086 277.360,20.380 276.541,20.387 275.980 C 20.394 275.419,20.600 274.760,20.845 274.515 C 21.090 274.270,21.213 273.838,21.118 273.555 C 21.006 273.217,20.837 273.308,20.627 273.820 M18.054 282.220 C 18.025 282.671,17.800 283.240,17.555 283.485 C 17.310 283.730,17.190 284.170,17.288 284.464 C 17.569 285.307,18.478 283.304,18.280 282.279 C 18.121 281.462,18.105 281.458,18.054 282.220 M16.627 286.620 C 16.452 287.049,16.169 287.940,16.000 288.600 C 15.831 289.260,15.547 290.160,15.368 290.600 C 15.065 291.350,15.087 291.358,15.722 290.729 C 16.095 290.359,16.400 289.540,16.400 288.909 C 16.400 288.277,16.600 287.560,16.845 287.315 C 17.090 287.070,17.213 286.638,17.118 286.355 C 17.006 286.017,16.837 286.108,16.627 286.620 M13.892 296.100 C 13.521 298.008,13.171 300.861,13.439 299.800 C 13.550 299.360,13.826 298.626,14.051 298.169 C 14.277 297.712,14.399 296.722,14.323 295.969 L 14.184 294.600 13.892 296.100 M12.060 303.876 C 12.027 304.578,11.820 305.264,11.600 305.400 C 11.380 305.536,11.209 306.222,11.219 306.924 C 11.238 308.171,11.252 308.161,11.843 306.473 C 12.176 305.524,12.374 304.264,12.284 303.673 C 12.133 302.689,12.115 302.705,12.060 303.876 M10.688 308.933 C 10.242 310.066,10.315 310.645,10.838 310.122 C 11.078 309.882,11.208 309.351,11.126 308.942 C 10.982 308.226,10.966 308.226,10.688 308.933 M9.881 312.400 C 9.712 313.390,9.506 315.010,9.423 316.000 C 9.340 316.990,9.352 317.260,9.450 316.600 C 9.548 315.940,9.815 315.028,10.043 314.573 C 10.271 314.118,10.396 313.038,10.322 312.173 L 10.187 310.600 9.881 312.400 M8.846 318.267 C 8.821 318.524,8.684 319.064,8.541 319.467 C 8.340 320.036,8.394 320.097,8.779 319.742 C 9.052 319.491,9.189 318.951,9.084 318.542 C 8.979 318.134,8.872 318.010,8.846 318.267 M7.901 322.000 C 7.513 324.536,7.204 327.557,7.431 326.600 C 7.535 326.160,7.810 325.168,8.043 324.396 C 8.275 323.623,8.400 322.363,8.321 321.596 C 8.178 320.211,8.174 320.214,7.901 322.000 M6.708 328.383 C 6.431 329.367,6.597 329.937,7.032 329.501 C 7.160 329.373,7.201 328.848,7.124 328.334 L 6.984 327.400 6.708 328.383 M5.904 332.600 C 5.746 333.920,5.543 336.080,5.454 337.400 C 5.365 338.720,5.366 339.080,5.457 338.200 C 5.547 337.320,5.807 336.233,6.033 335.784 C 6.260 335.336,6.388 333.896,6.318 332.584 L 6.192 330.200 5.904 332.600 M4.662 341.347 C 4.497 341.978,4.456 342.589,4.571 342.704 C 4.893 343.027,5.287 341.738,5.115 340.923 C 5.003 340.390,4.884 340.501,4.662 341.347 M3.865 346.000 C 3.708 347.430,3.515 349.950,3.437 351.600 L 3.294 354.600 3.634 351.800 C 3.820 350.260,4.085 348.172,4.222 347.159 C 4.359 346.147,4.399 344.887,4.311 344.359 C 4.222 343.832,4.022 344.570,3.865 346.000 M2.870 355.850 C 2.831 356.318,2.686 357.308,2.547 358.050 C 2.353 359.087,2.405 359.297,2.773 358.954 C 3.057 358.690,3.188 357.795,3.096 356.754 C 3.010 355.789,2.908 355.382,2.870 355.850 M1.884 363.600 C 1.737 365.690,1.551 369.920,1.470 373.000 L 1.323 378.600 1.635 373.600 C 1.807 370.850,2.066 367.160,2.211 365.400 C 2.356 363.640,2.401 361.660,2.313 361.000 C 2.224 360.340,2.031 361.510,1.884 363.600 M0.879 383.100 C 0.836 384.475,0.620 385.600,0.400 385.600 C 0.180 385.600,0.000 386.230,0.000 387.000 C 0.000 387.770,0.177 388.400,0.392 388.400 C 1.017 388.400,1.250 386.820,1.099 383.595 L 0.959 380.600 0.879 383.100 " stroke="none" fill="#34438b" fill-rule="evenodd"></path><path id="path4" d="M385.800 0.400 C 385.660 0.626,385.988 0.800,386.553 0.800 C 387.103 0.800,387.664 0.620,387.800 0.400 C 387.940 0.174,387.612 -0.000,387.047 -0.000 C 386.497 -0.000,385.936 0.180,385.800 0.400 M378.700 1.093 C 379.635 1.177,381.165 1.177,382.100 1.093 C 383.035 1.009,382.270 0.940,380.400 0.940 C 378.530 0.940,377.765 1.009,378.700 1.093 M353.900 3.082 C 354.395 3.178,355.205 3.178,355.700 3.082 C 356.195 2.987,355.790 2.909,354.800 2.909 C 353.810 2.909,353.405 2.987,353.900 3.082 M267.600 22.633 C 267.042 22.943,266.865 23.185,267.200 23.181 C 267.530 23.178,268.149 22.910,268.576 22.587 C 269.539 21.859,268.945 21.887,267.600 22.633 M136.975 98.900 L 135.800 100.200 137.100 99.025 C 138.312 97.930,138.584 97.600,138.275 97.600 C 138.206 97.600,137.621 98.185,136.975 98.900 M117.200 117.400 C 112.914 121.690,109.498 125.200,109.608 125.200 C 109.718 125.200,113.314 121.690,117.600 117.400 C 121.886 113.110,125.302 109.600,125.192 109.600 C 125.082 109.600,121.486 113.110,117.200 117.400 M98.378 137.500 L 97.000 139.000 98.500 137.622 C 99.896 136.338,100.184 136.000,99.878 136.000 C 99.812 136.000,99.137 136.675,98.378 137.500 M82.800 156.400 C 82.330 157.060,82.036 157.600,82.146 157.600 C 82.256 157.600,82.730 157.060,83.200 156.400 C 83.670 155.740,83.964 155.200,83.854 155.200 C 83.744 155.200,83.270 155.740,82.800 156.400 M4.893 339.200 C 4.893 339.970,4.975 340.285,5.076 339.900 C 5.176 339.515,5.176 338.885,5.076 338.500 C 4.975 338.115,4.893 338.430,4.893 339.200 M2.909 353.600 C 2.909 354.590,2.987 354.995,3.082 354.500 C 3.178 354.005,3.178 353.195,3.082 352.700 C 2.987 352.205,2.909 352.610,2.909 353.600 M0.937 377.800 C 0.939 379.560,1.009 380.230,1.093 379.289 C 1.178 378.349,1.177 376.909,1.091 376.089 C 1.005 375.270,0.936 376.040,0.937 377.800 M0.267 383.467 C -0.152 383.885,-0.045 385.600,0.400 385.600 C 0.620 385.600,0.800 385.060,0.800 384.400 C 0.800 383.157,0.719 383.015,0.267 383.467 " stroke="none" fill="#54649c" fill-rule="evenodd"></path></g></svg>