<svg id="svg" version="1.1" xmlns="http://www.w3.org/2000/svg" xmlns:xlink="http://www.w3.org/1999/xlink" width="400" height="400" viewBox="0, 0, 400,400"><g id="svgg"><path id="path0" d="M19.366 0.300 C 19.530 0.465,22.845 0.720,26.733 0.866 C 30.620 1.012,36.320 1.429,39.400 1.792 C 42.480 2.155,46.710 2.612,48.800 2.808 C 50.890 3.003,54.310 3.458,56.400 3.819 C 58.490 4.180,61.370 4.623,62.800 4.802 C 69.641 5.662,71.635 5.991,72.361 6.379 C 72.794 6.611,73.731 6.800,74.445 6.800 C 75.159 6.800,76.296 6.968,76.972 7.174 C 78.911 7.764,83.014 8.622,88.200 9.521 C 89.300 9.712,91.010 10.092,92.000 10.366 C 92.990 10.639,94.520 11.040,95.400 11.256 C 96.280 11.472,97.900 11.893,99.000 12.191 C 100.100 12.489,101.720 12.912,102.600 13.130 C 104.041 13.487,105.134 13.777,110.600 15.254 C 111.480 15.491,112.830 15.913,113.600 16.191 C 114.370 16.468,115.630 16.874,116.400 17.093 C 120.521 18.263,122.672 18.936,123.295 19.250 C 123.677 19.442,124.279 19.600,124.634 19.600 C 124.989 19.600,125.846 19.848,126.540 20.150 C 127.233 20.453,128.700 20.985,129.800 21.333 C 132.821 22.288,134.754 23.021,135.059 23.326 C 135.210 23.477,135.618 23.601,135.967 23.602 C 136.315 23.604,137.116 23.874,137.746 24.202 C 138.376 24.531,139.143 24.800,139.451 24.800 C 139.759 24.800,140.323 24.962,140.705 25.159 C 141.315 25.474,143.266 26.253,145.800 27.192 C 146.240 27.356,147.281 27.784,148.114 28.145 C 148.946 28.505,149.891 28.800,150.214 28.800 C 150.536 28.800,150.800 28.980,150.800 29.200 C 150.800 29.420,151.065 29.600,151.389 29.600 C 151.713 29.600,153.018 30.064,154.289 30.630 C 156.756 31.730,158.275 32.387,160.200 33.186 C 160.860 33.460,161.940 33.910,162.600 34.185 C 164.756 35.085,169.661 37.428,177.600 41.350 C 184.993 45.003,187.846 46.492,193.400 49.597 C 194.720 50.335,196.700 51.398,197.800 51.960 C 198.900 52.521,199.890 53.075,200.000 53.190 C 200.274 53.478,201.671 54.346,202.400 54.681 C 202.730 54.833,204.660 56.002,206.689 57.279 C 208.717 58.556,210.500 59.600,210.651 59.600 C 210.801 59.600,211.481 60.010,212.162 60.511 C 212.843 61.011,214.075 61.772,214.900 62.201 C 215.725 62.631,216.400 63.121,216.400 63.291 C 216.400 63.461,216.588 63.600,216.817 63.600 C 217.046 63.600,217.451 63.793,217.717 64.028 C 217.983 64.264,221.444 66.649,225.409 69.328 C 231.782 73.635,238.140 78.166,240.048 79.761 C 240.404 80.059,242.384 81.535,244.448 83.041 C 246.511 84.547,248.679 86.234,249.264 86.790 C 249.849 87.345,251.469 88.699,252.864 89.798 C 254.259 90.896,255.629 92.013,255.910 92.279 C 256.190 92.545,257.270 93.446,258.309 94.281 C 259.349 95.117,260.397 95.980,260.638 96.200 C 261.057 96.581,265.731 100.708,267.234 102.024 C 272.835 106.926,286.812 120.705,293.600 128.018 C 299.061 133.901,299.199 134.052,301.400 136.613 C 302.500 137.893,303.581 139.134,303.802 139.370 C 304.023 139.607,305.012 140.790,306.000 142.000 C 306.988 143.210,307.977 144.401,308.198 144.647 C 309.184 145.743,310.303 147.120,311.407 148.594 C 312.063 149.471,312.968 150.551,313.418 150.994 C 313.868 151.437,315.479 153.510,316.999 155.600 C 318.518 157.690,320.085 159.749,320.481 160.175 C 320.876 160.602,321.200 161.084,321.200 161.247 C 321.200 161.410,321.434 161.781,321.720 162.071 C 322.600 162.966,325.659 167.146,328.676 171.576 C 330.257 173.899,331.698 175.980,331.878 176.200 C 332.762 177.285,339.232 187.251,340.187 189.000 C 340.788 190.100,341.496 191.270,341.760 191.600 C 342.024 191.930,342.587 192.875,343.011 193.700 C 343.435 194.525,343.921 195.200,344.091 195.200 C 344.261 195.200,344.400 195.384,344.400 195.608 C 344.400 195.832,344.880 196.777,345.467 197.707 C 347.681 201.213,350.400 206.134,350.400 206.634 C 350.400 206.919,350.580 207.264,350.801 207.401 C 351.022 207.537,351.560 208.403,351.998 209.324 C 352.435 210.246,353.513 212.260,354.392 213.800 C 355.993 216.603,357.043 218.706,361.879 228.800 C 363.301 231.770,364.901 235.103,365.433 236.206 C 365.965 237.309,366.400 238.524,366.400 238.906 C 366.400 239.288,366.580 239.600,366.800 239.600 C 367.020 239.600,367.200 239.887,367.200 240.238 C 367.200 240.589,367.448 241.354,367.751 241.938 C 368.054 242.522,368.530 243.540,368.807 244.200 C 369.744 246.427,370.335 247.791,371.370 250.111 C 371.936 251.382,372.400 252.599,372.400 252.816 C 372.400 253.033,372.558 253.523,372.751 253.905 C 373.604 255.591,374.400 257.675,374.400 258.219 C 374.400 258.545,374.562 259.123,374.759 259.505 C 375.183 260.327,375.943 262.296,377.417 266.400 C 378.010 268.050,378.634 269.760,378.805 270.200 C 379.222 271.275,380.072 273.895,381.336 278.000 C 381.912 279.870,382.765 282.570,383.230 284.000 C 383.696 285.430,384.227 287.140,384.411 287.800 C 384.594 288.460,385.043 289.990,385.408 291.200 C 385.772 292.410,386.216 294.120,386.393 295.000 C 386.571 295.880,387.026 297.680,387.405 299.000 C 387.784 300.320,388.239 302.030,388.417 302.800 C 388.595 303.570,389.036 305.280,389.399 306.600 C 390.062 309.018,390.475 310.922,391.132 314.600 C 391.328 315.700,391.686 317.410,391.928 318.400 C 392.170 319.390,392.562 321.280,392.800 322.600 C 393.038 323.920,393.433 325.810,393.677 326.800 C 394.150 328.713,394.499 330.973,395.145 336.293 C 395.365 338.104,395.643 339.746,395.764 339.942 C 396.004 340.329,396.699 345.250,397.185 350.000 C 397.354 351.650,397.703 355.070,397.960 357.600 C 398.217 360.130,398.601 363.201,398.814 364.424 C 399.026 365.647,399.213 368.527,399.230 370.824 C 399.246 373.121,399.403 375.810,399.580 376.800 C 399.756 377.790,399.922 293.415,399.950 189.300 L 400.000 0.000 209.533 0.000 C 104.777 0.000,19.201 0.135,19.366 0.300 " stroke="none" fill="#8b93d3" fill-rule="evenodd"></path><path id="path1" d="M1.200 199.735 C 1.200 309.185,1.309 399.019,1.443 399.367 C 1.664 399.943,19.606 400.000,200.843 400.000 L 400.000 400.000 400.000 394.571 C 400.000 390.560,399.860 389.003,399.463 388.605 C 399.061 388.204,398.853 385.713,398.642 378.769 C 398.486 373.655,398.188 369.151,397.979 368.762 C 397.771 368.372,397.600 366.161,397.600 363.850 C 397.600 361.480,397.426 359.539,397.200 359.400 C 396.980 359.264,396.785 357.948,396.766 356.476 C 396.748 355.004,396.558 352.720,396.344 351.400 C 396.131 350.080,395.798 347.650,395.604 346.000 C 394.941 340.364,394.397 337.000,393.998 336.081 C 393.779 335.576,393.600 334.011,393.600 332.605 C 393.600 331.198,393.445 329.952,393.256 329.835 C 393.067 329.718,392.792 328.594,392.644 327.338 C 392.497 326.081,392.220 324.861,392.029 324.626 C 391.838 324.392,391.589 323.300,391.475 322.200 C 391.174 319.306,390.434 315.610,389.986 314.774 C 389.774 314.377,389.600 313.241,389.600 312.250 C 389.600 311.258,389.420 310.336,389.200 310.200 C 388.980 310.064,388.799 309.468,388.798 308.876 C 388.796 308.284,388.526 307.284,388.198 306.654 C 387.869 306.024,387.600 304.809,387.600 303.954 C 387.600 303.099,387.443 302.400,387.252 302.400 C 387.060 302.400,386.785 301.507,386.640 300.416 C 386.495 299.325,386.202 298.325,385.988 298.193 C 385.775 298.061,385.600 297.254,385.600 296.400 C 385.600 295.546,385.420 294.736,385.200 294.600 C 384.980 294.464,384.800 293.573,384.800 292.619 C 384.800 291.447,384.606 290.811,384.200 290.655 C 383.823 290.511,383.600 289.899,383.600 289.013 C 383.600 288.236,383.420 287.600,383.200 287.600 C 382.980 287.600,382.800 286.992,382.800 286.249 C 382.800 285.506,382.530 284.674,382.200 284.400 C 381.870 284.126,381.600 283.395,381.600 282.775 C 381.600 282.155,381.420 281.536,381.200 281.400 C 380.980 281.264,380.794 280.578,380.787 279.876 C 380.780 279.174,380.510 278.251,380.187 277.824 C 379.864 277.396,379.600 276.541,379.600 275.924 C 379.600 275.306,379.420 274.800,379.200 274.800 C 378.980 274.800,378.800 274.099,378.800 273.243 C 378.800 272.228,378.591 271.605,378.200 271.455 C 377.849 271.321,377.600 270.721,377.600 270.013 C 377.600 269.346,377.420 268.800,377.200 268.800 C 376.980 268.800,376.800 268.337,376.800 267.771 C 376.800 267.206,376.530 266.473,376.200 266.143 C 375.870 265.813,375.600 265.106,375.600 264.571 C 375.600 264.037,375.420 263.600,375.200 263.600 C 374.980 263.600,374.800 262.989,374.800 262.243 C 374.800 261.405,374.570 260.797,374.200 260.655 C 373.853 260.522,373.600 259.924,373.600 259.236 C 373.600 258.582,373.420 257.936,373.200 257.800 C 372.980 257.664,372.800 257.191,372.800 256.748 C 372.800 256.305,372.530 255.673,372.200 255.343 C 371.870 255.013,371.600 254.306,371.600 253.771 C 371.600 253.237,371.420 252.800,371.200 252.800 C 370.980 252.800,370.800 252.372,370.800 251.849 C 370.800 251.326,370.530 250.674,370.200 250.400 C 369.870 250.126,369.600 249.485,369.600 248.975 C 369.600 248.465,369.420 247.936,369.200 247.800 C 368.980 247.664,368.800 247.133,368.800 246.619 C 368.800 246.106,368.530 245.582,368.200 245.455 C 367.870 245.329,367.600 244.870,367.600 244.436 C 367.600 244.002,367.420 243.536,367.200 243.400 C 366.980 243.264,366.800 242.643,366.800 242.019 C 366.800 241.381,366.538 240.785,366.200 240.655 C 365.870 240.529,365.600 240.070,365.600 239.636 C 365.600 239.202,365.420 238.736,365.200 238.600 C 364.980 238.464,364.800 237.913,364.800 237.376 C 364.800 236.839,364.655 236.400,364.477 236.400 C 364.136 236.400,362.800 233.624,362.800 232.915 C 362.800 232.685,362.530 232.274,362.200 232.000 C 361.870 231.726,361.600 231.164,361.600 230.751 C 361.600 230.338,361.420 230.000,361.200 230.000 C 360.980 230.000,360.800 229.569,360.800 229.043 C 360.800 228.516,360.530 227.982,360.200 227.855 C 359.870 227.729,359.600 227.347,359.600 227.007 C 359.600 226.448,359.333 225.808,358.349 224.000 C 358.169 223.670,357.732 222.770,357.378 222.000 C 357.023 221.230,356.573 220.330,356.378 220.000 C 356.016 219.390,355.094 217.489,354.631 216.400 C 354.490 216.070,353.853 214.900,353.213 213.800 C 352.574 212.700,351.734 211.170,351.347 210.400 C 350.959 209.630,350.542 208.910,350.421 208.800 C 349.969 208.390,348.800 205.915,348.800 205.368 C 348.800 205.055,348.623 204.800,348.408 204.800 C 348.192 204.800,347.902 204.350,347.764 203.800 C 347.626 203.250,347.353 202.800,347.157 202.800 C 346.960 202.800,346.800 202.518,346.800 202.173 C 346.800 201.829,346.350 200.957,345.800 200.236 C 345.250 199.514,344.800 198.716,344.800 198.462 C 344.800 198.208,344.661 198.000,344.491 198.000 C 344.321 198.000,343.826 197.325,343.392 196.500 C 342.957 195.675,342.376 194.762,342.101 194.471 C 341.825 194.181,341.600 193.686,341.600 193.371 C 341.600 193.057,341.420 192.800,341.200 192.800 C 340.980 192.800,340.800 192.608,340.800 192.373 C 340.800 192.139,340.350 191.357,339.800 190.636 C 339.250 189.914,338.800 189.026,338.800 188.662 C 338.800 188.298,338.628 188.000,338.419 188.000 C 338.209 188.000,337.721 187.325,337.334 186.500 C 336.947 185.675,336.399 184.762,336.115 184.471 C 335.832 184.181,335.600 183.810,335.600 183.647 C 335.600 183.484,335.276 183.002,334.880 182.575 C 334.484 182.149,333.809 181.186,333.380 180.436 C 332.951 179.685,332.195 178.624,331.700 178.077 C 331.205 177.531,330.800 176.839,330.800 176.542 C 330.800 176.244,330.620 176.000,330.400 176.000 C 330.180 176.000,330.000 175.745,330.000 175.433 C 330.000 175.122,329.865 174.807,329.700 174.733 C 329.369 174.586,326.800 170.899,326.800 170.571 C 326.800 170.458,326.350 169.880,325.800 169.287 C 325.250 168.693,324.800 167.981,324.800 167.704 C 324.800 167.427,324.620 167.200,324.400 167.200 C 324.180 167.200,324.000 167.011,324.000 166.781 C 324.000 166.550,323.550 165.945,323.000 165.435 C 322.450 164.925,321.997 164.349,321.994 164.154 C 321.990 163.959,321.273 162.990,320.400 162.000 C 319.527 161.010,318.810 159.975,318.806 159.700 C 318.803 159.425,318.620 159.200,318.400 159.200 C 318.180 159.200,318.000 159.011,318.000 158.781 C 318.000 158.550,317.550 157.945,317.000 157.435 C 316.450 156.925,316.000 156.347,316.000 156.150 C 316.000 155.953,315.593 155.344,315.096 154.796 C 314.599 154.248,313.569 152.990,312.807 152.000 C 312.046 151.010,311.103 149.909,310.711 149.553 C 310.320 149.197,310.000 148.807,310.000 148.687 C 310.000 148.566,309.280 147.695,308.400 146.751 C 307.520 145.808,306.800 144.880,306.800 144.691 C 306.800 144.501,306.170 143.752,305.400 143.026 C 304.630 142.300,304.000 141.601,304.000 141.473 C 304.000 141.346,303.550 140.756,303.000 140.162 C 302.450 139.569,302.000 138.839,302.000 138.542 C 302.000 138.244,301.807 138.000,301.571 138.000 C 301.155 138.000,300.000 137.032,300.000 136.683 C 300.000 136.588,298.875 135.337,297.500 133.903 C 294.063 130.318,292.800 128.909,292.800 128.659 C 292.800 128.286,273.876 109.501,270.981 107.000 C 269.453 105.680,267.090 103.520,265.731 102.200 C 262.754 99.308,261.884 98.551,259.800 97.039 C 258.920 96.401,257.606 95.276,256.881 94.539 C 256.155 93.803,255.435 93.197,255.281 93.194 C 255.126 93.190,254.370 92.632,253.600 91.954 C 251.141 89.787,249.289 88.227,247.956 87.200 C 247.243 86.650,246.466 86.008,246.230 85.773 C 245.993 85.539,245.260 84.999,244.600 84.573 C 243.201 83.671,242.173 82.877,241.140 81.900 C 240.733 81.515,240.265 81.197,240.100 81.192 C 239.935 81.188,239.082 80.558,238.204 79.792 C 237.327 79.027,236.499 78.400,236.366 78.400 C 236.232 78.400,235.690 78.029,235.161 77.576 C 234.633 77.122,233.794 76.402,233.297 75.976 C 232.800 75.549,232.258 75.200,232.093 75.200 C 231.927 75.200,231.307 74.750,230.713 74.200 C 230.120 73.650,229.423 73.200,229.163 73.200 C 228.904 73.200,228.275 72.750,227.765 72.200 C 227.255 71.650,226.603 71.200,226.315 71.200 C 226.027 71.200,225.307 70.750,224.713 70.200 C 224.120 69.650,223.473 69.200,223.276 69.200 C 223.078 69.200,222.476 68.795,221.936 68.300 C 221.397 67.805,220.291 67.088,219.478 66.706 C 218.665 66.325,218.000 65.830,218.000 65.606 C 218.000 65.383,217.756 65.200,217.458 65.200 C 217.161 65.200,216.431 64.750,215.838 64.200 C 215.244 63.650,214.524 63.200,214.238 63.200 C 213.951 63.200,213.231 62.750,212.638 62.200 C 212.044 61.650,211.403 61.200,211.212 61.200 C 210.665 61.200,208.405 59.833,208.403 59.500 C 208.401 59.335,208.130 59.200,207.800 59.200 C 207.470 59.200,207.200 59.020,207.200 58.800 C 207.200 58.580,206.849 58.400,206.420 58.400 C 205.991 58.400,205.496 58.165,205.320 57.878 C 205.144 57.592,204.325 57.043,203.500 56.660 C 202.675 56.276,202.000 55.791,202.000 55.581 C 202.000 55.372,201.640 55.200,201.200 55.200 C 200.760 55.200,200.400 55.041,200.400 54.847 C 200.400 54.652,200.085 54.374,199.700 54.229 C 198.385 53.733,197.200 53.011,197.200 52.705 C 197.200 52.537,196.834 52.400,196.387 52.400 C 195.941 52.400,195.471 52.130,195.345 51.800 C 195.218 51.470,194.684 51.200,194.157 51.200 C 193.631 51.200,193.200 51.040,193.200 50.843 C 193.200 50.647,192.750 50.374,192.200 50.236 C 191.650 50.098,191.200 49.808,191.200 49.592 C 191.200 49.377,190.945 49.200,190.632 49.200 C 189.919 49.200,187.606 47.902,187.603 47.500 C 187.601 47.335,187.240 47.200,186.800 47.200 C 186.360 47.200,186.000 47.020,186.000 46.800 C 186.000 46.580,185.634 46.400,185.187 46.400 C 184.741 46.400,184.271 46.130,184.145 45.800 C 184.018 45.470,183.574 45.200,183.157 45.200 C 182.741 45.200,182.400 45.020,182.400 44.800 C 182.400 44.580,181.969 44.400,181.443 44.400 C 180.916 44.400,180.382 44.130,180.255 43.800 C 180.129 43.470,179.659 43.200,179.213 43.200 C 178.766 43.200,178.400 43.020,178.400 42.800 C 178.400 42.580,177.969 42.400,177.443 42.400 C 176.916 42.400,176.382 42.130,176.255 41.800 C 176.129 41.470,175.747 41.200,175.407 41.200 C 175.067 41.200,174.477 41.040,174.095 40.844 C 173.713 40.649,172.680 40.154,171.800 39.744 C 170.920 39.335,170.140 38.865,170.067 38.700 C 169.993 38.535,169.677 38.400,169.364 38.400 C 168.869 38.400,165.793 36.992,164.000 35.945 C 163.670 35.753,163.130 35.493,162.800 35.368 C 162.470 35.244,161.887 34.975,161.505 34.771 C 161.123 34.567,160.493 34.394,160.105 34.387 C 159.717 34.380,159.051 34.110,158.624 33.787 C 158.196 33.464,157.521 33.200,157.124 33.200 C 156.726 33.200,156.400 33.020,156.400 32.800 C 156.400 32.580,155.950 32.400,155.400 32.400 C 154.850 32.400,154.400 32.234,154.400 32.032 C 154.400 31.829,153.862 31.545,153.205 31.401 C 152.547 31.257,151.906 30.972,151.781 30.769 C 151.655 30.566,151.135 30.400,150.625 30.400 C 150.115 30.400,149.474 30.130,149.200 29.800 C 148.926 29.470,148.364 29.200,147.951 29.200 C 147.538 29.200,147.200 29.020,147.200 28.800 C 147.200 28.580,146.765 28.400,146.232 28.400 C 145.700 28.400,144.665 28.100,143.932 27.732 C 141.487 26.507,141.215 26.400,140.505 26.387 C 140.117 26.380,139.451 26.110,139.024 25.787 C 138.596 25.464,137.831 25.200,137.324 25.200 C 136.816 25.200,136.400 25.020,136.400 24.800 C 136.400 24.580,135.905 24.394,135.300 24.387 C 134.695 24.380,133.851 24.110,133.424 23.787 C 132.996 23.464,132.231 23.200,131.724 23.200 C 131.216 23.200,130.800 23.020,130.800 22.800 C 130.800 22.580,130.260 22.400,129.600 22.400 C 128.940 22.400,128.400 22.222,128.400 22.005 C 128.400 21.787,127.676 21.494,126.791 21.352 C 125.906 21.211,125.086 20.939,124.968 20.747 C 124.849 20.556,124.268 20.394,123.676 20.386 C 123.084 20.378,122.150 20.114,121.600 19.800 C 121.050 19.486,120.105 19.222,119.500 19.214 C 118.895 19.206,118.400 19.020,118.400 18.800 C 118.400 18.580,117.815 18.394,117.100 18.387 C 116.385 18.380,115.451 18.110,115.024 17.787 C 114.596 17.464,113.842 17.200,113.347 17.200 C 112.852 17.200,112.336 17.020,112.200 16.800 C 112.064 16.580,111.444 16.400,110.822 16.400 C 110.200 16.400,109.176 16.131,108.546 15.802 C 107.916 15.474,106.916 15.204,106.324 15.202 C 105.732 15.201,105.136 15.020,105.000 14.800 C 104.864 14.580,104.054 14.400,103.200 14.400 C 102.346 14.400,101.551 14.244,101.433 14.053 C 101.315 13.862,100.365 13.610,99.322 13.492 C 98.279 13.375,97.360 13.081,97.280 12.839 C 97.199 12.598,96.349 12.400,95.390 12.400 C 94.432 12.400,93.536 12.220,93.400 12.000 C 93.264 11.780,92.568 11.600,91.853 11.600 C 91.138 11.600,90.204 11.336,89.776 11.013 C 89.332 10.677,88.111 10.420,86.924 10.413 C 85.782 10.406,84.750 10.243,84.631 10.050 C 84.512 9.858,83.386 9.615,82.128 9.511 C 80.870 9.406,79.771 9.114,79.687 8.860 C 79.597 8.590,78.651 8.400,77.390 8.400 C 76.212 8.400,75.152 8.245,75.035 8.057 C 74.918 7.868,73.712 7.612,72.355 7.489 C 70.998 7.366,69.777 7.087,69.642 6.868 C 69.507 6.649,68.047 6.375,66.398 6.260 C 60.947 5.878,57.174 5.334,56.704 4.864 C 56.433 4.593,54.973 4.400,53.200 4.400 C 51.528 4.400,49.989 4.240,49.780 4.044 C 49.571 3.848,47.387 3.610,44.927 3.515 C 42.466 3.420,40.212 3.142,39.916 2.896 C 39.367 2.441,37.628 2.336,19.400 1.663 C 13.680 1.452,7.245 1.157,5.100 1.007 L 1.200 0.736 1.200 199.735 " stroke="none" fill="#242c7c" fill-rule="evenodd"></path><path id="path2" d="M14.200 0.400 C 14.336 0.620,15.832 0.787,17.524 0.772 C 19.614 0.753,20.344 0.634,19.800 0.400 C 18.648 -0.095,13.894 -0.095,14.200 0.400 M27.600 1.223 C 37.228 1.868,40.166 1.975,37.000 1.565 C 35.460 1.365,31.680 1.137,28.600 1.058 L 23.000 0.914 27.600 1.223 M41.400 2.400 C 42.060 2.568,43.320 2.705,44.200 2.705 C 45.717 2.705,45.738 2.690,44.600 2.400 C 43.940 2.232,42.680 2.095,41.800 2.095 C 40.283 2.095,40.262 2.110,41.400 2.400 M49.200 3.196 C 53.065 3.775,57.076 4.050,54.600 3.567 C 53.500 3.353,51.340 3.107,49.800 3.022 C 47.062 2.870,47.049 2.874,49.200 3.196 M57.800 4.400 C 58.240 4.589,59.050 4.744,59.600 4.744 C 60.512 4.744,60.529 4.713,59.800 4.400 C 59.360 4.211,58.550 4.056,58.000 4.056 C 57.088 4.056,57.071 4.087,57.800 4.400 M62.800 5.190 C 63.790 5.369,65.950 5.710,67.600 5.948 C 69.250 6.185,71.140 6.485,71.800 6.614 C 72.783 6.806,72.874 6.769,72.301 6.405 C 71.557 5.933,66.841 5.200,63.200 4.991 L 61.000 4.864 62.800 5.190 M75.000 7.239 C 75.880 7.459,77.410 7.788,78.400 7.972 C 79.390 8.155,80.830 8.421,81.600 8.563 C 82.775 8.780,82.850 8.755,82.066 8.411 C 81.007 7.946,77.391 7.220,75.000 6.993 L 73.400 6.840 75.000 7.239 M84.600 9.221 C 85.480 9.430,87.100 9.771,88.200 9.978 C 89.300 10.185,90.740 10.459,91.400 10.586 C 92.563 10.810,92.569 10.803,91.600 10.372 C 90.543 9.901,87.272 9.259,84.600 8.997 L 83.000 8.840 84.600 9.221 M94.200 11.354 C 96.758 12.178,99.692 12.842,99.893 12.641 C 99.995 12.539,99.295 12.251,98.339 12.002 C 97.383 11.752,96.047 11.380,95.372 11.174 C 94.696 10.968,93.796 10.809,93.372 10.819 C 92.947 10.830,93.320 11.070,94.200 11.354 M101.400 13.271 C 102.060 13.492,103.320 13.822,104.200 14.005 C 106.189 14.417,109.202 15.196,110.000 15.504 C 111.110 15.932,114.199 16.730,114.313 16.618 C 114.375 16.558,113.925 16.324,113.313 16.100 C 112.214 15.698,111.304 15.437,106.600 14.179 C 105.280 13.826,103.647 13.372,102.972 13.169 C 101.257 12.654,99.834 12.746,101.400 13.271 M116.200 17.382 C 117.080 17.680,119.420 18.411,121.400 19.005 C 123.380 19.599,125.405 20.276,125.899 20.510 C 126.394 20.743,126.914 20.819,127.055 20.678 C 127.335 20.398,125.496 19.600,124.569 19.600 C 124.250 19.600,123.677 19.442,123.295 19.250 C 122.913 19.057,121.520 18.588,120.200 18.207 C 118.880 17.827,117.387 17.354,116.881 17.158 C 116.376 16.961,115.656 16.809,115.281 16.819 C 114.907 16.830,115.320 17.083,116.200 17.382 M128.200 21.085 C 128.640 21.191,129.171 21.440,129.380 21.639 C 129.589 21.837,130.138 22.000,130.600 22.000 C 131.062 22.000,131.611 22.158,131.820 22.351 C 132.029 22.544,133.280 23.070,134.600 23.520 C 135.920 23.970,137.345 24.473,137.766 24.637 C 138.277 24.837,138.441 24.791,138.261 24.499 C 138.112 24.258,137.408 23.937,136.695 23.785 C 135.983 23.632,135.220 23.374,135.000 23.212 C 134.780 23.049,134.240 22.815,133.800 22.692 C 133.360 22.568,132.013 22.092,130.806 21.634 C 129.599 21.175,128.339 20.821,128.006 20.846 C 127.653 20.873,127.735 20.973,128.200 21.085 M139.824 25.387 C 140.251 25.710,140.994 25.980,141.476 25.987 C 141.958 25.994,142.464 26.180,142.600 26.400 C 142.736 26.620,143.152 26.788,143.524 26.774 C 143.896 26.760,143.570 26.469,142.800 26.126 C 142.030 25.784,141.087 25.346,140.705 25.152 C 139.587 24.585,138.978 24.748,139.824 25.387 M145.600 27.487 C 146.370 27.836,147.630 28.377,148.400 28.688 C 150.706 29.621,151.762 30.074,152.495 30.447 C 152.877 30.641,153.417 30.794,153.695 30.786 C 154.443 30.765,152.319 29.631,151.500 29.614 C 151.115 29.606,150.800 29.420,150.800 29.200 C 150.800 28.980,150.536 28.800,150.214 28.800 C 149.674 28.800,147.586 28.001,145.905 27.151 C 145.523 26.958,144.983 26.812,144.705 26.826 C 144.427 26.840,144.830 27.137,145.600 27.487 M154.976 31.413 C 155.404 31.736,156.043 32.000,156.396 32.000 C 156.750 32.000,157.253 32.213,157.513 32.473 C 157.774 32.734,158.103 32.830,158.245 32.688 C 158.387 32.546,157.985 32.224,157.352 31.972 C 156.718 31.720,155.887 31.353,155.505 31.157 C 154.431 30.605,154.112 30.759,154.976 31.413 M160.752 33.848 C 161.935 34.388,162.994 34.740,163.103 34.630 C 163.213 34.520,162.785 34.224,162.152 33.972 C 161.518 33.720,160.687 33.353,160.305 33.157 C 159.923 32.961,159.383 32.815,159.105 32.833 C 158.827 32.851,159.568 33.308,160.752 33.848 M167.600 36.884 C 169.910 38.014,173.583 39.809,175.762 40.874 C 177.942 41.938,179.798 42.736,179.887 42.646 C 179.976 42.557,177.743 41.365,174.925 39.996 C 172.106 38.628,168.571 36.899,167.068 36.154 C 165.566 35.409,164.126 34.807,163.868 34.815 C 163.611 34.823,165.290 35.754,167.600 36.884 M180.433 42.966 C 180.588 43.120,182.447 44.142,188.600 47.453 C 189.920 48.163,191.810 49.171,192.800 49.693 C 193.790 50.215,195.477 51.136,196.548 51.740 C 197.619 52.344,198.578 52.755,198.678 52.655 C 198.779 52.555,197.992 52.032,196.930 51.495 C 195.869 50.957,194.370 50.160,193.600 49.724 C 186.085 45.468,179.608 42.143,180.433 42.966 M199.384 53.175 C 199.512 53.381,200.170 53.826,200.848 54.164 C 201.898 54.688,202.008 54.691,201.591 54.189 C 201.322 53.865,200.854 53.600,200.551 53.600 C 200.248 53.600,200.000 53.420,200.000 53.200 C 200.000 52.980,199.809 52.800,199.576 52.800 C 199.343 52.800,199.257 52.969,199.384 53.175 M202.620 55.140 C 203.167 55.628,213.572 62.000,213.823 62.000 C 213.939 62.000,214.251 62.187,214.517 62.416 C 215.489 63.252,225.730 70.000,226.027 70.000 C 226.195 70.000,226.393 70.139,226.467 70.310 C 226.540 70.480,228.040 71.595,229.800 72.787 C 233.633 75.383,247.663 85.843,249.036 87.129 C 249.346 87.419,249.600 87.504,249.600 87.317 C 249.600 86.880,248.988 86.372,244.448 83.049 C 242.384 81.538,240.404 80.059,240.048 79.761 C 238.140 78.166,231.782 73.635,225.409 69.328 C 221.444 66.649,217.983 64.264,217.717 64.028 C 217.451 63.793,217.046 63.600,216.817 63.600 C 216.588 63.600,216.400 63.461,216.400 63.291 C 216.400 63.121,215.725 62.631,214.900 62.201 C 214.075 61.772,212.843 61.011,212.162 60.511 C 211.481 60.010,210.801 59.600,210.651 59.600 C 210.500 59.600,208.663 58.520,206.568 57.200 C 203.109 55.021,201.615 54.241,202.620 55.140 M250.000 87.720 C 250.000 87.840,252.378 89.887,255.285 92.269 C 258.191 94.651,261.665 97.590,263.003 98.800 C 264.342 100.010,267.319 102.697,269.619 104.771 C 274.826 109.468,291.512 126.174,295.802 130.987 C 297.561 132.960,299.918 135.570,301.041 136.787 C 302.163 138.004,304.108 140.260,305.362 141.800 C 306.616 143.340,308.630 145.815,309.838 147.300 C 311.046 148.785,312.138 150.000,312.265 150.000 C 312.566 150.000,310.142 146.808,308.198 144.647 C 307.977 144.401,306.988 143.210,306.000 142.000 C 305.012 140.790,304.023 139.607,303.802 139.370 C 303.581 139.134,302.500 137.893,301.400 136.613 C 299.199 134.052,299.061 133.901,293.600 128.018 C 286.812 120.705,272.835 106.926,267.234 102.024 C 265.731 100.708,261.057 96.581,260.638 96.200 C 260.397 95.980,259.349 95.117,258.309 94.281 C 257.270 93.446,256.186 92.546,255.900 92.281 C 255.414 91.830,252.263 89.266,250.700 88.047 C 250.315 87.747,250.000 87.600,250.000 87.720 M312.628 150.706 C 313.064 151.006,314.644 153.060,319.100 159.121 C 320.475 160.992,321.600 162.355,321.600 162.150 C 321.600 161.775,320.464 159.972,319.993 159.600 C 319.854 159.490,318.495 157.690,316.972 155.600 C 313.553 150.906,313.127 150.398,312.611 150.406 C 312.344 150.410,312.350 150.515,312.628 150.706 M322.000 162.524 C 322.000 162.679,323.137 164.380,324.526 166.303 C 328.381 171.639,337.801 185.660,339.218 188.170 C 339.910 189.396,340.643 190.503,340.846 190.629 C 341.619 191.106,333.181 177.524,332.006 176.400 C 331.891 176.290,330.393 174.130,328.676 171.600 C 325.086 166.309,322.000 162.113,322.000 162.524 M341.200 191.352 C 341.200 191.462,342.244 193.228,343.521 195.276 C 344.797 197.324,345.968 199.270,346.124 199.600 C 346.280 199.930,346.788 200.830,347.254 201.600 C 347.720 202.370,348.777 204.260,349.602 205.800 C 350.427 207.340,351.668 209.590,352.361 210.800 C 353.054 212.010,355.703 217.198,358.247 222.329 C 360.792 227.461,362.943 231.590,363.027 231.507 C 363.110 231.423,362.218 229.385,361.043 226.977 C 359.869 224.570,358.252 221.250,357.449 219.600 C 356.647 217.950,355.271 215.340,354.392 213.800 C 353.512 212.260,352.435 210.246,351.998 209.324 C 351.560 208.403,351.022 207.537,350.801 207.401 C 350.580 207.264,350.400 206.919,350.400 206.634 C 350.400 206.134,347.681 201.213,345.467 197.707 C 344.880 196.777,344.400 195.832,344.400 195.608 C 344.400 195.384,344.252 195.200,344.071 195.200 C 343.890 195.200,343.339 194.394,342.847 193.409 C 342.065 191.842,341.200 190.762,341.200 191.352 M363.200 232.286 C 363.200 232.940,364.911 236.022,365.145 235.788 C 365.256 235.677,365.134 235.374,364.873 235.113 C 364.613 234.853,364.394 234.361,364.387 234.020 C 364.373 233.319,363.200 231.606,363.200 232.286 M365.200 236.678 C 365.200 236.915,365.469 237.624,365.798 238.254 C 366.275 239.171,366.393 239.240,366.385 238.600 C 366.379 238.160,366.110 237.451,365.787 237.024 C 365.464 236.596,365.200 236.441,365.200 236.678 M367.200 241.449 C 367.200 242.180,369.157 245.814,369.179 245.124 C 369.191 244.752,369.020 244.336,368.800 244.200 C 368.580 244.064,368.394 243.648,368.387 243.276 C 368.374 242.564,367.200 240.757,367.200 241.449 M369.213 246.276 C 369.206 246.538,369.380 246.864,369.600 247.000 C 369.820 247.136,370.000 247.502,370.000 247.813 C 370.000 248.313,370.394 249.278,372.609 254.200 C 372.933 254.920,373.159 255.129,373.174 254.724 C 373.188 254.352,373.020 253.936,372.800 253.800 C 372.580 253.664,372.400 253.293,372.400 252.974 C 372.400 252.656,371.950 251.463,371.400 250.323 C 370.850 249.183,370.400 248.048,370.400 247.802 C 370.400 247.186,369.229 245.681,369.213 246.276 M373.214 256.076 C 373.206 256.448,373.380 256.864,373.600 257.000 C 373.820 257.136,374.006 257.642,374.013 258.124 C 374.020 258.606,374.290 259.349,374.613 259.776 C 374.936 260.204,375.200 260.349,375.200 260.100 C 375.200 259.851,375.020 259.536,374.800 259.400 C 374.580 259.264,374.394 258.758,374.386 258.276 C 374.368 257.187,373.235 255.060,373.214 256.076 M375.226 261.505 C 375.212 261.783,375.369 262.323,375.575 262.705 C 375.781 263.087,376.427 264.750,377.009 266.400 C 378.670 271.108,378.894 271.640,379.121 271.412 C 379.238 271.295,379.146 270.794,378.915 270.299 C 378.684 269.805,378.012 268.050,377.421 266.400 C 376.102 262.714,375.259 260.835,375.226 261.505 M379.221 272.505 C 379.209 272.893,379.362 273.523,379.561 273.905 C 379.760 274.287,380.149 275.366,380.426 276.302 C 380.703 277.238,381.007 277.927,381.101 277.832 C 381.273 277.660,380.748 275.843,379.763 273.200 C 379.476 272.430,379.232 272.117,379.221 272.505 M381.221 278.905 C 381.209 279.293,381.358 279.923,381.551 280.305 C 381.744 280.687,382.083 281.630,382.305 282.400 C 383.526 286.634,384.946 290.787,385.115 290.619 C 385.221 290.513,385.123 289.925,384.898 289.313 C 384.672 288.701,383.995 286.580,383.392 284.600 C 381.969 279.924,381.246 278.028,381.221 278.905 M385.378 292.200 C 385.667 294.236,386.324 296.951,386.781 298.000 C 387.201 298.964,387.209 298.957,386.987 297.800 C 386.455 295.026,386.047 293.329,385.640 292.200 L 385.208 291.000 385.378 292.200 M387.225 299.507 C 387.191 300.188,388.794 306.133,389.082 306.394 C 389.207 306.507,389.187 306.060,389.038 305.400 C 388.888 304.740,388.606 303.480,388.411 302.600 C 387.985 300.686,387.261 298.796,387.225 299.507 M389.384 307.800 C 389.807 310.679,390.431 313.602,390.806 314.466 C 391.473 316.001,390.412 309.916,389.644 307.800 L 389.208 306.600 389.384 307.800 M391.374 317.400 C 391.863 320.544,392.438 323.217,392.809 324.066 C 393.181 324.917,393.198 324.893,393.004 323.800 C 392.887 323.140,392.629 321.610,392.430 320.400 C 392.232 319.190,391.871 317.750,391.629 317.200 C 391.197 316.220,391.192 316.224,391.374 317.400 M393.399 327.400 C 393.518 328.060,393.794 329.860,394.011 331.400 C 394.472 334.668,395.326 337.778,394.999 335.000 C 394.489 330.660,394.042 328.108,393.633 327.200 C 393.194 326.224,393.188 326.229,393.399 327.400 M395.402 339.800 C 396.019 344.996,396.416 347.537,396.779 348.600 C 397.166 349.737,397.178 349.716,397.000 348.200 C 396.478 343.741,395.962 340.479,395.607 339.400 C 395.238 338.280,395.225 338.306,395.402 339.800 M397.287 354.400 C 397.283 355.390,397.424 356.650,397.600 357.200 C 398.039 358.569,398.039 355.523,397.600 353.800 C 397.326 352.723,397.294 352.784,397.287 354.400 M398.098 361.200 C 398.079 362.850,398.316 365.460,398.625 367.000 L 399.186 369.800 398.952 367.000 C 398.824 365.460,398.587 362.850,398.426 361.200 L 398.132 358.200 398.098 361.200 M399.256 379.000 C 399.232 380.980,399.387 382.870,399.600 383.200 C 400.081 383.944,400.094 379.864,399.620 377.200 C 399.343 375.643,399.294 375.886,399.256 379.000 " stroke="none" fill="#5c64a4" fill-rule="evenodd"></path><path id="path3" d="M12.600 0.400 C 12.736 0.620,13.117 0.800,13.447 0.800 C 13.777 0.800,13.936 0.620,13.800 0.400 C 13.664 0.180,13.283 0.000,12.953 0.000 C 12.623 0.000,12.464 0.180,12.600 0.400 M19.100 1.089 C 19.815 1.178,20.985 1.178,21.700 1.089 C 22.415 1.001,21.830 0.928,20.400 0.928 C 18.970 0.928,18.385 1.001,19.100 1.089 M44.700 3.082 C 45.195 3.178,46.005 3.178,46.500 3.082 C 46.995 2.987,46.590 2.909,45.600 2.909 C 44.610 2.909,44.205 2.987,44.700 3.082 M274.800 109.704 C 274.800 109.761,278.355 113.316,282.700 117.604 L 290.600 125.400 282.804 117.500 C 275.560 110.160,274.800 109.419,274.800 109.704 M394.901 337.800 C 394.905 338.680,394.987 338.993,395.083 338.495 C 395.179 337.998,395.175 337.278,395.075 336.895 C 394.975 336.513,394.896 336.920,394.901 337.800 M396.920 351.600 C 396.920 352.810,396.995 353.305,397.087 352.700 C 397.178 352.095,397.178 351.105,397.087 350.500 C 396.995 349.895,396.920 350.390,396.920 351.600 M398.948 373.600 C 398.948 375.910,399.014 376.855,399.095 375.700 C 399.176 374.545,399.176 372.655,399.095 371.500 C 399.014 370.345,398.948 371.290,398.948 373.600 M399.228 383.876 C 399.213 384.358,399.380 384.864,399.600 385.000 C 400.073 385.292,400.073 384.901,399.600 383.800 C 399.269 383.029,399.255 383.031,399.228 383.876 " stroke="none" fill="#50589c" fill-rule="evenodd"></path><path id="path4" d="M7.800 0.400 C 7.936 0.620,8.767 0.800,9.647 0.800 C 10.612 0.800,11.149 0.641,11.000 0.400 C 10.864 0.180,10.033 0.000,9.153 0.000 C 8.188 0.000,7.651 0.159,7.800 0.400 M12.100 1.076 C 12.485 1.176,13.115 1.176,13.500 1.076 C 13.885 0.975,13.570 0.893,12.800 0.893 C 12.030 0.893,11.715 0.975,12.100 1.076 M0.000 200.576 C 0.000 333.259,0.134 400.000,0.400 400.000 C 0.666 400.000,0.800 333.341,0.800 200.824 C 0.800 68.471,0.666 1.564,0.400 1.400 C 0.134 1.235,0.000 67.729,0.000 200.576 M32.900 2.276 C 33.285 2.376,33.915 2.376,34.300 2.276 C 34.685 2.175,34.370 2.093,33.600 2.093 C 32.830 2.093,32.515 2.175,32.900 2.276 M280.000 115.400 C 282.523 117.930,284.677 120.000,284.787 120.000 C 284.897 120.000,282.923 117.930,280.400 115.400 C 277.877 112.870,275.723 110.800,275.613 110.800 C 275.503 110.800,277.477 112.870,280.000 115.400 M393.693 332.800 C 393.693 333.570,393.775 333.885,393.876 333.500 C 393.976 333.115,393.976 332.485,393.876 332.100 C 393.775 331.715,393.693 332.030,393.693 332.800 M395.701 345.800 C 395.705 346.680,395.787 346.993,395.883 346.495 C 395.979 345.998,395.975 345.278,395.875 344.895 C 395.775 344.513,395.696 344.920,395.701 345.800 M397.714 363.800 C 397.717 364.900,397.795 365.303,397.887 364.695 C 397.979 364.086,397.977 363.186,397.882 362.695 C 397.787 362.203,397.711 362.700,397.714 363.800 M398.901 384.200 C 398.905 385.080,398.987 385.393,399.083 384.895 C 399.179 384.398,399.175 383.678,399.075 383.295 C 398.975 382.913,398.896 383.320,398.901 384.200 M399.200 386.953 C 399.200 387.283,399.380 387.664,399.600 387.800 C 399.820 387.936,400.000 387.777,400.000 387.447 C 400.000 387.117,399.820 386.736,399.600 386.600 C 399.380 386.464,399.200 386.623,399.200 386.953 " stroke="none" fill="#34438b" fill-rule="evenodd"></path><path id="path5" d="" stroke="none" fill="#54649c" fill-rule="evenodd"></path><path id="path6" d="M11.400 0.400 C 11.536 0.620,11.917 0.800,12.247 0.800 C 12.577 0.800,12.736 0.620,12.600 0.400 C 12.464 0.180,12.083 0.000,11.753 0.000 C 11.423 0.000,11.264 0.180,11.400 0.400 M15.500 1.082 C 15.995 1.178,16.805 1.178,17.300 1.082 C 17.795 0.987,17.390 0.909,16.400 0.909 C 15.410 0.909,15.005 0.987,15.500 1.082 M37.700 2.276 C 38.085 2.376,38.715 2.376,39.100 2.276 C 39.485 2.175,39.170 2.093,38.400 2.093 C 37.630 2.093,37.315 2.175,37.700 2.276 M398.914 379.400 C 398.917 380.500,398.995 380.903,399.087 380.295 C 399.179 379.686,399.177 378.786,399.082 378.295 C 398.987 377.803,398.911 378.300,398.914 379.400 M399.200 385.353 C 399.200 385.683,399.380 386.064,399.600 386.200 C 399.820 386.336,400.000 386.177,400.000 385.847 C 400.000 385.517,399.820 385.136,399.600 385.000 C 399.380 384.864,399.200 385.023,399.200 385.353 " stroke="none" fill="#444c94" fill-rule="evenodd"></path><path id="path7" d="M35.300 2.276 C 35.685 2.376,36.315 2.376,36.700 2.276 C 37.085 2.175,36.770 2.093,36.000 2.093 C 35.230 2.093,34.915 2.175,35.300 2.276 M397.693 360.800 C 397.693 361.570,397.775 361.885,397.876 361.500 C 397.976 361.115,397.976 360.485,397.876 360.100 C 397.775 359.715,397.693 360.030,397.693 360.800 " stroke="none" fill="#3c4c94" fill-rule="evenodd"></path><path id="path8" d="M0.000 0.576 C 0.000 0.893,0.180 1.264,0.400 1.400 C 0.666 1.564,0.800 68.471,0.800 200.824 C 0.800 310.371,0.935 400.000,1.100 400.000 C 1.265 400.000,1.354 310.179,1.299 200.398 L 1.198 0.797 6.299 0.952 C 9.104 1.037,10.680 1.026,9.800 0.928 C 8.920 0.830,8.029 0.581,7.820 0.375 C 7.153 -0.283,-0.000 -0.098,0.000 0.576 M17.100 1.498 C 19.135 1.571,22.465 1.571,24.500 1.498 C 26.535 1.425,24.870 1.366,20.800 1.366 C 16.730 1.366,15.065 1.425,17.100 1.498 M29.400 1.990 C 30.164 2.328,32.714 2.557,32.367 2.256 C 32.275 2.176,31.390 2.004,30.400 1.873 C 29.198 1.714,28.866 1.753,29.400 1.990 M43.712 3.495 C 44.764 3.577,46.384 3.576,47.312 3.492 C 48.240 3.408,47.380 3.341,45.400 3.342 C 43.420 3.343,42.660 3.412,43.712 3.495 M49.800 4.000 C 49.936 4.220,50.442 4.387,50.924 4.372 C 51.769 4.345,51.771 4.331,51.000 4.000 C 49.899 3.527,49.508 3.527,49.800 4.000 M59.107 5.490 C 59.826 5.579,60.906 5.577,61.507 5.486 C 62.108 5.395,61.520 5.322,60.200 5.324 C 58.880 5.326,58.388 5.401,59.107 5.490 M71.900 7.482 C 72.395 7.578,73.205 7.578,73.700 7.482 C 74.195 7.387,73.790 7.309,72.800 7.309 C 71.810 7.309,71.405 7.387,71.900 7.482 M81.500 9.482 C 81.995 9.578,82.805 9.578,83.300 9.482 C 83.795 9.387,83.390 9.309,82.400 9.309 C 81.410 9.309,81.005 9.387,81.500 9.482 M91.600 11.493 C 92.370 11.583,93.171 11.824,93.380 12.029 C 93.589 12.233,93.949 12.394,94.180 12.387 C 94.411 12.380,94.251 12.110,93.824 11.787 C 93.396 11.464,92.406 11.229,91.624 11.264 L 90.200 11.328 91.600 11.493 M98.900 13.476 C 99.285 13.576,99.915 13.576,100.300 13.476 C 100.685 13.375,100.370 13.293,99.600 13.293 C 98.830 13.293,98.515 13.375,98.900 13.476 M108.546 15.802 C 110.005 16.563,110.375 16.568,109.376 15.813 C 108.949 15.490,108.330 15.221,108.000 15.215 C 107.670 15.210,107.916 15.474,108.546 15.802 M115.024 17.787 C 116.042 18.558,116.624 18.567,115.857 17.800 C 115.527 17.470,115.030 17.200,114.752 17.200 C 114.469 17.200,114.588 17.458,115.024 17.787 M121.600 19.800 C 122.150 20.114,122.780 20.372,123.000 20.372 C 123.220 20.372,122.950 20.114,122.400 19.800 C 121.850 19.486,121.220 19.228,121.000 19.228 C 120.780 19.228,121.050 19.486,121.600 19.800 M149.200 29.800 C 149.474 30.130,149.991 30.379,150.349 30.354 C 150.898 30.314,150.891 30.279,150.300 30.124 C 149.915 30.024,149.600 29.775,149.600 29.571 C 149.600 29.367,149.398 29.200,149.151 29.200 C 148.841 29.200,148.856 29.385,149.200 29.800 M158.624 33.787 C 159.642 34.558,160.224 34.567,159.457 33.800 C 159.127 33.470,158.630 33.200,158.352 33.200 C 158.069 33.200,158.188 33.458,158.624 33.787 M187.603 47.513 C 187.606 47.869,190.047 49.286,190.271 49.062 C 190.361 48.972,189.796 48.523,189.017 48.063 C 188.238 47.603,187.601 47.356,187.603 47.513 M208.403 59.473 C 208.404 59.653,208.944 60.107,209.603 60.481 C 211.143 61.358,211.142 61.098,209.600 60.000 C 208.940 59.530,208.401 59.293,208.403 59.473 M212.800 62.367 C 213.763 63.152,214.400 63.408,214.400 63.010 C 214.400 62.906,213.815 62.535,213.100 62.186 L 211.800 61.552 212.800 62.367 M215.200 63.763 C 215.200 63.843,215.650 64.203,216.200 64.563 C 216.750 64.924,217.200 65.063,217.200 64.873 C 217.200 64.684,216.750 64.323,216.200 64.073 C 215.650 63.822,215.200 63.683,215.200 63.763 M218.000 65.574 C 218.000 65.797,218.585 66.263,219.300 66.609 C 220.393 67.139,220.473 67.142,219.800 66.633 C 219.360 66.300,218.775 65.834,218.500 65.598 C 218.178 65.321,218.000 65.313,218.000 65.574 M240.800 81.557 C 240.800 81.750,241.250 82.203,241.800 82.563 C 242.350 82.924,242.800 83.157,242.800 83.081 C 242.800 83.006,242.350 82.553,241.800 82.075 C 241.250 81.597,240.800 81.363,240.800 81.557 M243.203 83.473 C 243.204 83.653,243.744 84.107,244.403 84.481 C 245.943 85.358,245.942 85.098,244.400 84.000 C 243.740 83.530,243.201 83.293,243.203 83.473 M253.213 91.500 C 253.219 91.665,253.714 92.146,254.313 92.568 L 255.400 93.336 254.430 92.268 C 253.411 91.146,253.192 91.007,253.213 91.500 M268.034 104.261 C 268.052 104.447,268.776 105.209,269.642 105.954 C 270.508 106.698,271.107 107.058,270.973 106.754 C 270.674 106.070,267.987 103.791,268.034 104.261 M294.681 130.987 C 295.077 131.531,295.566 131.981,295.770 131.987 C 295.973 131.994,295.717 131.550,295.200 131.000 C 294.001 129.723,293.757 129.718,294.681 130.987 M307.487 145.795 C 307.879 146.334,308.337 146.781,308.503 146.787 C 308.960 146.806,307.896 145.246,307.296 145.015 C 306.967 144.889,307.038 145.177,307.487 145.795 M331.437 177.800 C 331.797 178.350,332.157 178.800,332.237 178.800 C 332.317 178.800,332.178 178.350,331.927 177.800 C 331.677 177.250,331.316 176.800,331.127 176.800 C 330.937 176.800,331.076 177.250,331.437 177.800 M338.802 189.033 C 338.803 189.235,339.268 189.940,339.835 190.600 L 340.866 191.800 339.963 190.400 C 338.804 188.604,338.800 188.599,338.802 189.033 M371.612 254.000 C 371.612 254.690,372.280 255.870,372.511 255.588 C 372.596 255.485,372.429 254.950,372.139 254.400 C 371.848 253.849,371.612 253.669,371.612 254.000 M375.612 264.800 C 375.612 265.490,376.280 266.670,376.511 266.388 C 376.596 266.285,376.429 265.750,376.139 265.200 C 375.848 264.649,375.612 264.469,375.612 264.800 M385.600 297.487 C 385.600 297.743,385.780 298.064,386.000 298.200 C 386.220 298.336,386.421 298.842,386.446 299.324 C 386.482 299.989,386.537 300.033,386.674 299.507 C 386.774 299.127,386.573 298.411,386.228 297.918 C 385.883 297.425,385.600 297.231,385.600 297.487 M387.614 305.054 C 387.606 305.304,387.869 306.024,388.198 306.654 C 388.526 307.284,388.790 307.530,388.783 307.200 C 388.769 306.483,387.635 304.400,387.614 305.054 M389.622 313.400 C 389.616 313.620,389.871 314.520,390.188 315.400 C 390.505 316.280,390.773 316.706,390.782 316.346 C 390.792 315.986,390.537 315.086,390.216 314.346 C 389.894 313.606,389.627 313.180,389.622 313.400 M391.602 323.676 C 391.601 324.048,391.780 324.464,392.000 324.600 C 392.220 324.736,392.425 325.332,392.454 325.924 C 392.496 326.742,392.548 326.803,392.672 326.179 C 392.762 325.728,392.558 324.828,392.220 324.179 C 391.839 323.448,391.604 323.257,391.602 323.676 M393.805 335.000 C 394.426 338.128,394.707 339.024,394.748 338.000 C 394.770 337.450,394.513 336.280,394.178 335.400 C 393.722 334.204,393.628 334.103,393.805 335.000 M395.816 348.200 C 395.952 348.860,396.204 350.300,396.376 351.400 C 396.686 353.389,396.688 353.391,396.738 351.800 C 396.765 350.920,396.513 349.480,396.178 348.600 C 395.734 347.437,395.635 347.327,395.816 348.200 M396.828 358.276 C 396.813 358.758,396.980 359.264,397.200 359.400 C 397.673 359.692,397.673 359.301,397.200 358.200 C 396.869 357.429,396.855 357.431,396.828 358.276 M397.851 367.200 C 397.963 368.190,398.196 370.800,398.369 373.000 L 398.684 377.000 398.584 373.000 C 398.530 370.800,398.297 368.190,398.067 367.200 L 397.649 365.400 397.851 367.200 M398.861 386.600 C 398.808 387.902,399.386 389.147,399.835 388.698 C 399.989 388.545,399.926 388.190,399.695 387.910 C 399.465 387.629,399.194 386.950,399.093 386.400 C 398.926 385.495,398.904 385.514,398.861 386.600 " stroke="none" fill="#2c3c84" fill-rule="evenodd"></path></g></svg>